SplineFontDB: 3.0
FontName: JudsonItalic
FullName: Judson Italic
FamilyName: Judson
Weight: Medium
Copyright: Copyright (c) 2010, 2011, 2013 by Daniel Johnson. Released under the terms of the SIL Open Font License.
Version: 20130906
ItalicAngle: -9.5
UnderlinePosition: -204
UnderlineWidth: 102
Ascent: 1638
Descent: 410
LayerCount: 2
Layer: 0 0 "Back"  1
Layer: 1 1 "Fore"  0
XUID: [1021 338 342 14636793]
FSType: 0
OS2Version: 2
OS2_WeightWidthSlopeOnly: 0
OS2_UseTypoMetrics: 1
CreationTime: 1278388800
ModificationTime: 1378425600
PfmFamily: 17
TTFWeight: 500
TTFWidth: 5
LineGap: 0
VLineGap: 0
Panose: 2 0 6 3 0 0 0 0 0 0
OS2TypoAscent: 1860
OS2TypoAOffset: 0
OS2TypoDescent: -522
OS2TypoDOffset: 0
OS2TypoLinegap: 0
OS2WinAscent: 1860
OS2WinAOffset: 0
OS2WinDescent: 522
OS2WinDOffset: 0
HheadAscent: 1860
HheadAOffset: 0
HheadDescent: -522
HheadDOffset: 0
OS2SubXSize: 1331
OS2SubYSize: 1432
OS2SubXOff: 0
OS2SubYOff: 287
OS2SupXSize: 1331
OS2SupYSize: 1432
OS2SupXOff: 0
OS2SupYOff: 981
OS2StrikeYSize: 100
OS2StrikeYPos: 528
OS2Vendor: 'PfEd'
OS2CodePages: 00000093.00000000
OS2UnicodeRanges: a00000ff.5000000b.00000000.00000000
Lookup: 4 0 0 "'ccmp' Glyph Composition"  {"'ccmp' Glyph Composition Subtable"  } ['ccmp' ('DFLT' <'dflt' > 'grek' <'dflt' > 'latn' <'ENG ' 'FOS ' 'ISL ' 'ISM ' 'LSM ' 'NSM ' 'SKS ' 'SVE ' 'dflt' > ) ]
Lookup: 1 0 0 "'ss09' D with stroke through bowl"  {"'ss09' D with stroke through bowl subtable"  } ['ss09' ('DFLT' <'dflt' > 'latn' <'dflt' > ) ]
Lookup: 1 0 0 "'ss08' Z with top-hook"  {"'ss08' Z with top-hook subtable"  } ['ss08' ('DFLT' <'dflt' > 'latn' <'dflt' > ) ]
Lookup: 1 0 0 "'ss06' T with right-hook"  {"'ss06' T with right-hook subtable"  } ['ss06' ('DFLT' <'dflt' > 'latn' <'dflt' > ) ]
Lookup: 1 0 0 "'ss07' Reversed-Sigma Ezh"  {"'ss07' Reversed-Sigma Ezh subtable"  } ['ss07' ('DFLT' <'dflt' > 'latn' <'dflt' > ) ]

StartChar: .notdef
Encoding: 65536 -1 0
Width: 1024
Flags: MW
LayerCount: 2
Fore
SplineSet
102 0 m 1,0,-1
 285 1092 l 1,1,-1
 1105 1092 l 1,2,-1
 922 0 l 1,3,-1
 102 0 l 1,0,-1
222 102 m 1,4,-1
 836 102 l 1,5,-1
 985 989 l 1,6,-1
 371 989 l 1,7,-1
 222 102 l 1,4,-1
EndSplineSet
Validated: 1
EndChar

StartChar: exclam
Encoding: 33 33 2
Width: 481
Flags: W
HStem: -20 253<180.193 337.245> 1270 20G<401.5 494.5>
VStem: 135 250<27.4441 187.689> 279 95<402.873 689.088> 337 204<1004.47 1269.71>
LayerCount: 2
Fore
SplineSet
242.5 -20 m 128,-1,1
 192 -20 192 -20 163.5 13 c 128,-1,2
 135 46 135 46 135 70 c 0,3,4
 135 143 135 143 180 188 c 128,-1,5
 225 233 225 233 275.5 233 c 128,-1,6
 326 233 326 233 355.5 200.5 c 128,-1,7
 385 168 385 168 385 145 c 0,8,9
 385 72 385 72 339 26 c 128,-1,0
 293 -20 293 -20 242.5 -20 c 128,-1,1
541 1215 m 0,10,11
 541 1175 541 1175 463 865.5 c 128,-1,12
 385 556 385 556 374 520 c 0,13,14
 334 381 334 381 304 381 c 0,15,16
 279 381 279 381 279 458.5 c 128,-1,17
 279 536 279 536 303 830 c 128,-1,18
 327 1124 327 1124 337 1184 c 0,19,20
 355 1290 355 1290 448 1290 c 128,-1,21
 541 1290 541 1290 541 1215 c 0,10,11
EndSplineSet
Validated: 1
EndChar

StartChar: quotedbl
Encoding: 34 34 3
Width: 679
Flags: W
HStem: 836 526<313.26 353.186 641.26 680.289>
VStem: 285 198<1115.53 1339> 285 131<921.158 1187.9> 612 199<1117.43 1337.54> 612 132<921.774 1188.12>
LayerCount: 2
Fore
SplineSet
317 836 m 128,-1,1
 285 836 285 836 285 1018.5 c 128,-1,2
 285 1201 285 1201 297 1270 c 0,3,4
 312 1362 312 1362 397.5 1362 c 128,-1,5
 483 1362 483 1362 483 1294 c 0,6,7
 483 1251 483 1251 416 1043.5 c 128,-1,0
 349 836 349 836 317 836 c 128,-1,1
644 836 m 128,-1,9
 612 836 612 836 612 1015.5 c 128,-1,10
 612 1195 612 1195 625 1270 c 0,11,12
 640 1362 640 1362 725.5 1362 c 128,-1,13
 811 1362 811 1362 811 1294 c 0,14,15
 811 1254 811 1254 743.5 1045 c 128,-1,8
 676 836 676 836 644 836 c 128,-1,9
EndSplineSet
Validated: 1
EndChar

StartChar: numbersign
Encoding: 35 35 4
Width: 995
Flags: MW
LayerCount: 2
Fore
SplineSet
976 471 m 1,0,-1
 964 401 l 1,1,-1
 729 401 l 1,2,-1
 606 0 l 1,3,-1
 535 0 l 1,4,-1
 657 401 l 1,5,-1
 401 401 l 1,6,-1
 279 0 l 1,7,-1
 207 0 l 1,8,-1
 329 401 l 1,9,-1
 135 401 l 1,10,-1
 147 471 l 1,11,-1
 351 471 l 1,12,-1
 431 729 l 1,13,-1
 220 729 l 1,14,-1
 232 799 l 1,15,-1
 453 799 l 1,16,-1
 575 1198 l 1,17,-1
 646 1198 l 1,18,-1
 525 799 l 1,19,-1
 781 799 l 1,20,-1
 902 1198 l 1,21,-1
 974 1198 l 1,22,-1
 853 799 l 1,23,-1
 1062 799 l 1,24,-1
 1050 729 l 1,25,-1
 831 729 l 1,26,-1
 751 471 l 1,27,-1
 976 471 l 1,0,-1
423 471 m 1,28,-1
 679 471 l 1,29,-1
 759 729 l 1,30,-1
 503 729 l 1,31,-1
 423 471 l 1,28,-1
EndSplineSet
Validated: 1
EndChar

StartChar: dollar
Encoding: 36 36 5
Width: 931
Flags: W
HStem: -18 69<308.589 427 500 641.386> 1149 70<514.164 622 696 785.096>
VStem: 148 45<199.432 285> 248 169<837.727 1005.96> 744 179<178.091 389.377> 872 45<938 1024.02>
LayerCount: 2
Back
SplineSet
427 -18 m 5
 307 -9 203 28 116 94 c 5
 148 285 l 5
 193 285 l 5
 196 142 278 64 439 51 c 5
 518 524 l 5
 435 579 377 622 344 653 c 4
 280 716 248 782 248 853 c 4
 248 1033 444 1212 634 1219 c 5
 643 1270 l 5
 705 1270 l 5
 696 1217 l 5
 788 1206 886 1165 945 1106 c 5
 917 938 l 5
 872 938 l 5
 872 943 872 943 872 948 c 4
 872 1066 799 1134 684 1147 c 5
 613 723 l 5
 708 664 773 618 810 585 c 4
 885 516 923 439 923 354 c 4
 923 219 859 124 766 64 c 132
 681 9 589 -19 489 -20 c 5
 480 -74 l 5
 418 -74 l 5
 427 -18 l 5
622 1149 m 5
 506 1143 417 1046 417 943 c 4
 417 909 428 879 449 852 c 132
 470 825 506 794 557 760 c 5
 622 1149 l 5
574 489 m 5
 500 49 l 5
 643 53 744 130 744 280 c 4
 744 322 729 358 700 390 c 132
 671 422 629 455 574 489 c 5
EndSplineSet
Fore
SplineSet
427 -18 m 1,0,1
 246 -4 246 -4 116 94 c 1,2,-1
 148 285 l 1,3,-1
 193 285 l 1,4,5
 197 71 197 71 439 51 c 1,6,-1
 518 524 l 1,7,8
 394 606 394 606 344 653 c 1,9,10
 248 748 248 748 248 844.5 c 128,-1,11
 248 941 248 941 304.5 1025 c 128,-1,12
 361 1109 361 1109 451 1162.5 c 128,-1,13
 541 1216 541 1216 634 1219 c 1,14,-1
 643 1270 l 1,15,-1
 705 1270 l 1,16,-1
 696 1217 l 1,17,18
 767 1209 767 1209 834.5 1179 c 128,-1,19
 902 1149 902 1149 945 1106 c 1,20,-1
 917 938 l 1,21,-1
 872 938 l 1,22,-1
 872 948 l 2,23,24
 872 1035 872 1035 822 1086 c 128,-1,25
 772 1137 772 1137 684 1147 c 1,26,-1
 613 723 l 1,27,28
 752 637 752 637 810 585 c 1,29,30
 923 481 923 481 923 354 c 0,31,32
 923 165 923 165 766 64 c 0,33,34
 638 -19 638 -19 489 -20 c 1,35,-1
 480 -74 l 1,36,-1
 418 -74 l 1,37,-1
 427 -18 l 1,0,1
622 1149 m 1,38,39
 536 1145 536 1145 476.5 1083.5 c 128,-1,40
 417 1022 417 1022 417 957.5 c 128,-1,41
 417 893 417 893 449 851.5 c 128,-1,42
 481 810 481 810 557 760 c 1,43,-1
 622 1149 l 1,38,39
574 489 m 1,44,-1
 500 49 l 1,45,46
 611 52 611 52 677.5 111.5 c 128,-1,47
 744 171 744 171 744 280 c 0,48,49
 744 341 744 341 700 389.5 c 128,-1,50
 656 438 656 438 574 489 c 1,44,-1
EndSplineSet
Validated: 1
EndChar

StartChar: percent
Encoding: 37 37 6
Width: 1114
Flags: W
HStem: -6 69<795.899 897.729> 424 70<846.78 948.135> 706 68<367.265 467.595> 1135 69<417.957 517.916>
VStem: 218 126<781.868 1063.06> 541 125<845.654 1126.54> 649 125<69.8481 353.514> 971 125<133.986 416.33>
LayerCount: 2
Fore
SplineSet
1138 1157 m 1,0,-1
 261 41 l 1,1,-1
 179 41 l 1,2,-1
 1056 1157 l 1,3,-1
 1138 1157 l 1,0,-1
473 1135 m 0,4,5
 438 1135 438 1135 391 1068 c 128,-1,6
 344 1001 344 1001 344 907 c 0,7,8
 344 866 344 866 357 830 c 0,9,10
 376 774 376 774 412 774 c 128,-1,11
 448 774 448 774 494.5 841 c 128,-1,12
 541 908 541 908 541 1002 c 0,13,14
 541 1042 541 1042 528 1078 c 0,15,16
 508 1134 508 1134 473 1135 c 0,4,5
218 905 m 0,17,18
 218 1038 218 1038 319 1131 c 0,19,20
 398 1204 398 1204 484.5 1204 c 128,-1,21
 571 1204 571 1204 618.5 1140 c 128,-1,22
 666 1076 666 1076 666 1003 c 0,23,24
 666 870 666 870 566 778 c 0,25,26
 488 706 488 706 401 706 c 1,27,-1
 400 705 l 1,28,29
 314 705 314 705 266 768.5 c 128,-1,30
 218 832 218 832 218 905 c 0,17,18
903 424 m 128,-1,32
 867 424 867 424 820.5 357 c 128,-1,33
 774 290 774 290 774 195 c 0,34,35
 774 154 774 154 786 119 c 0,36,37
 806 63 806 63 841.5 63 c 128,-1,38
 877 63 877 63 924 130 c 128,-1,39
 971 197 971 197 971 291 c 0,40,41
 971 332 971 332 958 368 c 0,42,31
 939 424 939 424 903 424 c 128,-1,32
649 195 m 0,43,44
 649 328 649 328 737.5 411 c 128,-1,45
 826 494 826 494 913.5 494 c 128,-1,46
 1001 494 1001 494 1048.5 430 c 128,-1,47
 1096 366 1096 366 1096 293 c 0,48,49
 1096 160 1096 160 1006.5 77 c 128,-1,50
 917 -6 917 -6 830 -6 c 128,-1,51
 743 -6 743 -6 696 58 c 128,-1,52
 649 122 649 122 649 195 c 0,43,44
EndSplineSet
Validated: 1
EndChar

StartChar: ampersand
Encoding: 38 38 7
Width: 1239
Flags: W
HStem: -20 110<909.305 1102.17> -20 86<366.828 652.26> 664 43<941 1044.52 1151.55 1270> 1147 72<693.048 829.683>
VStem: 80 212<130.714 360.162> 464 168<733.891 1089.35> 848 88<871.816 1137.9>
LayerCount: 2
Fore
SplineSet
848 1024 m 0,0,1
 848 1147 848 1147 767 1147 c 0,2,3
 711 1147 711 1147 682 1101 c 0,4,5
 632 1021 632 1021 632 886 c 0,6,7
 632 817 632 817 648 731 c 1,8,9
 822 840 822 840 843 961 c 0,10,11
 848 995 848 995 848 1024 c 0,0,1
464 866 m 0,12,13
 464 1219 464 1219 747 1219 c 0,14,15
 848 1219 848 1219 892 1157 c 128,-1,16
 936 1095 936 1095 936 1027 c 0,17,18
 936 908 936 908 856.5 819.5 c 128,-1,19
 777 731 777 731 665 655 c 1,20,21
 720 422 720 422 831 238 c 1,22,23
 881 302 881 302 903.5 341 c 128,-1,24
 926 380 926 380 935 395 c 128,-1,25
 944 410 944 410 958.5 438 c 128,-1,26
 973 466 973 466 979.5 478 c 128,-1,27
 986 490 986 490 1000.5 520 c 128,-1,28
 1015 550 1015 550 1019 557.5 c 128,-1,29
 1023 565 1023 565 1037.5 596.5 c 128,-1,30
 1052 628 1052 628 1054 631 c 1,31,32
 1040 664 1040 664 934 664 c 1,33,-1
 941 707 l 1,34,-1
 1277 707 l 1,35,-1
 1270 664 l 1,36,37
 1153 664 1153 664 1135 625 c 0,38,39
 989 322 989 322 865 184 c 1,40,41
 936 90 936 90 1003 90 c 128,-1,42
 1070 90 1070 90 1103.5 105 c 128,-1,43
 1137 120 1137 120 1177 166 c 1,44,-1
 1198 145 l 1,45,46
 1132 23 1132 23 1044 -7 c 0,47,48
 1006 -20 1006 -20 960 -20 c 0,49,50
 843 -20 843 -20 743 74 c 1,51,52
 608 -20 608 -20 458 -20 c 0,53,54
 80 -20 80 -20 80 207 c 0,55,56
 80 379 80 379 278 514 c 0,57,58
 361 571 361 571 488 639 c 1,59,60
 464 766 464 766 464 866 c 0,12,13
704 117 m 1,61,62
 578 268 578 268 508 551 c 1,63,64
 415 488 415 488 353.5 422.5 c 128,-1,65
 292 357 292 357 292 252 c 0,66,67
 292 66 292 66 548 66 c 0,68,69
 629 66 629 66 704 117 c 1,61,62
EndSplineSet
Validated: 1
EndChar

StartChar: quotesingle
Encoding: 39 39 8
Width: 352
Flags: W
HStem: 836 526<313.26 353.186>
VStem: 285 198<1115.53 1339> 285 131<921.158 1187.9>
LayerCount: 2
Fore
SplineSet
317 836 m 128,-1,1
 285 836 285 836 285 1018.5 c 128,-1,2
 285 1201 285 1201 297 1270 c 0,3,4
 312 1362 312 1362 397.5 1362 c 128,-1,5
 483 1362 483 1362 483 1294 c 0,6,7
 483 1251 483 1251 416 1043.5 c 128,-1,0
 349 836 349 836 317 836 c 128,-1,1
EndSplineSet
Validated: 1
EndChar

StartChar: parenleft
Encoding: 40 40 9
Width: 497
Flags: W
VStem: 177 158<187.588 753.106>
LayerCount: 2
Fore
SplineSet
367 57 m 128,-1,1
 399 -64 399 -64 399 -83 c 128,-1,2
 399 -102 399 -102 380 -102 c 128,-1,3
 361 -102 361 -102 341 -72 c 0,4,5
 291 6 291 6 234 152 c 128,-1,6
 177 298 177 298 177 490 c 0,7,8
 177 749 177 749 326 1020 c 0,9,10
 429 1208 429 1208 589 1370 c 0,11,12
 611 1393 611 1393 626.5 1393 c 128,-1,13
 642 1393 642 1393 642 1378.5 c 128,-1,14
 642 1364 642 1364 612 1315.5 c 128,-1,15
 582 1267 582 1267 573.5 1252.5 c 128,-1,16
 565 1238 565 1238 542.5 1197.5 c 128,-1,17
 520 1157 520 1157 508.5 1130.5 c 128,-1,18
 497 1104 497 1104 474.5 1055.5 c 128,-1,19
 452 1007 452 1007 407 856.5 c 128,-1,20
 362 706 362 706 348.5 565.5 c 128,-1,21
 335 425 335 425 335 393 c 0,22,0
 335 178 335 178 367 57 c 128,-1,1
EndSplineSet
Validated: 1
EndChar

StartChar: parenright
Encoding: 41 41 10
Width: 497
Flags: W
VStem: 316 55<1320.83 1391.2> 380 157<556.7 1099.57>
LayerCount: 2
Fore
SplineSet
316 1352 m 1,0,1
 309 1393 309 1393 335 1393 c 1,2,3
 351 1394 351 1394 371 1362 c 0,4,5
 537 1100 537 1100 537 800 c 0,6,7
 537 350 537 350 124 -80 c 0,8,9
 102 -102 102 -102 87 -102 c 128,-1,10
 72 -102 72 -102 72 -88.5 c 128,-1,11
 72 -75 72 -75 107 -17 c 128,-1,12
 142 41 142 41 148.5 52.5 c 128,-1,13
 155 64 155 64 183 116 c 128,-1,14
 211 168 211 168 222 196 c 128,-1,15
 233 224 233 224 257 282 c 128,-1,16
 281 340 281 340 307 437 c 0,17,18
 380 706 380 706 380 899 c 128,-1,19
 380 1092 380 1092 357.5 1192.5 c 128,-1,20
 335 1293 335 1293 316 1352 c 1,0,1
EndSplineSet
Validated: 1
EndChar

StartChar: asterisk
Encoding: 42 42 11
Width: 737
Flags: W
HStem: 733 213<559.504 666.202> 963 178<290.334 384.472 673.059 810.121>
VStem: 295 203<780.739 884.029> 477 182<1121.85 1247.82> 482 103<946.874 997> 550 167<764.006 844.185>
LayerCount: 2
Fore
SplineSet
585 997 m 1,0,1
 593 974 593 974 559 946 c 1,2,3
 582 946 582 946 642.5 914.5 c 128,-1,4
 703 883 703 883 712.5 865 c 128,-1,5
 722 847 722 847 717 821 c 128,-1,6
 712 795 712 795 672 764 c 128,-1,7
 632 733 632 733 596.5 733 c 128,-1,8
 561 733 561 733 550.5 752.5 c 128,-1,9
 540 772 540 772 540 846.5 c 128,-1,10
 540 921 540 921 552 940 c 1,11,12
 540 932 540 932 524 932 c 128,-1,13
 508 932 508 932 497 938 c 1,14,15
 498 934 498 934 498 918 c 128,-1,16
 498 902 498 902 476 837.5 c 128,-1,17
 454 773 454 773 435.5 753 c 128,-1,18
 417 733 417 733 382.5 733 c 128,-1,19
 348 733 348 733 321.5 761 c 128,-1,20
 295 789 295 789 295 803 c 128,-1,21
 295 817 295 817 297.5 832.5 c 128,-1,22
 300 848 300 848 315 865.5 c 128,-1,23
 330 883 330 883 398.5 913.5 c 128,-1,24
 467 944 467 944 490 946 c 1,25,26
 469 966 469 966 480 991 c 0,27,28
 482 995 482 995 482 997 c 1,29,30
 463 987 463 987 405 975 c 128,-1,31
 347 963 347 963 316 963 c 0,32,33
 262 963 262 963 262 1020 c 0,34,35
 262 1067 262 1067 296.5 1104 c 128,-1,36
 331 1141 331 1141 363 1141 c 0,37,38
 368 1141 368 1141 385 1136 c 128,-1,39
 402 1131 402 1131 441.5 1080.5 c 128,-1,40
 481 1030 481 1030 486 1008 c 1,41,42
 503 1034 503 1034 536 1038 c 1,43,44
 521 1050 521 1050 499 1109 c 128,-1,45
 477 1168 477 1168 477 1184 c 0,46,47
 477 1227 477 1227 509 1248.5 c 128,-1,48
 541 1270 541 1270 579.5 1270 c 128,-1,49
 618 1270 618 1270 640.5 1250.5 c 128,-1,50
 663 1231 663 1231 658.5 1204.5 c 128,-1,51
 654 1178 654 1178 609 1114 c 128,-1,52
 564 1050 564 1050 545 1038 c 1,53,54
 576 1035 576 1035 584 1006 c 1,55,56
 592 1025 592 1025 652 1078 c 128,-1,57
 712 1131 712 1131 731 1136 c 128,-1,58
 750 1141 750 1141 756 1141 c 0,59,60
 787 1141 787 1141 804 1112.5 c 128,-1,61
 821 1084 821 1084 821 1067 c 128,-1,62
 821 1050 821 1050 817.5 1028.5 c 128,-1,63
 814 1007 814 1007 793.5 985 c 128,-1,64
 773 963 773 963 741 963 c 128,-1,65
 709 963 709 963 652.5 975 c 128,-1,66
 596 987 596 987 585 997 c 1,0,1
EndSplineSet
Validated: 1
EndChar

StartChar: plus
Encoding: 43 43 12
Width: 827
Flags: MW
LayerCount: 2
Fore
SplineSet
560 606 m 1,0,-1
 512 317 l 1,1,-1
 422 317 l 1,2,-1
 470 606 l 1,3,-1
 181 606 l 1,4,-1
 196 696 l 1,5,-1
 485 696 l 1,6,-1
 534 985 l 1,7,-1
 624 985 l 1,8,-1
 575 696 l 1,9,-1
 864 696 l 1,10,-1
 849 606 l 1,11,-1
 560 606 l 1,0,-1
EndSplineSet
Validated: 1
EndChar

StartChar: comma
Encoding: 44 44 13
Width: 471
Flags: W
HStem: -264 57<96 167.676> 14 191<180.052 287.406>
VStem: 288 101<-103.235 13.9982>
LayerCount: 2
Fore
SplineSet
247 1 m 128,-1,1
 227 -12 227 -12 193 -12 c 128,-1,2
 159 -12 159 -12 137 11.5 c 128,-1,3
 115 35 115 35 115 57 c 0,4,5
 115 135 115 135 164.5 170 c 128,-1,6
 214 205 214 205 253 205 c 0,7,8
 326 205 326 205 357.5 148 c 128,-1,9
 389 91 389 91 389 66 c 0,10,11
 389 -38 389 -38 347 -100 c 0,12,13
 272 -210 272 -210 87 -264 c 1,14,-1
 96 -207 l 1,15,16
 149 -200 149 -200 211.5 -150 c 128,-1,17
 274 -100 274 -100 282.5 -50.5 c 128,-1,18
 291 -1 291 -1 288 6.5 c 128,-1,19
 285 14 285 14 276 14 c 128,-1,0
 267 14 267 14 247 1 c 128,-1,1
EndSplineSet
Validated: 1
EndChar

StartChar: hyphen
Encoding: 45 45 14
Width: 794
Flags: W
HStem: 488 90<223 749>
VStem: 208 556
LayerCount: 2
Fore
SplineSet
223 578 m 5,0,-1
 764 578 l 5,1,-1
 749 488 l 5,2,-1
 208 488 l 5,3,-1
 223 578 l 5,0,-1
EndSplineSet
EndChar

StartChar: period
Encoding: 46 46 15
Width: 450
Flags: W
HStem: -20 253<165.818 320.245>
VStem: 118 250<27.4441 185.787>
LayerCount: 2
Fore
SplineSet
225.5 -20 m 128,-1,1
 175 -20 175 -20 146.5 13 c 128,-1,2
 118 46 118 46 118 70 c 0,3,4
 118 140 118 140 163 186.5 c 128,-1,5
 208 233 208 233 258.5 233 c 128,-1,6
 309 233 309 233 338.5 200.5 c 128,-1,7
 368 168 368 168 368 145 c 0,8,9
 368 72 368 72 322 26 c 128,-1,0
 276 -20 276 -20 225.5 -20 c 128,-1,1
EndSplineSet
Validated: 1
EndChar

StartChar: slash
Encoding: 47 47 16
Width: 937
Flags: MW
LayerCount: 2
Fore
SplineSet
38 -20 m 1,0,-1
 1048 1253 l 1,1,-1
 1101 1217 l 1,2,-1
 90 -57 l 1,3,-1
 38 -20 l 1,0,-1
EndSplineSet
Validated: 1
EndChar

StartChar: zero
Encoding: 48 48 17
Width: 1003
VWidth: 0
Flags: W
HStem: -20 64<432.065 598.016> 1155 64<607.633 772.438>
VStem: 156 181<182.604 727.706> 867 183<476.41 1012.18>
LayerCount: 2
Fore
SplineSet
429 866 m 0,0,1
 337 640 337 640 337 433 c 128,-1,2
 337 226 337 226 394 124 c 0,3,4
 439 44 439 44 509.5 44 c 128,-1,5
 580 44 580 44 651.5 124 c 128,-1,6
 723 204 723 204 775 330 c 0,7,8
 867 556 867 556 867 763.5 c 128,-1,9
 867 971 867 971 811 1074 c 0,10,11
 767 1155 767 1155 695.5 1155 c 128,-1,12
 624 1155 624 1155 552.5 1074 c 128,-1,13
 481 993 481 993 429 866 c 0,0,1
322 30 m 128,-1,15
 247 80 247 80 201.5 180.5 c 128,-1,16
 156 281 156 281 156 399 c 128,-1,17
 156 517 156 517 177 641.5 c 128,-1,18
 198 766 198 766 270 905 c 128,-1,19
 342 1044 342 1044 456.5 1131.5 c 128,-1,20
 571 1219 571 1219 706 1219 c 2,21,-1
 709 1219 l 2,22,23
 842 1219 842 1219 926 1132 c 1,24,25
 1050 1006 1050 1006 1050 776 c 0,26,27
 1050 693 1050 693 1034 598 c 0,28,29
 992 346 992 346 851 166 c 0,30,31
 784 80 784 80 692.5 30 c 128,-1,32
 601 -20 601 -20 499 -20 c 128,-1,14
 397 -20 397 -20 322 30 c 128,-1,15
EndSplineSet
Validated: 1
EndChar

StartChar: one
Encoding: 49 49 18
Width: 1003
VWidth: 0
Flags: W
HStem: 0 43<226 413.193 745.895 911> 1178 20G<782.61 859>
LayerCount: 2
Fore
SplineSet
859 1198 m 1,0,-1
 680 125 l 2,1,2
 679 122 679 122 679 119 c 0,3,4
 679 64 679 64 842 47 c 0,5,6
 881 43 881 43 918 43 c 1,7,-1
 911 0 l 1,8,-1
 219 0 l 1,9,-1
 226 43 l 1,10,11
 230 43 230 43 234 43 c 0,12,13
 391 43 391 43 458 84 c 0,14,15
 487 102 487 102 492 125 c 1,16,-1
 623 909 l 1,17,18
 534 860 534 860 381 760 c 1,19,-1
 373 795 l 1,20,-1
 804 1198 l 1,21,-1
 859 1198 l 1,0,-1
EndSplineSet
Validated: 1
EndChar

StartChar: two
Encoding: 50 50 19
Width: 1003
VWidth: 0
Flags: W
HStem: 0 143<352 844> 1096 122<483.875 761.235>
VStem: 812 206<779.019 1045.03>
LayerCount: 2
Fore
SplineSet
82 0 m 1,0,1
 88 38 88 38 264 182 c 0,2,3
 812 632 812 632 812 897 c 0,4,5
 812 956 812 956 787 1012 c 0,6,7
 749 1096 749 1096 655.5 1096 c 128,-1,8
 562 1096 562 1096 496 1075.5 c 128,-1,9
 430 1055 430 1055 392.5 1026.5 c 128,-1,10
 355 998 355 998 330 969 c 128,-1,11
 305 940 305 940 290.5 919.5 c 128,-1,12
 276 899 276 899 266 899 c 128,-1,13
 256 899 256 899 256 915.5 c 128,-1,14
 256 932 256 932 276 970 c 0,15,16
 319 1052 319 1052 422.5 1135 c 128,-1,17
 526 1218 526 1218 703 1218 c 2,18,-1
 708 1218 l 1,19,20
 888 1217 888 1217 973 1101 c 0,21,22
 1018 1040 1018 1040 1018 942 c 0,23,24
 1018 909 1018 909 1009.5 857.5 c 128,-1,25
 1001 806 1001 806 929.5 711.5 c 128,-1,26
 858 617 858 617 764 528 c 128,-1,27
 670 439 670 439 578 358.5 c 128,-1,28
 486 278 486 278 420.5 218.5 c 128,-1,29
 355 159 355 159 352 143 c 1,30,-1
 784 143 l 1,31,32
 815 155 815 155 857 189 c 128,-1,33
 899 223 899 223 927 272 c 1,34,-1
 968 272 l 1,35,-1
 844 0 l 1,36,-1
 82 0 l 1,0,1
EndSplineSet
Validated: 1
EndChar

StartChar: three
Encoding: 51 51 20
Width: 1003
VWidth: 0
Flags: W
HStem: -20 61<342.237 625.015> 596 41<509.375 576.707> 1096 123<500.016 783.428>
VStem: 122 144<94.1748 226.026> 792 176<212.391 547.493> 830 182<842.794 1050.11>
LayerCount: 2
Fore
SplineSet
636 606 m 1,0,-1
 534 596 l 1,1,2
 521 596 521 596 509 605 c 0,3,4
 484 625 484 625 517 637 c 1,5,6
 618 666 618 666 684 711 c 0,7,8
 830 811 830 811 830 948 c 0,9,10
 830 1007 830 1007 786 1051.5 c 128,-1,11
 742 1096 742 1096 655.5 1096 c 128,-1,12
 569 1096 569 1096 514.5 1079.5 c 128,-1,13
 460 1063 460 1063 429.5 1039.5 c 128,-1,14
 399 1016 399 1016 379 992.5 c 128,-1,15
 359 969 359 969 346.5 952.5 c 128,-1,16
 334 936 334 936 323.5 936 c 128,-1,17
 313 936 313 936 313 951 c 128,-1,18
 313 966 313 966 332 1002 c 0,19,20
 369 1074 369 1074 459 1146.5 c 128,-1,21
 549 1219 549 1219 681 1219 c 0,22,23
 878 1218 878 1218 954 1148 c 0,24,25
 1012 1094 1012 1094 1012 987.5 c 128,-1,26
 1012 881 1012 881 935.5 804.5 c 128,-1,27
 859 728 859 728 764 678 c 1,28,29
 860 653 860 653 914 564.5 c 128,-1,30
 968 476 968 476 968 397 c 0,31,32
 968 375 968 375 964 352 c 0,33,34
 929 142 929 142 791 54 c 0,35,36
 676 -20 676 -20 480 -20 c 0,37,38
 397 -20 397 -20 300.5 7 c 128,-1,39
 204 34 204 34 143 105 c 0,40,41
 122 129 122 129 122 144 c 0,42,43
 122 196 122 196 147.5 227 c 128,-1,44
 173 258 173 258 204.5 258 c 128,-1,45
 236 258 236 258 246.5 235.5 c 128,-1,46
 257 213 257 213 266 181.5 c 128,-1,47
 275 150 275 150 292 118 c 128,-1,48
 309 86 309 86 356.5 63.5 c 128,-1,49
 404 41 404 41 473 41 c 0,50,51
 653 41 653 41 734 166 c 1,52,53
 792 259 792 259 792 362 c 0,54,55
 792 512 792 512 726 573 c 0,56,57
 690 606 690 606 636 606 c 1,0,-1
EndSplineSet
Validated: 1
EndChar

StartChar: four
Encoding: 52 52 21
Width: 1003
VWidth: 0
Flags: W
HStem: 0 43<443 558.539 777.693 879> 360 62<264 625 821 975> 1178 20G<826.222 950>
LayerCount: 2
Fore
SplineSet
443 43 m 1,0,1
 555 43 555 43 579 84 c 1,2,-1
 625 360 l 1,3,-1
 140 360 l 1,4,-1
 843 1198 l 1,5,-1
 950 1198 l 1,6,-1
 821 422 l 1,7,-1
 986 422 l 1,8,-1
 975 360 l 1,9,-1
 810 360 l 1,10,-1
 764 84 l 1,11,12
 774 43 774 43 886 43 c 1,13,-1
 879 0 l 1,14,-1
 436 0 l 1,15,-1
 443 43 l 1,0,1
636 422 m 1,16,-1
 728 973 l 1,17,-1
 264 422 l 1,18,-1
 636 422 l 1,16,-1
EndSplineSet
Validated: 1
EndChar

StartChar: five
Encoding: 53 53 22
Width: 1003
VWidth: 0
Flags: W
HStem: -20 61<343.282 619.361> 713 80<424 606.881> 1055 143<505 976>
VStem: 122 138<106.03 226.026> 801 177<257.755 576.745>
LayerCount: 2
Fore
SplineSet
801 435 m 0,0,1
 801 711 801 711 328 713 c 1,2,-1
 476 1198 l 1,3,-1
 1048 1198 l 1,4,-1
 976 1055 l 1,5,-1
 505 1055 l 1,6,-1
 424 793 l 1,7,8
 814 793 814 793 930 622 c 0,9,10
 977 552 977 552 978 463 c 0,11,12
 978 433 978 433 972 401 c 0,13,14
 950 269 950 269 899 190 c 128,-1,15
 848 111 848 111 798 71 c 0,16,17
 685 -20 685 -20 489.5 -20 c 128,-1,18
 294 -20 294 -20 175 72 c 0,19,20
 122 113 122 113 122 142 c 0,21,22
 122 196 122 196 147.5 227 c 128,-1,23
 173 258 173 258 203 258 c 128,-1,24
 233 258 233 258 243 242 c 128,-1,25
 253 226 253 226 259.5 187 c 128,-1,26
 266 148 266 148 313.5 94.5 c 128,-1,27
 361 41 361 41 503 41 c 0,28,29
 504 41 504 41 505 41 c 0,30,31
 653 41 653 41 739 198 c 0,32,33
 801 311 801 311 801 435 c 0,0,1
EndSplineSet
Validated: 1
EndChar

StartChar: six
Encoding: 54 54 23
Width: 1003
VWidth: 0
Flags: W
HStem: -20 65<429.966 614.029> 688 70<462.534 720.248> 1198 37<852.658 899.974>
VStem: 175 180<136.321 594.071> 786 183<263.448 633.252>
LayerCount: 2
Fore
SplineSet
412 641 m 1,0,1
 355 454 355 454 355 323.5 c 128,-1,2
 355 193 355 193 383 138 c 0,3,4
 429 45 429 45 519.5 45 c 128,-1,5
 610 45 610 45 681 144.5 c 128,-1,6
 752 244 752 244 778 401 c 0,7,8
 786 449 786 449 786 491.5 c 128,-1,9
 786 534 786 534 775 569 c 0,10,11
 739 688 739 688 614.5 688 c 128,-1,12
 490 688 490 688 412 641 c 1,0,1
434 709 m 1,13,14
 525 758 525 758 625 758 c 0,15,16
 895 758 895 758 950 610 c 0,17,18
 969 560 969 560 969 502 c 0,19,20
 969 234 969 234 810 88 c 0,21,22
 692 -20 692 -20 511 -20 c 0,23,24
 380 -20 380 -20 297 44 c 0,25,26
 175 139 175 139 175 333 c 128,-1,27
 175 527 175 527 275 733.5 c 128,-1,28
 375 940 375 940 559.5 1078.5 c 128,-1,29
 744 1217 744 1217 893 1235 c 1,30,-1
 911 1198 l 1,31,32
 752 1159 752 1159 629.5 1034.5 c 128,-1,33
 507 910 507 910 434 709 c 1,13,14
EndSplineSet
Validated: 1
EndChar

StartChar: seven
Encoding: 55 55 24
Width: 1003
VWidth: 0
Flags: W
HStem: -20 21G<425 453> 1055 143<397 906>
VStem: 375 147<-8.65381 151.468>
LayerCount: 2
Fore
SplineSet
375 23 m 0,0,1
 402 184 402 184 726 718 c 0,2,3
 896 998 896 998 906 1055 c 1,4,-1
 458 1055 l 1,5,6
 427 1043 427 1043 384.5 1009 c 128,-1,7
 342 975 342 975 315 926 c 1,8,-1
 274 926 l 1,9,-1
 397 1198 l 1,10,-1
 1085 1198 l 1,11,12
 1079 1164 1079 1164 821 710 c 0,13,14
 725 540 725 540 633.5 341.5 c 128,-1,15
 542 143 542 143 522 23 c 0,16,17
 518 2 518 2 492.5 -9 c 128,-1,18
 467 -20 467 -20 439 -20 c 128,-1,19
 411 -20 411 -20 391 -9 c 128,-1,20
 371 2 371 2 375 23 c 0,0,1
EndSplineSet
Validated: 1
EndChar

StartChar: eight
Encoding: 56 56 25
Width: 1003
VWidth: 0
Flags: W
HStem: -20 65<367.618 622.778> 1153 66<592.445 840.72>
VStem: 154 137<103.037 384.646> 293 179<811.794 1057.91> 758 179<155.358 387.996> 898 135<827.626 1109.72>
LayerCount: 2
Back
SplineSet
898 998 m 4
 898 1091 835 1153 736 1153 c 4
 577 1153 472 1058 472 918 c 4
 472 879 489 841 524 802 c 132
 559 763 609 717 674 664 c 5
 805 730 898 848 898 998 c 4
730 616 m 5
 868 497 937 389 937 294 c 132
 937 96 714 -20 492 -20 c 132
 300 -20 154 53 154 219 c 4
 154 348 225 462 368 560 c 4
 398 581 430 600 465 616 c 5
 350 719 293 817 293 910 c 132
 293 1105 483 1218.5 715 1219 c 132
 905.01 1219.41 1033 1155 1033 991 c 4
 1033 836 932 711 730 616 c 5
488 45 m 132
 631 45 758 150 758 295 c 132
 758 347 687 427 640 465 c 4
 593 503 575 522 521 567 c 5
 468 539 416 494 366 434 c 132
 316 374 291 303 291 221 c 4
 291 113 371 45 488 45 c 132
EndSplineSet
Fore
SplineSet
837 802 m 128,-1,1
 898 889 898 889 898 978.5 c 128,-1,2
 898 1068 898 1068 854 1110.5 c 128,-1,3
 810 1153 810 1153 736 1153 c 0,4,5
 617 1153 617 1153 544.5 1088 c 128,-1,6
 472 1023 472 1023 472 918 c 0,7,8
 472 860 472 860 524 802 c 128,-1,9
 576 744 576 744 674 664 c 1,10,0
 776 715 776 715 837 802 c 128,-1,1
715 1219 m 0,11,12
 1033 1219 1033 1219 1033 989 c 128,-1,13
 1033 759 1033 759 730 616 c 1,14,15
 937 438 937 438 937 294 c 0,16,17
 937 199 937 199 871.5 125.5 c 128,-1,18
 806 52 806 52 705.5 16 c 128,-1,19
 605 -20 605 -20 472.5 -20 c 128,-1,20
 340 -20 340 -20 247 40 c 128,-1,21
 154 100 154 100 154 219 c 0,22,23
 154 413 154 413 368 560 c 0,24,25
 416 594 416 594 465 616 c 1,26,27
 293 770 293 770 293 911 c 128,-1,28
 293 1052 293 1052 414 1135.5 c 128,-1,29
 535 1219 535 1219 715 1219 c 0,11,12
345.5 93 m 128,-1,31
 400 45 400 45 499 45 c 128,-1,32
 598 45 598 45 678 116.5 c 128,-1,33
 758 188 758 188 758 295 c 0,34,35
 758 331 758 331 720 381 c 128,-1,36
 682 431 682 431 648.5 458 c 128,-1,37
 615 485 615 485 580.5 515.5 c 128,-1,38
 546 546 546 546 521 567 c 1,39,40
 442 525 442 525 366.5 434.5 c 128,-1,41
 291 344 291 344 291 221 c 0,42,30
 291 141 291 141 345.5 93 c 128,-1,31
EndSplineSet
Validated: 1
EndChar

StartChar: nine
Encoding: 57 57 26
Width: 1003
VWidth: 0
Flags: W
HStem: -37 37<304.026 350.245> 440 70<486.044 740.779> 1153 65<587.552 776.697>
VStem: 236 183<565.42 943.964> 850 180<608.796 1059.13>
LayerCount: 2
Back
SplineSet
850 872 m 132
 850 1027 810 1153 686 1153 c 132
 518 1153 419 906 419 716 c 4
 419 594 473 510 589 510 c 132
 672 510 739 526 791 557 c 5
 830 685 850 790 850 872 c 132
693 1219 m 5
 911 1217 1030 1077 1030 864 c 132
 1030 549 845 270 646 120 c 132
 523 27 411 -25 311 -37 c 5
 293 0 l 5
 532 59 685 254 770 489 c 5
 709 456 646 440 579 440 c 4
 351 440 236 523 236 690 c 4
 236 989 393 1217 693 1219 c 5
EndSplineSet
Fore
SplineSet
850 872 m 0,0,1
 850 1153 850 1153 686 1153 c 0,2,3
 626 1153 626 1153 574 1111.5 c 128,-1,4
 522 1070 522 1070 489 1006 c 0,5,6
 419 869 419 869 419 716 c 0,7,8
 419 621 419 621 462 565.5 c 128,-1,9
 505 510 505 510 589 510 c 0,10,11
 712 510 712 510 791 557 c 1,12,13
 850 751 850 751 850 872 c 0,0,1
442 1148 m 0,14,15
 547 1218 547 1218 700.5 1218 c 128,-1,16
 854 1218 854 1218 942 1122 c 128,-1,17
 1030 1026 1030 1026 1030 864 c 0,18,19
 1030 641 1030 641 919 441.5 c 128,-1,20
 808 242 808 242 635 111.5 c 128,-1,21
 462 -19 462 -19 311 -37 c 1,22,-1
 293 0 l 1,23,24
 464 42 464 42 583 171.5 c 128,-1,25
 702 301 702 301 770 489 c 1,26,27
 679 440 679 440 579 440 c 0,28,29
 236 440 236 440 236 690 c 0,30,31
 236 1010 236 1010 442 1148 c 0,14,15
EndSplineSet
Validated: 1
EndChar

StartChar: colon
Encoding: 58 58 27
Width: 499
Flags: W
HStem: -20 253<188.193 345.245> 655 254<301.193 458.245>
VStem: 143 250<27.4441 187.689> 256 250<702.702 863.977>
LayerCount: 2
Fore
SplineSet
363.5 655 m 128,-1,1
 313 655 313 655 284.5 688.5 c 128,-1,2
 256 722 256 722 256 746 c 0,3,4
 256 819 256 819 301 864 c 128,-1,5
 346 909 346 909 396.5 909 c 128,-1,6
 447 909 447 909 476.5 876 c 128,-1,7
 506 843 506 843 506 820 c 0,8,9
 506 747 506 747 460 701 c 128,-1,0
 414 655 414 655 363.5 655 c 128,-1,1
250.5 -20 m 128,-1,11
 200 -20 200 -20 171.5 13 c 128,-1,12
 143 46 143 46 143 70 c 0,13,14
 143 143 143 143 188 188 c 128,-1,15
 233 233 233 233 283.5 233 c 128,-1,16
 334 233 334 233 363.5 200.5 c 128,-1,17
 393 168 393 168 393 145 c 0,18,19
 393 72 393 72 347 26 c 128,-1,10
 301 -20 301 -20 250.5 -20 c 128,-1,11
EndSplineSet
Validated: 1
EndChar

StartChar: semicolon
Encoding: 59 59 28
Width: 536
Flags: W
HStem: -264 57<125 197.05> 14 191<209.052 316.163> 655 254<319.193 476.245>
VStem: 274 250<702.702 863.977> 316 102<-104.326 13.9982>
LayerCount: 2
Fore
SplineSet
381.5 655 m 128,-1,1
 331 655 331 655 302.5 688.5 c 128,-1,2
 274 722 274 722 274 746 c 0,3,4
 274 819 274 819 319 864 c 128,-1,5
 364 909 364 909 414.5 909 c 128,-1,6
 465 909 465 909 494.5 876 c 128,-1,7
 524 843 524 843 524 820 c 0,8,9
 524 747 524 747 478 701 c 128,-1,0
 432 655 432 655 381.5 655 c 128,-1,1
276 1 m 128,-1,11
 256 -12 256 -12 222 -12 c 128,-1,12
 188 -12 188 -12 166 11.5 c 128,-1,13
 144 35 144 35 144 57 c 0,14,15
 144 135 144 135 193.5 170 c 128,-1,16
 243 205 243 205 282 205 c 0,17,18
 355 205 355 205 386.5 148.5 c 128,-1,19
 418 92 418 92 418 58 c 0,20,21
 418 -42 418 -42 383.5 -91 c 128,-1,22
 349 -140 349 -140 317 -166 c 0,23,24
 243 -228 243 -228 116 -264 c 1,25,-1
 125 -207 l 1,26,27
 177 -200 177 -200 239.5 -150 c 128,-1,28
 302 -100 302 -100 310.5 -50.5 c 128,-1,29
 319 -1 319 -1 316.5 6.5 c 128,-1,30
 314 14 314 14 305 14 c 128,-1,10
 296 14 296 14 276 1 c 128,-1,11
EndSplineSet
Validated: 1
EndChar

StartChar: less
Encoding: 60 60 29
Width: 952
Flags: MW
LayerCount: 2
Fore
SplineSet
177 696 m 1,0,-1
 991 1049 l 1,1,-1
 977 967 l 1,2,-1
 248 651 l 1,3,-1
 871 336 l 1,4,-1
 858 254 l 1,5,-1
 162 606 l 1,6,-1
 177 696 l 1,0,-1
EndSplineSet
Validated: 1
EndChar

StartChar: equal
Encoding: 61 61 30
Width: 991
Flags: MW
LayerCount: 2
Fore
SplineSet
229 573 m 1,0,-1
 954 573 l 1,1,-1
 939 483 l 1,2,-1
 214 483 l 1,3,-1
 229 573 l 1,0,-1
270 819 m 1,4,-1
 995 819 l 1,5,-1
 980 729 l 1,6,-1
 255 729 l 1,7,-1
 270 819 l 1,4,-1
EndSplineSet
Validated: 1
EndChar

StartChar: greater
Encoding: 62 62 31
Width: 952
Flags: MW
LayerCount: 2
Fore
SplineSet
992 606 m 1,0,-1
 180 254 l 1,1,-1
 193 336 l 1,2,-1
 922 651 l 1,3,-1
 299 967 l 1,4,-1
 313 1049 l 1,5,-1
 1007 696 l 1,6,-1
 992 606 l 1,0,-1
EndSplineSet
Validated: 1
EndChar

StartChar: question
Encoding: 63 63 32
Width: 806
Flags: W
HStem: -20 253<311.193 468.245> 1229 61<455.885 682.489>
VStem: 226 136<946.107 1121.29> 266 250<27.4441 187.689> 411 55<382.023 475.092> 731 177<867.189 1181.99>
LayerCount: 2
Fore
SplineSet
373.5 -20 m 128,-1,1
 323 -20 323 -20 294.5 13 c 128,-1,2
 266 46 266 46 266 70 c 0,3,4
 266 143 266 143 311 188 c 128,-1,5
 356 233 356 233 406.5 233 c 128,-1,6
 457 233 457 233 486.5 200.5 c 128,-1,7
 516 168 516 168 516 145 c 0,8,9
 516 72 516 72 470 26 c 128,-1,0
 424 -20 424 -20 373.5 -20 c 128,-1,1
731 1070 m 0,10,11
 731 1229 731 1229 580 1229 c 0,12,13
 488 1229 488 1229 425 1177.5 c 128,-1,14
 362 1126 362 1126 362 1070 c 0,15,16
 362 1051 362 1051 370.5 1030 c 128,-1,17
 379 1009 379 1009 379 982.5 c 128,-1,18
 379 956 379 956 352.5 933.5 c 128,-1,19
 326 911 326 911 294 911 c 128,-1,20
 262 911 262 911 244 933.5 c 128,-1,21
 226 956 226 956 226 977.5 c 128,-1,22
 226 999 226 999 232 1031 c 0,23,24
 236 1063 236 1063 264 1110 c 0,25,26
 369 1290 369 1290 599 1290 c 0,27,28
 697 1290 697 1290 765.5 1260 c 128,-1,29
 834 1230 834 1230 864 1181 c 0,30,31
 908 1108 908 1108 908 1024 c 0,32,33
 908 885 908 885 779 758 c 0,34,35
 704 684 704 684 620 609.5 c 128,-1,36
 536 535 536 535 503 491.5 c 128,-1,37
 470 448 470 448 466 424 c 128,-1,38
 462 400 462 400 451.5 390.5 c 128,-1,39
 441 381 441 381 433 381 c 128,-1,40
 425 381 425 381 417 390.5 c 128,-1,41
 409 400 409 400 411 410 c 0,42,43
 430 526 430 526 525 640 c 0,44,45
 565 688 565 688 605 738 c 0,46,47
 731 892 731 892 731 1070 c 0,10,11
EndSplineSet
Validated: 1
EndChar

StartChar: at
Encoding: 64 64 33
Width: 1282
Flags: W
HStem: -20 79<522.129 912.728> 299 74<832.5 1000.73> 326 88<537.02 694.921> 834 61<694.763 846.934> 1133 86<660.912 1073.16>
VStem: 179 88.5<308.646 727.797> 430 95<423.246 656.088> 763 105<373.483 468.327> 1193 88<601.55 1012.98>
LayerCount: 2
Back
SplineSet
1193 806 m 132
 1193 1039.23 1098.95 1133.06 885.078 1133.06 c 4
 532.42 1133.06 265.652 845.837 268 496 c 5
 268 266.648 454.351 59 702 59 c 4
 966.376 59 1139.86 225.846 1242 373 c 5
 1272 356 l 5
 1139.34 135.932 985.02 -20 676 -20 c 132
 393.34 -20 179 204.346 179 478 c 4
 179 871.842 489.138 1219 888 1219 c 6
 891 1219 l 6
 1121 1219 1281 1074 1281 834 c 4
 1281 665.613 1243.05 580.948 1144 454 c 4
 1085 378 978 299 851 299 c 4
 804 299 763 328 763 374 c 132
 763 396 766 417 773 436 c 5
 702 363 636 326 575 326 c 4
 478 326 430 377 430 480 c 4
 430 665.526 608.1 895 782 895 c 132
 866 895 911 843 916 764 c 5
 963 872 l 5
 1072 872 l 5
 875 416 l 5
 870.432 409.909 868.311 404.14 868.311 398.922 c 4
 868.311 383.58 886.644 373 915 373 c 4
 984 374 1051 429 1117 538 c 4
 1168 623 1193 712 1193 806 c 132
610 414 m 4
 661 414 716 447 776 512 c 132
 836 577 867 647 867 722 c 132
 867 797 839 834 783 834 c 4
 666.044 834 525 648.504 525 524 c 132
 525 450 553 414 610 414 c 4
EndSplineSet
Fore
SplineSet
1193 822 m 0,0,1
 1193 1132 1193 1132 901 1133 c 0,2,3
 621 1133 621 1133 443 946 c 0,4,5
 362 861 362 861 314 742 c 0,6,7
 267 626 267 626 267 506 c 0,8,9
 268 382 268 382 324 282 c 128,-1,10
 380 182 380 182 480.5 120.5 c 128,-1,11
 581 59 581 59 702 59 c 0,12,13
 1024 59 1024 59 1242 373 c 1,14,-1
 1272 356 l 1,15,16
 1102 70 1102 70 880 6 c 0,17,18
 788 -20 788 -20 676 -20 c 0,19,20
 466 -20 466 -20 322.5 125.5 c 128,-1,21
 179 271 179 271 179 478 c 0,22,23
 179 624 179 624 234.5 759.5 c 128,-1,24
 290 895 290 895 383.5 996.5 c 128,-1,25
 477 1098 477 1098 609.5 1158.5 c 128,-1,26
 742 1219 742 1219 888 1219 c 2,27,-1
 891 1219 l 2,28,29
 1066 1219 1066 1219 1173.5 1115.5 c 128,-1,30
 1281 1012 1281 1012 1281 834 c 0,31,32
 1281 712 1281 712 1251.5 632.5 c 128,-1,33
 1222 553 1222 553 1158 471 c 0,34,35
 1025 299 1025 299 851 299 c 0,36,37
 814 299 814 299 788.5 320 c 128,-1,38
 763 341 763 341 763 375 c 128,-1,39
 763 409 763 409 773 436 c 1,40,41
 666 326 666 326 575 326 c 0,42,43
 430 326 430 326 430 480 c 0,44,45
 430 572 430 572 481 668.5 c 128,-1,46
 532 765 532 765 615 830 c 128,-1,47
 698 895 698 895 771 895 c 0,48,49
 907 895 907 895 916 764 c 1,50,-1
 963 872 l 1,51,-1
 1072 872 l 1,52,-1
 875 416 l 1,53,54
 868 407 868 407 868 399 c 0,55,56
 868 373 868 373 915 373 c 0,57,58
 1018 374 1018 374 1117 538 c 0,59,60
 1193 664 1193 664 1193 822 c 0,0,1
610 414 m 0,61,62
 686 414 686 414 776.5 512.5 c 128,-1,63
 867 611 867 611 867 722.5 c 128,-1,64
 867 834 867 834 783 834 c 0,65,66
 727 834 727 834 665.5 782.5 c 128,-1,67
 604 731 604 731 564.5 658 c 128,-1,68
 525 585 525 585 525 524 c 0,69,70
 525 414 525 414 610 414 c 0,61,62
EndSplineSet
Validated: 1
EndChar

StartChar: A
Encoding: 65 65 34
Width: 1118
Flags: W
HStem: 0 43<-9 105.412 215.762 319 695 813.072 1034.27 1137> 381 68<399 743> 1178 20G<699.514 811.813>
AnchorPoint: "top" 778 1270 basechar 0
AnchorPoint: "mid" 591 590 basechar 0
AnchorPoint: "below" 508 0 basechar 0
AnchorPoint: "cedilla" 893 0 basechar 0
AnchorPoint: "ogonek" 1004 0 basechar 0
LayerCount: 2
Fore
SplineSet
688 0 m 1,0,-1
 695 43 l 1,1,2
 789 43 789 43 818 68 c 1,3,-1
 756 381 l 1,4,-1
 363 381 l 1,5,-1
 206 80 l 1,6,7
 213 59 213 59 239 51 c 128,-1,8
 265 43 265 43 326 43 c 1,9,-1
 319 0 l 1,10,-1
 -16 0 l 1,11,-1
 -9 43 l 1,12,13
 104 43 104 43 127 86 c 2,14,-1
 710 1198 l 1,15,-1
 808 1198 l 1,16,-1
 1020 86 l 2,17,18
 1028 43 1028 43 1144 43 c 1,19,-1
 1137 0 l 1,20,-1
 688 0 l 1,0,-1
649 926 m 1,21,-1
 399 449 l 1,22,-1
 743 449 l 1,23,-1
 649 926 l 1,21,-1
EndSplineSet
Validated: 1
EndChar

StartChar: B
Encoding: 66 66 35
Width: 1142
Flags: W
HStem: 0 70<415 763.604> 0 43<93 208.539> 594 59<512 758.181> 1128 70<592 841.71> 1155 43<286 387.307>
VStem: 931 204<237.016 504.497 798.668 1064.31>
AnchorPoint: "mid" 410 324 basechar 0
AnchorPoint: "below" 504 0 basechar 0
AnchorPoint: "top" 705 1270 basechar 0
LayerCount: 2
Fore
SplineSet
502 594 m 1,0,-1
 415 70 l 1,1,-1
 590 70 l 2,2,3
 816 70 816 70 890 237 c 0,4,5
 926 316 926 316 926 400.5 c 128,-1,6
 926 485 926 485 858.5 539.5 c 128,-1,7
 791 594 791 594 652 594 c 2,8,-1
 502 594 l 1,0,-1
596 653 m 2,9,10
 883 653 883 653 927 913 c 0,11,12
 931 935 931 935 931 955 c 0,13,14
 931 1128 931 1128 652 1128 c 2,15,-1
 592 1128 l 1,16,-1
 512 653 l 1,17,-1
 596 653 l 2,9,10
401 1114 m 1,18,19
 391 1155 391 1155 279 1155 c 1,20,-1
 286 1198 l 1,21,-1
 663 1198 l 2,22,23
 966 1198 966 1198 1082 1074 c 0,24,25
 1135 1016 1135 1016 1135 946 c 0,26,27
 1135 931 1135 931 1132 915 c 0,28,29
 1097 707 1097 707 868 633 c 1,30,31
 1084 582 1084 582 1124 434 c 0,32,33
 1130 412 1130 412 1129 386 c 1,34,35
 1129 297 1129 297 1082 223 c 0,36,37
 939 0 939 0 578 0 c 2,38,-1
 86 0 l 1,39,-1
 93 43 l 1,40,41
 205 43 205 43 229 84 c 1,42,-1
 401 1114 l 1,18,19
EndSplineSet
Validated: 1
EndChar

StartChar: C
Encoding: 67 67 36
Width: 1150
Flags: W
HStem: -20 69<578.97 870.88> 1149 70<737.812 1052.24> 1178 20G<1155 1206>
VStem: 173 217<251.744 717.878> 1138 45<938 1044.09> 1158 48<1157.81 1198>
AnchorPoint: "top" 918 1270 basechar 0
AnchorPoint: "below" 666 0 basechar 0
AnchorPoint: "cedilla" 666 0 basechar 0
LayerCount: 2
Fore
SplineSet
901 1149 m 0,0,1
 724 1149 724 1149 583.5 1003.5 c 128,-1,2
 443 858 443 858 404 627 c 0,3,4
 390 546 390 546 390 485 c 0,5,6
 390 298 390 298 460 194 c 0,7,8
 558 49 558 49 725 49 c 0,9,10
 827 49 827 49 939.5 119.5 c 128,-1,11
 1052 190 1052 190 1094 270 c 1,12,-1
 1139 246 l 1,13,14
 1080 144 1080 144 967 62 c 128,-1,15
 854 -20 854 -20 694 -20 c 0,16,17
 392 -20 392 -20 265 164 c 0,18,19
 173 297 173 297 173 483 c 128,-1,20
 173 669 173 669 280 848 c 0,21,22
 352 970 352 970 452 1050 c 0,23,24
 663 1219 663 1219 911 1219 c 0,25,26
 980 1219 980 1219 1047 1188 c 128,-1,27
 1114 1157 1114 1157 1128 1157 c 0,28,29
 1152 1157 1152 1157 1158 1198 c 1,30,-1
 1206 1198 l 1,31,-1
 1183 938 l 1,32,-1
 1138 938 l 1,33,34
 1138 942 1138 942 1138 946 c 0,35,36
 1138 1034 1138 1034 1081.5 1091.5 c 128,-1,37
 1025 1149 1025 1149 901 1149 c 0,0,1
EndSplineSet
Validated: 1
EndChar

StartChar: D
Encoding: 68 68 37
Width: 1251
Flags: W
HStem: 0 70<415 735.984> 0 43<93 208.539> 1139 59<594 877.553> 1155 43<286 387.307>
VStem: 1069 204<475.125 935.795>
AnchorPoint: "top" 762 1270 basechar 0
AnchorPoint: "mid" 463 586 basechar 0
AnchorPoint: "below" 492 0 basechar 0
AnchorPoint: "cedilla" 492 0 basechar 0
LayerCount: 2
Fore
SplineSet
401 1114 m 1,0,1
 391 1155 391 1155 279 1155 c 1,2,-1
 286 1198 l 1,3,-1
 757 1198 l 2,4,5
 1030 1198 1030 1198 1168 1033 c 0,6,7
 1272 908 1272 908 1273 726 c 0,8,9
 1273 668 1273 668 1262 602 c 0,10,11
 1217 336 1217 336 1028 168 c 128,-1,12
 839 0 839 0 582 0 c 2,13,-1
 86 0 l 1,14,-1
 93 43 l 1,15,16
 205 43 205 43 229 84 c 1,17,-1
 401 1114 l 1,0,1
594 1139 m 1,18,-1
 415 70 l 1,19,-1
 594 70 l 2,20,21
 704 70 704 70 808 146 c 1,22,23
 1003 286 1003 286 1056 600 c 0,24,25
 1069 677 1069 677 1069 738 c 0,26,27
 1069 918 1069 918 996 1014 c 1,28,29
 899 1139 899 1139 748 1139 c 2,30,-1
 594 1139 l 1,18,-1
EndSplineSet
Validated: 1
EndChar

StartChar: E
Encoding: 69 69 38
Width: 1038
Flags: W
HStem: 0 70<415 929.118> 0 43<93 208.539> 588 69<513 811.881> 1128 70<592 1039.63> 1155 43<286 387.307>
VStem: 1035 43<999 1075.24>
AnchorPoint: "top" 762 1270 basechar 0
AnchorPoint: "mid" 371 336 basechar 0
AnchorPoint: "below" 532 0 basechar 0
AnchorPoint: "cedilla" 532 0 basechar 0
AnchorPoint: "ogonek" 831 0 basechar 0
LayerCount: 2
Fore
SplineSet
808 459 m 1,0,1
 814 496 814 496 814 536.5 c 128,-1,2
 814 577 814 577 788 588 c 1,3,-1
 501 588 l 1,4,-1
 415 70 l 1,5,-1
 882 70 l 1,6,7
 937 91 937 91 996 199 c 1,8,-1
 1037 199 l 1,9,-1
 954 0 l 1,10,-1
 86 0 l 1,11,-1
 93 43 l 1,12,13
 205 43 205 43 229 84 c 1,14,-1
 401 1114 l 1,15,16
 391 1155 391 1155 279 1155 c 1,17,-1
 286 1198 l 1,18,-1
 1111 1198 l 1,19,-1
 1078 999 l 1,20,-1
 1035 999 l 1,21,22
 1041 1036 1041 1036 1041 1076.5 c 128,-1,23
 1041 1117 1041 1117 1016 1128 c 1,24,-1
 592 1128 l 1,25,-1
 513 657 l 1,26,-1
 800 657 l 1,27,28
 844 674 844 674 863 786 c 1,29,-1
 906 786 l 1,30,-1
 851 459 l 1,31,-1
 808 459 l 1,0,1
EndSplineSet
Validated: 1
EndChar

StartChar: F
Encoding: 70 70 39
Width: 962
Flags: W
HStem: 0 43<93 208.539 430.693 532> 588 69<513 811.881> 1128 70<592 1039.63> 1155 43<286 387.307>
VStem: 1035 43<999 1075.24>
AnchorPoint: "top" 762 1270 basechar 0
LayerCount: 2
Fore
SplineSet
417 84 m 1,0,1
 427 43 427 43 539 43 c 1,2,-1
 532 0 l 1,3,-1
 86 0 l 1,4,-1
 93 43 l 1,5,6
 205 43 205 43 229 84 c 1,7,-1
 401 1114 l 1,8,9
 391 1155 391 1155 279 1155 c 1,10,-1
 286 1198 l 1,11,-1
 1111 1198 l 1,12,-1
 1078 999 l 1,13,-1
 1035 999 l 1,14,15
 1041 1036 1041 1036 1041 1076.5 c 128,-1,16
 1041 1117 1041 1117 1016 1128 c 1,17,-1
 592 1128 l 1,18,-1
 513 657 l 1,19,-1
 800 657 l 1,20,21
 844 674 844 674 863 786 c 1,22,-1
 906 786 l 1,23,-1
 851 459 l 1,24,-1
 808 459 l 1,25,26
 814 496 814 496 814 536.5 c 128,-1,27
 814 577 814 577 788 588 c 1,28,-1
 501 588 l 1,29,-1
 417 84 l 1,0,1
EndSplineSet
Validated: 1
EndChar

StartChar: G
Encoding: 71 71 40
Width: 1263
Flags: W
HStem: -20 69<561.297 900.964> 549 43<883 984.307 1207.46 1323> 1149 70<765.458 1072.84> 1178 20G<1192 1242>
VStem: 170 211<262.124 719.156> 1175 45<938 1033.75> 1195 47<1158 1198>
AnchorPoint: "cedilla" 662 0 basechar 0
AnchorPoint: "below" 662 0 basechar 0
AnchorPoint: "top" 913 1270 basechar 0
AnchorPoint: "mid" 1073 362 basechar 0
LayerCount: 2
Fore
SplineSet
1323 549 m 1,0,1
 1211 549 1211 549 1187 508 c 1,2,-1
 1129 164 l 1,3,4
 1087 106 1087 106 1010 63 c 0,5,6
 863 -20 863 -20 689 -20 c 0,7,8
 361 -20 361 -20 227 236 c 0,9,10
 170 345 170 345 170 475 c 0,11,12
 170 672 170 672 278 848 c 0,13,14
 354 970 354 970 458 1050 c 0,15,16
 677 1219 677 1219 927 1219 c 0,17,18
 987 1219 987 1219 1070.5 1188 c 128,-1,19
 1154 1157 1154 1157 1165 1157 c 0,20,21
 1189 1157 1189 1157 1195 1198 c 1,22,-1
 1242 1198 l 1,23,-1
 1220 938 l 1,24,-1
 1175 938 l 1,25,26
 1175 943 l 2,27,28
 1175 1029 1175 1029 1109 1089 c 128,-1,29
 1043 1149 1043 1149 922.5 1149 c 128,-1,30
 802 1149 802 1149 690.5 1074 c 128,-1,31
 579 999 579 999 498.5 868.5 c 128,-1,32
 418 738 418 738 399.5 624.5 c 128,-1,33
 381 511 381 511 381 458.5 c 128,-1,34
 381 406 381 406 387 345.5 c 128,-1,35
 393 285 393 285 423.5 225 c 128,-1,36
 454 165 454 165 500 124 c 0,37,38
 584 49 584 49 702.5 49 c 128,-1,39
 821 49 821 49 928 88 c 1,40,-1
 998 508 l 1,41,42
 988 549 988 549 876 549 c 1,43,-1
 883 592 l 1,44,-1
 1330 592 l 1,45,-1
 1323 549 l 1,0,1
EndSplineSet
Validated: 1
EndChar

StartChar: H
Encoding: 72 72 41
Width: 1331
Flags: W
HStem: 0 43<93 208.539 430.693 532 806 921.539 1143.69 1245> 588 69<513 1026> 1155 43<286 387.307 609.461 725 999 1100.31 1322.46 1438>
AnchorPoint: "top" 881 1270 basechar 0
AnchorPoint: "mid" 808 860 basechar 0
AnchorPoint: "below" 666 0 basechar 0
AnchorPoint: "cedilla" 666 0 basechar 0
LayerCount: 2
Fore
SplineSet
417 84 m 1,0,1
 427 43 427 43 539 43 c 1,2,-1
 532 0 l 1,3,-1
 86 0 l 1,4,-1
 93 43 l 1,5,6
 205 43 205 43 229 84 c 1,7,-1
 401 1114 l 1,8,9
 391 1155 391 1155 279 1155 c 1,10,-1
 286 1198 l 1,11,-1
 732 1198 l 1,12,-1
 725 1155 l 1,13,14
 613 1155 613 1155 589 1114 c 1,15,-1
 513 657 l 1,16,-1
 1038 657 l 1,17,-1
 1114 1114 l 1,18,19
 1104 1155 1104 1155 992 1155 c 1,20,-1
 999 1198 l 1,21,-1
 1445 1198 l 1,22,-1
 1438 1155 l 1,23,24
 1326 1155 1326 1155 1302 1114 c 1,25,-1
 1130 84 l 1,26,27
 1140 43 1140 43 1252 43 c 1,28,-1
 1245 0 l 1,29,-1
 799 0 l 1,30,-1
 806 43 l 1,31,32
 918 43 918 43 942 84 c 1,33,-1
 1026 588 l 1,34,-1
 501 588 l 1,35,-1
 417 84 l 1,0,1
EndSplineSet
Validated: 1
EndChar

StartChar: I
Encoding: 73 73 42
Width: 618
Flags: W
HStem: 0 43<93 208.539 430.693 532> 1155 43<286 387.307 609.461 725>
VStem: 86 646
AnchorPoint: "top" 518 1270 basechar 0
AnchorPoint: "below" 305 0 basechar 0
AnchorPoint: "cedilla" 307 0 basechar 0
AnchorPoint: "ogonek" 412 0 basechar 0
AnchorPoint: "mid" 414 602 basechar 0
LayerCount: 2
Fore
SplineSet
417 84 m 1,0,1
 427 43 427 43 539 43 c 1,2,-1
 532 0 l 1,3,-1
 86 0 l 1,4,-1
 93 43 l 1,5,6
 205 43 205 43 229 84 c 1,7,-1
 401 1114 l 1,8,9
 391 1155 391 1155 279 1155 c 1,10,-1
 286 1198 l 1,11,-1
 732 1198 l 1,12,-1
 725 1155 l 1,13,14
 613 1155 613 1155 589 1114 c 1,15,-1
 417 84 l 1,0,1
EndSplineSet
Validated: 1
EndChar

StartChar: J
Encoding: 74 74 43
Width: 843
Flags: W
HStem: -20 73<179.343 421.212> 1155 43<544 645.307 868.461 984>
VStem: 40 188<119.901 232.479>
AnchorPoint: "top" 782 1270 basechar 0
LayerCount: 2
Fore
SplineSet
984 1155 m 1,0,1
 872 1155 872 1155 848 1114 c 1,2,-1
 721 352 l 2,3,4
 675 76 675 76 460 2 c 0,5,6
 396 -20 396 -20 319 -20 c 0,7,8
 174 -20 174 -20 107 34 c 128,-1,9
 40 88 40 88 40 144.5 c 128,-1,10
 40 201 40 201 73.5 233.5 c 128,-1,11
 107 266 107 266 145.5 266 c 128,-1,12
 184 266 184 266 208.5 248 c 128,-1,13
 233 230 233 230 228 195 c 1,14,15
 216 126 216 126 161 109 c 1,16,17
 173 94 173 94 181 86.5 c 128,-1,18
 189 79 189 79 225 66 c 128,-1,19
 261 53 261 53 302.5 53 c 128,-1,20
 344 53 344 53 372 62 c 0,21,22
 468 93 468 93 508 247 c 0,23,24
 526 315 526 315 544 426 c 2,25,-1
 659 1114 l 1,26,27
 649 1155 649 1155 537 1155 c 1,28,-1
 544 1198 l 1,29,-1
 991 1198 l 1,30,-1
 984 1155 l 1,0,1
EndSplineSet
Validated: 1
EndChar

StartChar: K
Encoding: 75 75 44
Width: 1185
Flags: W
HStem: 0 43<93 208.539 426.693 528 808 884.12 1097.82 1200> 1155 43<286 387.307 605.461 721 1007 1101.18 1217.74 1321>
AnchorPoint: "top" 870 1270 basechar 0
AnchorPoint: "cedilla" 639 0 basechar 0
AnchorPoint: "below" 639 0 basechar 0
AnchorPoint: "mid" 467 946 basechar 0
LayerCount: 2
Fore
SplineSet
413 84 m 1,0,1
 423 43 423 43 535 43 c 1,2,-1
 528 0 l 1,3,-1
 86 0 l 1,4,-1
 93 43 l 1,5,6
 205 43 205 43 229 84 c 1,7,-1
 401 1114 l 1,8,9
 391 1155 391 1155 279 1155 c 1,10,-1
 286 1198 l 1,11,-1
 728 1198 l 1,12,-1
 721 1155 l 1,13,14
 609 1155 609 1155 585 1114 c 1,15,-1
 413 84 l 1,0,1
801 0 m 1,16,-1
 808 43 l 1,17,18
 857 43 857 43 885 49 c 1,19,-1
 518 643 l 1,20,-1
 1102 1141 l 1,21,22
 1076 1155 1076 1155 1000 1155 c 1,23,-1
 1007 1198 l 1,24,-1
 1328 1198 l 1,25,-1
 1321 1155 l 1,26,27
 1245 1155 1245 1155 1211 1129 c 0,28,29
 1200 1121 1200 1121 1186 1108 c 1,30,-1
 707 700 l 1,31,-1
 1084 76 l 1,32,33
 1111 43 1111 43 1207 43 c 1,34,-1
 1200 0 l 1,35,-1
 801 0 l 1,16,-1
EndSplineSet
Validated: 1
EndChar

StartChar: L
Encoding: 76 76 45
Width: 1013
Flags: W
HStem: 0 70<415 929.118> 0 43<93 208.539> 1155 43<286 387.307 609.461 725>
AnchorPoint: "top" 522 1270 basechar 0
AnchorPoint: "below" 545 0 basechar 0
AnchorPoint: "cedilla" 545 0 basechar 0
AnchorPoint: "mid" 430 698 basechar 0
LayerCount: 2
Fore
SplineSet
725 1155 m 1,0,1
 613 1155 613 1155 589 1114 c 1,2,-1
 415 70 l 1,3,-1
 882 70 l 1,4,5
 937 91 937 91 996 199 c 1,6,-1
 1037 199 l 1,7,-1
 954 0 l 1,8,-1
 86 0 l 1,9,-1
 93 43 l 1,10,11
 205 43 205 43 229 84 c 1,12,-1
 401 1114 l 1,13,14
 391 1155 391 1155 279 1155 c 1,15,-1
 286 1198 l 1,16,-1
 732 1198 l 1,17,-1
 725 1155 l 1,0,1
EndSplineSet
Validated: 1
EndChar

StartChar: M
Encoding: 77 77 46
Width: 1646
Flags: W
HStem: 0 43<93 208.539 312.693 414 1121 1236.54 1459.69 1561> 1155 43<286 387.307 1638.46 1754>
AnchorPoint: "top" 989 1270 basechar 0
AnchorPoint: "cedilla" 768 0 basechar 0
AnchorPoint: "below" 768 0 basechar 0
LayerCount: 2
Fore
SplineSet
299 84 m 1,0,1
 309 43 309 43 421 43 c 1,2,-1
 414 0 l 1,3,-1
 86 0 l 1,4,-1
 93 43 l 1,5,6
 205 43 205 43 229 84 c 1,7,-1
 401 1114 l 1,8,9
 391 1155 391 1155 279 1155 c 1,10,-1
 286 1198 l 1,11,-1
 585 1198 l 1,12,-1
 862 246 l 1,13,-1
 1457 1198 l 1,14,-1
 1761 1198 l 1,15,-1
 1754 1155 l 1,16,17
 1642 1155 1642 1155 1618 1114 c 1,18,-1
 1446 84 l 1,19,20
 1456 43 1456 43 1568 43 c 1,21,-1
 1561 0 l 1,22,-1
 1114 0 l 1,23,-1
 1121 43 l 1,24,25
 1233 43 1233 43 1257 84 c 1,26,-1
 1411 1004 l 1,27,-1
 784 0 l 1,28,-1
 754 0 l 1,29,-1
 455 1016 l 1,30,-1
 299 84 l 1,0,1
EndSplineSet
Validated: 1
EndChar

StartChar: N
Encoding: 78 78 47
Width: 1304
Flags: W
HStem: 0 43<93 208.539 312.693 414> 1155 43<286 387.307 1109 1210.31 1314.46 1430>
AnchorPoint: "top" 864 1270 basechar 0
AnchorPoint: "below" 651 0 basechar 0
AnchorPoint: "cedilla" 651 0 basechar 0
AnchorPoint: "mid" 787 676 basechar 0
LayerCount: 2
Fore
SplineSet
299 84 m 1,0,1
 309 43 309 43 421 43 c 1,2,-1
 414 0 l 1,3,-1
 86 0 l 1,4,-1
 93 43 l 1,5,6
 205 43 205 43 229 84 c 1,7,-1
 401 1114 l 1,8,9
 391 1155 391 1155 279 1155 c 1,10,-1
 286 1198 l 1,11,-1
 560 1198 l 1,12,-1
 1098 360 l 1,13,-1
 1224 1114 l 1,14,15
 1214 1155 1214 1155 1102 1155 c 1,16,-1
 1109 1198 l 1,17,-1
 1437 1198 l 1,18,-1
 1430 1155 l 1,19,20
 1318 1155 1318 1155 1294 1114 c 1,21,-1
 1108 0 l 1,22,-1
 1090 0 l 1,23,-1
 455 1018 l 1,24,-1
 299 84 l 1,0,1
EndSplineSet
Validated: 1
EndChar

StartChar: O
Encoding: 79 79 48
Width: 1312
Flags: W
HStem: -20 69<539.747 815.914> 1149 71<700.277 970.418>
VStem: 178 207<244.877 726.506> 1131 204<467.697 945.586>
AnchorPoint: "top" 870 1270 basechar 0
AnchorPoint: "mid" 771 602 basechar 0
AnchorPoint: "below" 659 0 basechar 0
AnchorPoint: "cedilla" 659 0 basechar 0
AnchorPoint: "ogonek" 719 0 basechar 0
LayerCount: 2
Back
SplineSet
385 500 m 128
 385 274.975 447.006 49 674 49 c 0
 979.684 49 1131 456.05 1131 733 c 1
 1131 938.601 1042.17 1149 841 1149 c 0
 584.312 1149 385 812.404 385 500 c 128
652 -20 m 128
 374.611 -20 178 180.063 178 454 c 0
 178 849.05 464.44 1220 881 1220 c 128
 1161.8 1220 1334.53 987.968 1336 719 c 1
 1336 335.293 1027 -20 652 -20 c 128
EndSplineSet
Fore
SplineSet
444.5 805.5 m 128,-1,1
 385 656 385 656 385 532 c 0,2,3
 385 317 385 317 444 192 c 0,4,5
 510 50 510 50 674 49 c 1,6,7
 762 50 762 50 838 94 c 0,8,9
 973 173 973 173 1052 359.5 c 128,-1,10
 1131 546 1131 546 1131 721 c 128,-1,11
 1131 896 1131 896 1062 1018 c 0,12,13
 1028 1078 1028 1078 971 1113.5 c 128,-1,14
 914 1149 914 1149 841 1149 c 0,15,16
 717 1149 717 1149 610.5 1052 c 128,-1,0
 504 955 504 955 444.5 805.5 c 128,-1,1
652 -20 m 0,17,18
 445 -20 445 -20 311.5 114 c 128,-1,19
 178 248 178 248 178 473 c 128,-1,20
 178 698 178 698 309 899 c 128,-1,21
 440 1100 440 1100 648 1178 c 0,22,23
 758 1220 758 1220 887.5 1220 c 128,-1,24
 1017 1220 1017 1220 1122 1150.5 c 128,-1,25
 1227 1081 1227 1081 1281 967.5 c 128,-1,26
 1335 854 1335 854 1335 714.5 c 128,-1,27
 1335 575 1335 575 1281 441 c 128,-1,28
 1227 307 1227 307 1135.5 205.5 c 128,-1,29
 1044 104 1044 104 916.5 42 c 128,-1,30
 789 -20 789 -20 652 -20 c 0,17,18
EndSplineSet
Validated: 1
EndChar

StartChar: P
Encoding: 80 80 49
Width: 1101
Flags: W
HStem: 0 43<93 208.539 430.693 532> 545 69<506 858.674> 1128 70<592 920.781> 1155 43<286 387.307>
VStem: 1013 203<770.43 1046.17>
AnchorPoint: "top" 705 1270 basechar 0
AnchorPoint: "below" 303 0 basechar 0
AnchorPoint: "mid" 364 328 basechar 0
AnchorPoint: "cedilla" 303 0 basechar 0
LayerCount: 2
Fore
SplineSet
417 84 m 1,0,1
 427 43 427 43 539 43 c 1,2,-1
 532 0 l 1,3,-1
 86 0 l 1,4,-1
 93 43 l 1,5,6
 205 43 205 43 229 84 c 1,7,-1
 401 1114 l 1,8,9
 391 1155 391 1155 279 1155 c 1,10,-1
 286 1198 l 1,11,-1
 749 1198 l 2,12,13
 880 1198 880 1198 979 1169 c 128,-1,14
 1078 1140 1078 1140 1129 1094 c 0,15,16
 1216 1015 1216 1015 1216 922 c 0,17,18
 1216 905 1216 905 1213 887 c 0,19,20
 1187 733 1187 733 1048.5 639 c 128,-1,21
 910 545 910 545 664 545 c 2,22,-1
 494 545 l 1,23,-1
 417 84 l 1,0,1
592 1128 m 1,24,-1
 506 614 l 1,25,-1
 676 614 l 2,26,27
 833 614 833 614 908.5 677 c 128,-1,28
 984 740 984 740 1008 885 c 0,29,30
 1013 913 1013 913 1013 938 c 0,31,32
 1013 1128 1013 1128 738 1128 c 2,33,-1
 592 1128 l 1,24,-1
EndSplineSet
Validated: 1
EndChar

StartChar: Q
Encoding: 81 81 50
Width: 1312
Flags: MW
LayerCount: 2
Fore
SplineSet
1153 -135 m 1,0,1
 1253 -135 1253 -135 1332 -41 c 1,2,-1
 1359 -63 l 1,3,4
 1350 -80 1350 -80 1325 -110 c 0,5,6
 1239 -209 1239 -209 1126 -209 c 0,7,8
 1083 -209 1083 -209 1035 -196 c 0,9,10
 919 -164 919 -164 863 -56 c 0,11,12
 849 -28 849 -28 835 8 c 1,13,14
 744 -20 744 -20 654 -20 c 0,15,16
 488 -20 488 -20 371 65 c 128,-1,17
 254 150 254 150 208 290 c 0,18,19
 178 382 178 382 178 454 c 0,20,21
 178 661 178 661 271 836 c 0,22,23
 397 1072 397 1072 622 1169 c 0,24,25
 737 1219 737 1219 881 1219 c 128,-1,26
 1025 1219 1025 1219 1142 1133.5 c 128,-1,27
 1259 1048 1259 1048 1306 906 c 0,28,29
 1336 816 1336 816 1336 740 c 0,30,31
 1336 498 1336 498 1211 304 c 0,32,33
 1124 168 1124 168 995 84 c 1,34,35
 1016 17 1016 17 1045 -47 c 1,36,37
 1101 -121 1101 -121 1153 -135 c 1,0,1
494 125 m 1,38,39
 563 49 563 49 674 49 c 0,40,41
 747 49 747 49 812 80 c 1,42,43
 791 145 791 145 768.5 177 c 128,-1,44
 746 209 746 209 703 209 c 0,45,46
 587 209 587 209 494 125 c 1,38,39
944 186 m 1,47,48
 1077 339 1077 339 1117 582 c 0,49,50
 1130 661 1130 661 1131 733 c 1,51,52
 1131 899 1131 899 1058 1024 c 128,-1,53
 985 1149 985 1149 841 1149 c 0,54,55
 632 1149 632 1149 497 905 c 1,56,57
 385 706 385 706 385 459 c 0,58,59
 385 278 385 278 465 160 c 1,60,61
 580 299 580 299 726 299 c 128,-1,62
 872 299 872 299 944 186 c 1,47,48
EndSplineSet
Validated: 1
EndChar

StartChar: R
Encoding: 82 82 51
Width: 1189
Flags: W
HStem: 0 43<93 208.539 430.693 532 1102.73 1204> 545 69<506 687> 1128 70<592 933.296> 1155 43<286 387.307>
VStem: 1012 207<777.973 1050.96>
AnchorPoint: "cedilla" 659 0 basechar 0
AnchorPoint: "mid" 364 328 basechar 0
AnchorPoint: "below" 659 0 basechar 0
AnchorPoint: "top" 795 1270 basechar 0
LayerCount: 2
Fore
SplineSet
417 84 m 1,0,1
 427 43 427 43 539 43 c 1,2,-1
 532 0 l 1,3,-1
 86 0 l 1,4,-1
 93 43 l 1,5,6
 205 43 205 43 229 84 c 1,7,-1
 401 1114 l 1,8,9
 391 1155 391 1155 279 1155 c 1,10,-1
 286 1198 l 1,11,-1
 749 1198 l 2,12,13
 1014 1198 1014 1198 1130 1098 c 0,14,15
 1219 1021 1219 1021 1219 929 c 0,16,17
 1219 912 1219 912 1216 895 c 0,18,19
 1197 782 1197 782 1115 696 c 128,-1,20
 1033 610 1033 610 893 573 c 1,21,-1
 1083 86 l 1,22,23
 1097 43 1097 43 1211 43 c 1,24,-1
 1204 0 l 1,25,-1
 1116 0 l 2,26,27
 972 0 972 0 931.5 16 c 128,-1,28
 891 32 891 32 862 106 c 2,29,-1
 687 545 l 1,30,-1
 494 545 l 1,31,-1
 417 84 l 1,0,1
592 1128 m 1,32,-1
 506 614 l 1,33,-1
 676 614 l 2,34,35
 840 614 840 614 912 678 c 128,-1,36
 984 742 984 742 1006 874 c 0,37,38
 1012 911 1012 911 1012 941 c 0,39,40
 1012 1022 1012 1022 971 1067 c 1,41,42
 913 1128 913 1128 738 1128 c 2,43,-1
 592 1128 l 1,32,-1
EndSplineSet
Validated: 1
EndChar

StartChar: S
Encoding: 83 83 52
Width: 978
Flags: W
HStem: -20 69<330.25 665.601> 0 21G<104 153.5> 1149 70<534.842 815.171> 1178 20G<934 984>
VStem: 104 48<0 30.8018> 152 46<199.88 285> 255 165<844.509 1008.14> 789 179<189.383 384.671> 917 45<938 1033.75> 937 47<1158 1198>
AnchorPoint: "top" 678 1270 basechar 0
AnchorPoint: "mid" 615 602 basechar 0
AnchorPoint: "below" 489 0 basechar 0
AnchorPoint: "cedilla" 489 0 basechar 0
LayerCount: 2
Fore
SplineSet
198 285 m 1,0,1
 204 49 204 49 532 49 c 0,2,3
 615 49 615 49 692.5 98 c 128,-1,4
 770 147 770 147 786 246 c 0,5,6
 789 262 789 262 789 276 c 0,7,8
 788 345 788 345 734 394 c 0,9,10
 680 442 680 442 603 488 c 0,11,12
 525 534 525 534 445 590 c 1,13,14
 255 717 255 717 255 853 c 0,15,16
 255 886 255 886 258 910 c 1,17,18
 270 980 270 980 333.5 1054 c 128,-1,19
 397 1128 397 1128 488 1173.5 c 128,-1,20
 579 1219 579 1219 654 1219 c 128,-1,21
 729 1219 729 1219 812.5 1188 c 128,-1,22
 896 1157 896 1157 907 1157 c 0,23,24
 931 1157 931 1157 937 1198 c 1,25,-1
 984 1198 l 1,26,-1
 962 938 l 1,27,-1
 917 938 l 1,28,-1
 917 943 l 2,29,30
 917 1029 917 1029 851 1089 c 128,-1,31
 785 1149 785 1149 675 1149 c 128,-1,32
 565 1149 565 1149 498.5 1088.5 c 128,-1,33
 432 1028 432 1028 424 978 c 0,34,35
 421 958 421 958 420 937 c 1,36,37
 420 880 420 880 475.5 832 c 128,-1,38
 531 784 531 784 665.5 706.5 c 128,-1,39
 800 629 800 629 884 543 c 128,-1,40
 968 457 968 457 968 352.5 c 128,-1,41
 968 248 968 248 912.5 173 c 128,-1,42
 857 98 857 98 792.5 59.5 c 128,-1,43
 728 21 728 21 654 0.5 c 128,-1,44
 580 -20 580 -20 506.5 -20 c 128,-1,45
 433 -20 433 -20 366.5 -5 c 128,-1,46
 300 10 300 10 258.5 25.5 c 128,-1,47
 217 41 217 41 204 41 c 128,-1,48
 191 41 191 41 173 29 c 128,-1,49
 155 17 155 17 152 0 c 1,50,-1
 104 0 l 1,51,-1
 152 285 l 1,52,-1
 198 285 l 1,0,1
EndSplineSet
Validated: 1
EndChar

StartChar: T
Encoding: 84 84 53
Width: 1101
Flags: W
HStem: 0 43<335 450.539 672.693 774> 1128 70<275.258 646 834 1193.63>
VStem: 204 43<999 1078.82> 1189 43<999 1075.24>
AnchorPoint: "top" 766 1270 basechar 0
AnchorPoint: "mid" 659 647 basechar 0
AnchorPoint: "cedilla" 553 0 basechar 0
AnchorPoint: "below" 553 0 basechar 0
LayerCount: 2
Fore
SplineSet
310 1128 m 1,0,1
 266 1111 266 1111 247 999 c 1,2,-1
 204 999 l 1,3,-1
 237 1198 l 1,4,-1
 1265 1198 l 1,5,-1
 1232 999 l 1,6,-1
 1189 999 l 1,7,8
 1195 1036 1195 1036 1195 1076.5 c 128,-1,9
 1195 1117 1195 1117 1170 1128 c 1,10,-1
 834 1128 l 1,11,-1
 659 84 l 1,12,13
 669 43 669 43 781 43 c 1,14,-1
 774 0 l 1,15,-1
 328 0 l 1,16,-1
 335 43 l 1,17,18
 447 43 447 43 471 84 c 1,19,-1
 646 1128 l 1,20,-1
 310 1128 l 1,0,1
EndSplineSet
Validated: 1
EndChar

StartChar: U
Encoding: 85 85 54
Width: 1265
Flags: W
HStem: -20 69<567.888 841.265> 1155 43<251 352.307 575.461 691 1087 1188.31 1291.46 1407>
VStem: 252 186<167.081 677.938>
AnchorPoint: "top" 901 1270 basechar 0
AnchorPoint: "cedilla" 676 0 basechar 0
AnchorPoint: "below" 676 0 basechar 0
AnchorPoint: "ogonek" 676 0 basechar 0
AnchorPoint: "mid" 792 694 basechar 0
LayerCount: 2
Fore
SplineSet
691 1155 m 1,0,1
 579 1155 579 1155 555 1114 c 1,2,-1
 449 479 l 2,3,4
 438 413 438 413 438 356 c 0,5,6
 438 238 438 238 486 162 c 0,7,8
 557 49 557 49 697 49 c 128,-1,9
 837 49 837 49 950 163.5 c 128,-1,10
 1063 278 1063 278 1094 467 c 2,11,-1
 1202 1114 l 1,12,13
 1192 1155 1192 1155 1080 1155 c 1,14,-1
 1087 1198 l 1,15,-1
 1414 1198 l 1,16,-1
 1407 1155 l 1,17,18
 1295 1155 1295 1155 1271 1114 c 1,19,-1
 1170 508 l 2,20,21
 1105 120 1105 120 832 10 c 0,22,23
 755 -20 755 -20 669 -20 c 0,24,25
 252 -20 252 -20 252 359 c 0,26,27
 252 427 252 427 265 508 c 2,28,-1
 366 1114 l 1,29,30
 356 1155 356 1155 244 1155 c 1,31,-1
 251 1198 l 1,32,-1
 698 1198 l 1,33,-1
 691 1155 l 1,0,1
EndSplineSet
Validated: 1
EndChar

StartChar: V
Encoding: 86 86 55
Width: 1114
Flags: W
HStem: 0 21G<504.205 616.517> 1155 43<180 282.731 502.928 621 997 1098.19 1206.54 1326>
AnchorPoint: "top" 823 1270 basechar 0
AnchorPoint: "below" 555 0 basechar 0
AnchorPoint: "cedilla" 555 0 basechar 0
AnchorPoint: "mid" 759 901 basechar 0
LayerCount: 2
Fore
SplineSet
1111 1118 m 1,0,1
 1097 1155 1097 1155 990 1155 c 1,2,-1
 997 1198 l 1,3,-1
 1333 1198 l 1,4,-1
 1326 1155 l 1,5,6
 1212 1155 1212 1155 1196 1122 c 2,7,-1
 606 0 l 1,8,-1
 508 0 l 1,9,-1
 297 1112 l 2,10,11
 289 1155 289 1155 173 1155 c 1,12,-1
 180 1198 l 1,13,-1
 628 1198 l 1,14,-1
 621 1155 l 1,15,16
 527 1155 527 1155 498 1130 c 1,17,-1
 669 272 l 1,18,-1
 1111 1118 l 1,0,1
EndSplineSet
Validated: 1
EndChar

StartChar: W
Encoding: 87 87 56
Width: 1722
Flags: W
HStem: 0 21G<504.205 616.462 1112.2 1224.5> 1155 43<180 282.731 502.928 621 788 890.731 1111.92 1229 1605 1706.19 1819.59 1934>
AnchorPoint: "top" 1032 1270 basechar 0
AnchorPoint: "below" 874 0 basechar 0
AnchorPoint: "cedilla" 874 0 basechar 0
AnchorPoint: "ogonek" 1176 0 basechar 0
AnchorPoint: "mid" 963 602 basechar 0
LayerCount: 2
Fore
SplineSet
1719 1118 m 1,0,1
 1705 1155 1705 1155 1598 1155 c 1,2,-1
 1605 1198 l 1,3,-1
 1941 1198 l 1,4,-1
 1934 1155 l 1,5,6
 1821 1155 1821 1155 1798 1112 c 2,7,-1
 1214 0 l 1,8,-1
 1116 0 l 1,9,-1
 980 715 l 1,10,-1
 606 0 l 1,11,-1
 508 0 l 1,12,-1
 297 1112 l 2,13,14
 289 1155 289 1155 173 1155 c 1,15,-1
 180 1198 l 1,16,-1
 628 1198 l 1,17,-1
 621 1155 l 1,18,19
 527 1155 527 1155 498 1130 c 1,20,-1
 669 274 l 1,21,-1
 958 829 l 1,22,-1
 905 1112 l 2,23,24
 897 1155 897 1155 781 1155 c 1,25,-1
 788 1198 l 1,26,-1
 1236 1198 l 1,27,-1
 1229 1155 l 1,28,29
 1136 1155 1136 1155 1107 1130 c 1,30,-1
 1277 272 l 1,31,-1
 1719 1118 l 1,0,1
EndSplineSet
Validated: 1
EndChar

StartChar: X
Encoding: 88 88 57
Width: 1062
Flags: W
HStem: 0 43<23 133.387 249.442 352 630 747.51 971.191 1071> 1155 43<212 313.127 535.496 654 884 987.517 1099.74 1213>
LayerCount: 2
Fore
SplineSet
661 1198 m 1,0,-1
 654 1155 l 1,1,2
 557 1155 557 1155 531 1130 c 1,3,-1
 689 739 l 1,4,-1
 997 1122 l 1,5,6
 983 1155 983 1155 877 1155 c 1,7,-1
 884 1198 l 1,8,-1
 1220 1198 l 1,9,-1
 1213 1155 l 1,10,11
 1112 1155 1112 1155 1084 1120 c 2,12,-1
 718 668 l 1,13,-1
 954 86 l 1,14,15
 969 43 969 43 1078 43 c 1,16,-1
 1071 0 l 1,17,-1
 623 0 l 1,18,-1
 630 43 l 1,19,20
 726 43 726 43 752 68 c 1,21,-1
 581 496 l 1,22,-1
 240 76 l 1,23,24
 254 43 254 43 359 43 c 1,25,-1
 352 0 l 1,26,-1
 16 0 l 1,27,-1
 23 43 l 1,28,29
 127 43 127 43 162 88 c 1,30,-1
 550 567 l 1,31,-1
 329 1114 l 1,32,33
 314 1155 314 1155 205 1155 c 1,34,-1
 212 1198 l 1,35,-1
 661 1198 l 1,0,-1
EndSplineSet
Validated: 1
EndChar

StartChar: Y
Encoding: 89 89 58
Width: 1153
Flags: W
HStem: 0 43<369 485.46 707.693 809> 1155 43<182 281.105 504.496 623 1029 1129.81 1246.06 1358>
AnchorPoint: "top" 844 1270 basechar 0
AnchorPoint: "below" 594 0 basechar 0
AnchorPoint: "mid" 659 410 basechar 0
AnchorPoint: "cedilla" 598 0 basechar 0
AnchorPoint: "ogonek" 659 0 basechar 0
LayerCount: 2
Fore
SplineSet
369 43 m 1,0,1
 482 43 482 43 506 84 c 1,2,-1
 567 451 l 1,3,-1
 299 1114 l 1,4,5
 279 1155 279 1155 175 1155 c 1,6,-1
 182 1198 l 1,7,-1
 630 1198 l 1,8,-1
 623 1155 l 1,9,10
 526 1155 526 1155 500 1130 c 1,11,-1
 725 575 l 1,12,-1
 1143 1118 l 1,13,14
 1128 1155 1128 1155 1022 1155 c 1,15,-1
 1029 1198 l 1,16,-1
 1365 1198 l 1,17,-1
 1358 1155 l 1,18,19
 1272 1155 1272 1155 1238 1128 c 1,20,-1
 766 516 l 1,21,-1
 694 84 l 1,22,23
 704 43 704 43 816 43 c 1,24,-1
 809 0 l 1,25,-1
 362 0 l 1,26,-1
 369 43 l 1,0,1
EndSplineSet
Validated: 1
EndChar

StartChar: Z
Encoding: 90 90 59
Width: 1024
Flags: W
HStem: 0 61<289 891.5> 1137 61<346.541 876>
VStem: 273 43<1008 1087.82>
AnchorPoint: "top" 719 1270 basechar 0
AnchorPoint: "below" 526 0 basechar 0
AnchorPoint: "cedilla" 526 0 basechar 0
AnchorPoint: "mid" 582 602 basechar 0
LayerCount: 2
Fore
SplineSet
378 1137 m 1,0,1
 334 1120 334 1120 316 1008 c 1,2,-1
 273 1008 l 1,3,-1
 304 1198 l 1,4,-1
 1130 1198 l 1,5,-1
 289 61 l 1,6,-1
 846 61 l 1,7,8
 912 87 912 87 963 197 c 1,9,-1
 1006 197 l 1,10,-1
 920 0 l 1,11,-1
 35 0 l 1,12,-1
 876 1137 l 1,13,-1
 378 1137 l 1,0,1
EndSplineSet
Validated: 1
EndChar

StartChar: bracketleft
Encoding: 91 91 60
Width: 589
Flags: W
HStem: -319 73<274 500> 1186 74<513 751>
VStem: 99 665
LayerCount: 2
Fore
SplineSet
513 1186 m 1,0,-1
 274 -246 l 1,1,-1
 512 -246 l 1,2,-1
 500 -319 l 1,3,-1
 99 -319 l 1,4,-1
 363 1260 l 1,5,-1
 764 1260 l 1,6,-1
 751 1186 l 1,7,-1
 513 1186 l 1,0,-1
EndSplineSet
Validated: 1
EndChar

StartChar: backslash
Encoding: 92 92 61
Width: 937
Flags: W
VStem: 245 649
LayerCount: 2
Fore
SplineSet
894 -20 m 1,0,-1
 828 -57 l 1,1,-1
 245 1217 l 1,2,-1
 310 1253 l 1,3,-1
 894 -20 l 1,0,-1
EndSplineSet
Validated: 1
EndChar

StartChar: bracketright
Encoding: 93 93 62
Width: 589
Flags: W
HStem: -319 73<-4 233> 1186 74<248 472>
VStem: -16 665
LayerCount: 2
Fore
SplineSet
233 -246 m 1,0,-1
 472 1186 l 1,1,-1
 235 1186 l 1,2,-1
 248 1260 l 1,3,-1
 649 1260 l 1,4,-1
 385 -319 l 1,5,-1
 -16 -319 l 1,6,-1
 -4 -246 l 1,7,-1
 233 -246 l 1,0,-1
EndSplineSet
Validated: 1
EndChar

StartChar: asciicircum
Encoding: 94 94 63
Width: 933
Flags: W
HStem: 647 459
LayerCount: 2
Fore
SplineSet
679 1106 m 1,0,-1
 949 705 l 1,1,-1
 870 647 l 1,2,-1
 634 999 l 1,3,-1
 280 647 l 1,4,-1
 220 705 l 1,5,-1
 623 1106 l 1,6,-1
 679 1106 l 1,0,-1
EndSplineSet
Validated: 1
EndChar

StartChar: underscore
Encoding: 95 95 64
Width: 917
Flags: W
HStem: -193 91<69 799>
LayerCount: 2
Fore
SplineSet
69 -102 m 1,0,-1
 814 -102 l 1,1,-1
 799 -193 l 1,2,-1
 54 -193 l 1,3,-1
 69 -102 l 1,0,-1
EndSplineSet
Validated: 1
EndChar

StartChar: grave
Encoding: 96 96 65
Width: 614
Flags: W
HStem: 1024 332
VStem: 350 313
LayerCount: 2
Fore
SplineSet
567 1356 m 1,0,-1
 663 1024 l 1,1,-1
 609 1024 l 1,2,-1
 350 1356 l 1,3,-1
 567 1356 l 1,0,-1
EndSplineSet
Validated: 1
EndChar

StartChar: a
Encoding: 97 97 66
Width: 989
Flags: W
HStem: -16 61<326.209 568.45 768 969.64> 848 74<403.66 696.557>
VStem: 97 190<70.2369 298.642> 236 177<609.039 727.309> 674 178<97.002 413.062> 745 185<433.293 808.487>
AnchorPoint: "top" 632 1055 basechar 0
AnchorPoint: "below" 485 0 basechar 0
AnchorPoint: "cedilla" 406 0 basechar 0
AnchorPoint: "ogonek" 844 0 basechar 0
AnchorPoint: "mid" 486 242 basechar 0
LayerCount: 2
Back
SplineSet
976 16 m 5
 943 -10 888 -16 820 -16 c 132
 698 -16 643 74 643 229 c 6
 643 524 l 5
 642 706 612 848 451 848 c 132
 334 848 250 835 229 750 c 5
 273 750 301 717 301 670 c 132
 301 618 259 594 208 594 c 132
 153 594 121 639 121 696 c 4
 121 861 278 922 459 922 c 4
 692 922 824 808 827 578 c 5
 827 172 l 6
 827 108 847 45 900 45 c 132
 919 45 940 51 954 62 c 5
 976 16 l 5
660 473 m 5
 510 432 256 400 256 213 c 4
 256 104 307 49 408 49 c 4
 495 49 623 88 671 133 c 5
 690 82 l 5
 608 12 493 -20 373 -20 c 4
 182 -20 66 45 66 212 c 132
 66 447 472 473 662 518 c 5
 660 473 l 5
EndSplineSet
Fore
SplineSet
745 669 m 0,0,1
 745 848 745 848 588 848 c 0,2,3
 492 848 492 848 435.5 828.5 c 128,-1,4
 379 809 379 809 355 750 c 1,5,6
 388 750 388 750 403.5 728 c 128,-1,7
 419 706 419 706 413 669.5 c 128,-1,8
 407 633 407 633 377 613.5 c 128,-1,9
 347 594 347 594 307 594 c 0,10,11
 236 594 236 594 236 678.5 c 128,-1,12
 236 763 236 763 308 828 c 0,13,14
 410 922 410 922 600 922 c 0,15,16
 930 922 930 922 930 658 c 0,17,18
 930 621 930 621 924 578 c 2,19,-1
 856 172 l 2,20,21
 852 149 852 149 852 129 c 0,22,23
 852 45 852 45 905 45 c 0,24,25
 939 45 939 45 964 62 c 1,26,-1
 979 16 l 1,27,28
 933 -16 933 -16 823 -16 c 128,-1,29
 713 -16 713 -16 684 68 c 1,30,31
 553 -20 553 -20 370 -20 c 0,32,33
 97 -20 97 -20 97 163 c 0,34,35
 97 298 97 298 214 368 c 0,36,37
 310 426 310 426 415 450.5 c 128,-1,38
 520 475 520 475 609.5 491.5 c 128,-1,39
 699 508 699 508 729 514 c 1,40,41
 745 609 745 609 745 669 c 0,0,1
721 468 m 1,42,43
 703 464 703 464 652 452.5 c 128,-1,44
 601 441 601 441 538 422 c 0,45,46
 288 349 288 349 287 167 c 0,47,48
 287 49 287 49 416 49 c 0,49,50
 482 49 482 49 558.5 72 c 128,-1,51
 635 95 635 95 675 120 c 1,52,53
 674 133 674 133 674 159 c 128,-1,54
 674 185 674 185 681 229 c 2,55,-1
 721 468 l 1,42,43
EndSplineSet
Validated: 1
EndChar

StartChar: b
Encoding: 98 98 67
Width: 1101
Flags: W
HStem: -20 69<386.201 678.15> 860 70<569.451 831.09> 1155 47<211 308.357> 1270 20G<516.5 536.667>
VStem: 913 195<326.533 761.877>
AnchorPoint: "top" 742 1055 basechar 0
AnchorPoint: "below" 508 0 basechar 0
AnchorPoint: "mid" 445 1044 basechar 0
LayerCount: 2
Back
SplineSet
139 44 m 5
 139 1145 l 5
 54 1152 11 1155 10 1155 c 5
 10 1202 l 5
 35 1202 86 1217 162 1246 c 132
 238 1275 292 1290 324 1290 c 5
 324 834 l 5
 391 898 484 930 604 930 c 4
 874.404 930 1022 720.823 1022 455 c 4
 1022 161.392 845.269 -20 559 -20 c 4
 345 -20 139 44 139 44 c 5
324 764 m 5
 324 98 l 5
 396 65 452 49 547 49 c 4
 730.057 49 827 246.037 827 450 c 132
 827 647.375 759.194 860 584 860 c 4
 469 860 382 828 324 764 c 5
EndSplineSet
Fore
SplineSet
146 44 m 1,0,-1
 331 1145 l 1,1,2
 212 1155 212 1155 203 1155 c 1,3,-1
 211 1202 l 1,4,5
 248 1202 248 1202 370.5 1246 c 128,-1,6
 493 1290 493 1290 540 1290 c 1,7,-1
 464 834 l 1,8,9
 581 930 581 930 768.5 930 c 128,-1,10
 956 930 956 930 1044 796 c 0,11,12
 1108 700 1108 700 1108 566 c 0,13,14
 1108 514 1108 514 1098 455 c 0,15,16
 1061 235 1061 235 916 107.5 c 128,-1,17
 771 -20 771 -20 556 -20 c 0,18,19
 461 -20 461 -20 358.5 -4 c 128,-1,20
 256 12 256 12 201 28 c 2,21,-1
 146 44 l 1,0,-1
340 98 m 1,22,23
 478 52 478 52 541 49 c 1,24,25
 643 50 643 50 718 108 c 0,26,27
 864 222 864 222 902 450 c 0,28,29
 913 516 913 516 913 551.5 c 128,-1,30
 913 587 913 587 912 627.5 c 128,-1,31
 911 668 911 668 893.5 728.5 c 128,-1,32
 876 789 876 789 833.5 824.5 c 128,-1,33
 791 860 791 860 728 860 c 0,34,35
 555 860 555 860 452 764 c 1,36,-1
 340 98 l 1,22,23
EndSplineSet
Validated: 1
EndChar

StartChar: c
Encoding: 99 99 68
Width: 980
Flags: W
HStem: -20 77<465.474 762.75> 602 156<819.698 892.042> 860 62<566.465 846.912>
VStem: 149 197<175.058 596.362> 806 189<643.771 745.941>
AnchorPoint: "top" 724 1055 basechar 0
AnchorPoint: "below" 539 0 basechar 0
AnchorPoint: "cedilla" 539 0 basechar 0
LayerCount: 2
Back
SplineSet
805.887 664.102 m 4
 805.887 714.623 844.122 758 893 758 c 5
 887 826 823 860 701 860 c 4
 460.793 860 346.993 614.202 346 372 c 4
 346 186.522 432.937 56.9924 605.699 56.9924 c 4
 753.972 56.9924 830.979 111.785 911 193 c 5
 956 168 l 5
 856.075 41.1723 738.498 -20 519 -20 c 4
 285.543 -20 149 121.518 149 357 c 4
 149 675.692 366.726 922 691 922 c 4
 893.667 922 995 862.667 995 744 c 4
 995 666.164 956.986 602 889 602 c 132
 844.093 602 805.887 622.036 805.887 664.102 c 4
EndSplineSet
Fore
SplineSet
346 395 m 0,0,1
 346 57 346 57 610 57 c 0,2,3
 740 57 740 57 828 121 c 0,4,5
 866 148 866 148 911 193 c 1,6,-1
 956 168 l 1,7,8
 879 70 879 70 779 25 c 128,-1,9
 679 -20 679 -20 511.5 -20 c 128,-1,10
 344 -20 344 -20 246.5 80 c 128,-1,11
 149 180 149 180 149 357 c 0,12,13
 149 600 149 600 298 760 c 0,14,15
 368 836 368 836 470 879 c 128,-1,16
 572 922 572 922 691 922 c 0,17,18
 995 922 995 922 995 744 c 0,19,20
 995 683 995 683 966.5 642.5 c 128,-1,21
 938 602 938 602 889 602 c 0,22,23
 806 602 806 602 806 668 c 0,24,25
 806 702 806 702 831.5 730 c 128,-1,26
 857 758 857 758 893 758 c 1,27,28
 884 860 884 860 701 860 c 0,29,30
 614 860 614 860 545 818 c 128,-1,31
 476 776 476 776 434 706 c 0,32,33
 346 562 346 562 346 395 c 0,0,1
EndSplineSet
Validated: 1
EndChar

StartChar: d
Encoding: 100 100 69
Width: 1099
Flags: W
HStem: -16 61<454.301 683.873 870.25 1069.66> 860 70<574.781 865.894> 1155 47<815 912.357> 1270 20G<1120.5 1140.62>
VStem: 146 198<166.683 584.583> 773 178<94.8254 399.094>
AnchorPoint: "top" 646 1055 basechar 0
AnchorPoint: "below" 518 0 basechar 0
AnchorPoint: "mid" 971 1040 basechar 0
LayerCount: 2
Back
SplineSet
926 172 m 6
 926 108 947 45 1000 45 c 132
 1019 45 1040 51 1054 62 c 5
 1076 16 l 5
 1043 -10 988 -16 920 -16 c 132
 798 -16 742 74 742 229 c 6
 743 1145 l 1
 658 1152 615 1155 614 1155 c 1
 614 1202 l 1
 639 1202 690 1217 766 1246 c 128
 842 1275 896 1290 928 1290 c 1
 926 172 l 6
810 87 m 5
 744 38 653 -20 498 -20 c 4
 421 -20 349 0 282 40 c 4
 147 121 80 260 80 455 c 4
 80 608 123 725 208 807 c 132
 293 889 405 930 543 930 c 4
 639 930 717 900 772 867 c 5
 772 803 l 5
 723 832 658 860 555 860 c 4
 482 860 418 826 362 758 c 4
 303 687 274 586 274 455 c 4
 274 405 284 349 304 287 c 132
 324 225 353 170 392 122 c 132
 431 74 473 49 518 49 c 4
 634 49 719 88 778 139 c 5
 810 87 l 5
EndSplineSet
Fore
SplineSet
951 130 m 0,0,1
 951 45 951 45 1008 45 c 0,2,3
 1040 45 1040 45 1064 62 c 1,4,-1
 1079 16 l 1,5,6
 1033 -16 1033 -16 924.5 -16 c 128,-1,7
 816 -16 816 -16 786 63 c 1,8,9
 732 31 732 31 665.5 5.5 c 128,-1,10
 599 -20 599 -20 489 -20 c 128,-1,11
 379 -20 379 -20 289 40 c 0,12,13
 146 135 146 135 146 338 c 0,14,15
 146 393 146 393 156 455 c 0,16,17
 194 684 194 684 343 807 c 128,-1,18
 492 930 492 930 699 930 c 0,19,20
 806 930 806 930 891 883 c 1,21,22
 913 1014 913 1014 935 1145 c 1,23,24
 816 1155 816 1155 807 1155 c 1,25,-1
 815 1202 l 1,26,27
 852 1202 852 1202 974.5 1246 c 128,-1,28
 1097 1290 1097 1290 1144 1290 c 1,29,-1
 955 172 l 2,30,31
 951 149 951 149 951 130 c 0,0,1
880 819 m 1,32,33
 802 860 802 860 696 860 c 128,-1,34
 590 860 590 860 486.5 756 c 128,-1,35
 383 652 383 652 350 455 c 0,36,37
 344 420 344 420 344 378 c 0,38,39
 344 226 344 226 412 122 c 0,40,41
 459 49 459 49 526 49 c 0,42,43
 664 49 664 49 774 120 c 1,44,45
 773 133 773 133 773 158 c 128,-1,46
 773 183 773 183 780 229 c 2,47,-1
 880 819 l 1,32,33
EndSplineSet
Validated: 1
EndChar

StartChar: e
Encoding: 101 101 70
Width: 1009
Flags: W
HStem: -20 77<486.065 759.134> 860 62<556.391 762.418>
VStem: 149 203<203.484 432> 832 202<568.622 778.142>
AnchorPoint: "top" 677 1055 basechar 0
AnchorPoint: "below" 535 0 basechar 0
AnchorPoint: "cedilla" 535 0 basechar 0
AnchorPoint: "ogonek" 610 0 basechar 0
AnchorPoint: "mid" 626 692 basechar 0
LayerCount: 2
Back
SplineSet
879 193 m 5
 810 109 735 57 598 57 c 132
 408 57 306 259 280 432 c 5
 771 501 l 6
 915 521 928 566 928 612 c 4
 928 772 744 922 519 922 c 4
 244 922 80 752 80 480 c 132
 80 185 238 -20 522 -20 c 4
 732 -20 848 38 928 168 c 5
 879 193 l 5
508 860 m 132
 372 860 273 674 273 494 c 5
 632 545 l 6
 703 555 724 577 724 618 c 4
 724 743 658 860 508 860 c 132
EndSplineSet
Fore
SplineSet
911 193 m 1,0,1
 956 168 l 1,2,3
 878 69 878 69 776.5 24.5 c 128,-1,4
 675 -20 675 -20 519 -20 c 0,5,6
 310 -20 310 -20 216 117 c 0,7,8
 149 215 149 215 149 357 c 0,9,10
 149 415 149 415 160 480 c 0,11,12
 194 685 194 685 331 803.5 c 128,-1,13
 468 922 468 922 653.5 922 c 128,-1,14
 839 922 839 922 936.5 835.5 c 128,-1,15
 1034 749 1034 749 1034 651 c 0,16,17
 1034 582 1034 582 997 548.5 c 128,-1,18
 960 515 960 515 855 501 c 2,19,-1
 352 432 l 1,20,21
 352 392 l 2,22,23
 352 358 352 358 365 297 c 0,24,25
 416 57 416 57 623 57 c 0,26,27
 776 57 776 57 911 193 c 1,0,1
652 860 m 0,28,29
 586 860 586 860 522.5 806 c 128,-1,30
 459 752 459 752 415 668 c 128,-1,31
 371 584 371 584 356 494 c 1,32,-1
 723 545 l 2,33,34
 776 552 776 552 804 573 c 128,-1,35
 832 594 832 594 832 667 c 128,-1,36
 832 740 832 740 801 790 c 0,37,38
 758 860 758 860 652 860 c 0,28,29
EndSplineSet
Validated: 1
EndChar

StartChar: f
Encoding: 102 102 71
Width: 555
Flags: W
HStem: 840 61<231 323 518 635> 1230 60<611.668 712.336>
VStem: 720 157<1108.36 1228.95>
AnchorPoint: "top" 660 1341 basechar 0
LayerCount: 2
Back
SplineSet
282 -243 m 5
 182 -243 l 5
 182 840 l 5
 80 840 l 5
 80 901 l 5
 182 901 l 5
 182 971 l 6
 182 1084 206 1165 252 1215 c 132
 298 1265 360 1290 439 1290 c 132
 518 1290 577 1277 618 1252 c 132
 659 1227 680 1202 680 1175 c 132
 680 1148 672 1128 656 1114 c 132
 640 1100 622 1094 600 1094 c 132
 578 1094 562 1099 551 1108 c 132
 540 1117 533 1129 529 1142 c 132
 525 1155 521 1169 518 1182 c 4
 510 1214 492 1230 463 1230 c 4
 462 1230 l 4
 433 1230 409 1210 392 1170 c 132
 375 1130 367 1074 367 999 c 6
 367 901 l 5
 494 901 l 5
 494 840 l 5
 367 840 l 5
 367 -156 l 5
 282 -243 l 5
EndSplineSet
Fore
SplineSet
241 -243 m 1,0,-1
 141 -243 l 1,1,-1
 323 840 l 1,2,-1
 221 840 l 1,3,-1
 231 901 l 1,4,-1
 333 901 l 1,5,-1
 344 971 l 2,6,7
 372 1139 372 1139 454.5 1214.5 c 128,-1,8
 537 1290 537 1290 654.5 1290 c 128,-1,9
 772 1290 772 1290 824.5 1254 c 128,-1,10
 877 1218 877 1218 877 1179.5 c 128,-1,11
 877 1141 877 1141 846.5 1117.5 c 128,-1,12
 816 1094 816 1094 784 1094 c 0,13,14
 728 1094 728 1094 720 1142 c 0,15,16
 717 1165 717 1165 716 1182 c 0,17,18
 712 1230 712 1230 669 1230 c 2,19,-1
 668 1230 l 2,20,21
 624 1230 624 1230 588.5 1170.5 c 128,-1,22
 553 1111 553 1111 534 999 c 2,23,-1
 518 901 l 1,24,-1
 645 901 l 1,25,-1
 635 840 l 1,26,-1
 508 840 l 1,27,-1
 341 -156 l 1,28,-1
 241 -243 l 1,0,-1
EndSplineSet
Validated: 1
EndChar

StartChar: g
Encoding: 103 103 72
Width: 1064
Flags: W
HStem: -410 74<249.452 568.307> -20 69<425.227 660> 852 70<570.667 878.274>
VStem: 104 187<-271.262 -145.203> 145 194<140.866 574.516>
AnchorPoint: "top" 730 1055 basechar 0
AnchorPoint: "below" 492 0 basechar 0
AnchorPoint: "mid" 918 467 basechar 0
LayerCount: 2
Back
SplineSet
747.476 41.0254 m 1
 620.393 0.210741 538.1 -20.1966 500.597 -20.1966 c 0
 498.472 -20.1966 496.491 -20.1311 494.653 -20 c 1
 363.987 -20 268.793 22.6667 209.073 108 c 0
 166.18 169.29 144.733 244.68 144.733 334.171 c 0
 144.733 369.277 148.034 406.554 154.635 446 c 0
 179.178 592.667 240.09 708.667 337.37 794 c 128
 434.65 879.333 554.623 922 697.29 922 c 0
 780.623 922 853.421 910.833 915.684 888.5 c 128
 977.947 866.167 1026.9 842 1062.55 816 c 1
 935.873 59 l 2
 904.32 -129.554 823.673 -264.888 693.932 -347 c 0
 627.57 -389 552.723 -410 469.39 -410 c 0
 378.661 -410 304.625 -399.167 247.282 -377.5 c 128
 189.938 -355.833 151.697 -333.868 132.557 -311.605 c 128
 113.418 -289.341 103.848 -270.835 103.848 -256.086 c 128
 103.848 -241.337 105.325 -225.136 108.279 -207.481 c 128
 111.234 -189.827 122.162 -171.333 141.063 -152 c 128
 159.966 -132.667 182.75 -123 209.417 -123 c 128
 236.084 -123 257.385 -129.166 273.321 -141.5 c 128
 289.257 -153.833 295.189 -172.167 291.117 -196.5 c 128
 287.045 -220.833 279.977 -239.166 269.913 -251.5 c 128
 259.849 -263.833 244.87 -273.667 224.977 -281 c 1
 239.41 -298.333 269.317 -311.833 314.699 -321.5 c 128
 360.081 -331.167 405.772 -336 451.772 -336 c 0
 520.439 -336 581.07 -303.316 633.665 -237.949 c 128
 686.26 -172.581 724.197 -79.5898 747.476 41.0254 c 1
879.999 830.624 m 1
 820.669 844.875 760.933 852 700.79 852 c 128
 640.647 852 585.479 832.5 535.286 793.5 c 0
 436.817 716.989 374.934 603.156 349.639 452 c 0
 342.383 408.639 338.755 375.182 338.755 351.627 c 128
 338.755 328.072 339.211 302.912 340.124 276.147 c 128
 341.037 249.382 347.535 216.333 359.619 177 c 128
 371.704 137.667 391.988 106.5 420.473 83.5 c 128
 448.958 60.5 484.2 49 526.2 49 c 0
 613.477 49 691.096 68.638 759.059 107.914 c 1
 879.999 830.624 l 1
508 -336 m 4
 637 -336 741 -213 741 72 c 6
 741 861 l 5
 926 816 l 5
 926 59 l 6
 926 -205 795 -410 538 -410 c 132
 374 -410 143 -355 143 -225 c 4
 143 -168 175 -123 230 -123 c 132
 280 -123 324 -146 324 -196 c 132
 324 -246 309 -267 272 -281 c 5
 310 -319 428 -336 508 -336 c 4
902 777 m 5
 847 801 710 852 555 852 c 132
 374 852 274 654 274 452 c 132
 274 255 343 49 518 49 c 4
 632 49 714 80 780 137 c 5
 780 65 l 5
 719 24 641 -20 498 -20 c 4
 231 -20 80 172 80 446 c 4
 80 739 257 922 543 922 c 4
 733 922 871 852 926 816 c 5
 902 777 l 5
EndSplineSet
Fore
SplineSet
747 41 m 1,0,1
 556 -20 556 -20 501 -20 c 0,2,3
 498 -20 498 -20 495 -20 c 0,4,5
 299 -20 299 -20 209 108 c 0,6,7
 145 200 145 200 145 334 c 0,8,9
 145 387 145 387 155 446 c 0,10,11
 192 666 192 666 337.5 794 c 128,-1,12
 483 922 483 922 697 922 c 0,13,14
 822 922 822 922 915.5 888.5 c 128,-1,15
 1009 855 1009 855 1063 816 c 1,16,-1
 936 59 l 2,17,18
 889 -224 889 -224 694 -347 c 0,19,20
 594 -410 594 -410 463.5 -410 c 128,-1,21
 333 -410 333 -410 247 -377.5 c 128,-1,22
 161 -345 161 -345 132.5 -311.5 c 128,-1,23
 104 -278 104 -278 104 -256 c 128,-1,24
 104 -234 104 -234 108.5 -207.5 c 128,-1,25
 113 -181 113 -181 141 -152 c 128,-1,26
 169 -123 169 -123 209 -123 c 128,-1,27
 249 -123 249 -123 273 -141.5 c 128,-1,28
 297 -160 297 -160 291 -196.5 c 128,-1,29
 285 -233 285 -233 270 -251.5 c 128,-1,30
 255 -270 255 -270 225 -281 c 1,31,32
 247 -307 247 -307 315 -321.5 c 128,-1,33
 383 -336 383 -336 452 -336 c 0,34,35
 555 -336 555 -336 633.5 -238 c 128,-1,36
 712 -140 712 -140 747 41 c 1,0,1
880 831 m 1,37,38
 791 852 791 852 701 852 c 128,-1,39
 611 852 611 852 535 794 c 0,40,41
 387 679 387 679 350 452 c 0,42,43
 339 387 339 387 339 351.5 c 128,-1,44
 339 316 339 316 340 276 c 128,-1,45
 341 236 341 236 359.5 177 c 128,-1,46
 378 118 378 118 420.5 83.5 c 128,-1,47
 463 49 463 49 526 49 c 0,48,49
 657 49 657 49 759 108 c 1,50,-1
 880 831 l 1,37,38
EndSplineSet
Validated: 1
Substitution2: "'ss05' Binocular g subtable" g.ss05
EndChar

StartChar: h
Encoding: 104 104 73
Width: 989
Flags: W
HStem: -16 61<879.5 1104.64> 0 21G<172 359.36> 852 70<599.159 849.884> 1155 47<244 342.424> 1270 20G<548.5 568.631>
VStem: 807 179<46.5 253.645> 890 185<417.297 819.746>
AnchorPoint: "top" 484 1341 basechar 0
AnchorPoint: "mid" 503 1057 basechar 0
AnchorPoint: "below" 553 0 basechar 0
AnchorPoint: "cedilla" 942 0 basechar 0
LayerCount: 2
Back
SplineSet
986 129 m 4
 986 73 1004 45 1040 45 c 4
 1063 45 1083 51 1099 62 c 5
 1114 16 l 5
 1084 -5 1030 -16 952 -16 c 4
 855 -16 807 37 807 144 c 4
 807 170 809 197 814 229 c 6
 885 653 l 6
 888 672 890 695 890 722 c 132
 890 815 828 852 718 852 c 132
 641 852 563 822 484 762 c 5
 356 0 l 5
 172 0 l 5
 364 1145 l 5
 281 1152 238 1155 236 1155 c 5
 244 1202 l 5
 270 1202 324 1217 404 1246 c 132
 484 1275 540 1290 572 1290 c 5
 494 827 l 5
 579 890 665 922 754 922 c 4
 952 922 1075 888 1075 715 c 4
 1075 692 1073 666 1068 639 c 6
 990 172 l 6
 987 157 986 142 986 129 c 4
EndSplineSet
Fore
SplineSet
986 129 m 0,0,1
 986 45 986 45 1040 45 c 0,2,3
 1074 45 1074 45 1099 62 c 1,4,-1
 1114 16 l 1,5,6
 1068 -16 1068 -16 952 -16 c 0,7,8
 807 -16 807 -16 807 144 c 0,9,10
 807 184 807 184 814 229 c 2,11,-1
 885 653 l 2,12,13
 890 685 890 685 890 722 c 0,14,15
 890 852 890 852 718 852 c 0,16,17
 602 852 602 852 484 762 c 1,18,-1
 356 0 l 1,19,-1
 172 0 l 1,20,-1
 364 1145 l 1,21,22
 245 1155 245 1155 236 1155 c 1,23,-1
 244 1202 l 1,24,25
 283 1202 283 1202 404 1246 c 128,-1,26
 525 1290 525 1290 572 1290 c 1,27,-1
 494 827 l 1,28,29
 622 922 622 922 765 922 c 128,-1,30
 908 922 908 922 970 892 c 128,-1,31
 1032 862 1032 862 1053.5 820 c 128,-1,32
 1075 778 1075 778 1075 727.5 c 128,-1,33
 1075 677 1075 677 1068 639 c 2,34,-1
 990 172 l 2,35,36
 986 152 986 152 986 129 c 0,0,1
EndSplineSet
Validated: 1
EndChar

StartChar: i
Encoding: 105 105 74
Width: 548
Flags: W
HStem: 0 21G<193 380.341> 786 48<203 304.213> 902 20G<507.5 527.659> 1053 237<401.767 548.965>
VStem: 360 225<1088.56 1249.26>
AnchorPoint: "top" 492 1270 basechar 0
AnchorPoint: "below" 274 0 basechar 0
AnchorPoint: "cedilla" 274 0 basechar 0
AnchorPoint: "ogonek" 360 0 basechar 0
AnchorPoint: "mid" 376 532 basechar 0
LayerCount: 2
Fore
SplineSet
193 0 m 1,0,-1
 323 776 l 1,1,2
 198 786 198 786 195 786 c 1,3,-1
 203 834 l 1,4,5
 242 834 242 834 363 878 c 128,-1,6
 484 922 484 922 531 922 c 1,7,-1
 377 0 l 1,8,9
 193 0 l 1,0,-1
487.5 1290 m 128,-1,11
 534 1290 534 1290 559.5 1259 c 128,-1,12
 585 1228 585 1228 585 1179.5 c 128,-1,13
 585 1131 585 1131 544 1092 c 128,-1,14
 503 1053 503 1053 456 1053 c 128,-1,15
 409 1053 409 1053 384.5 1083 c 128,-1,16
 360 1113 360 1113 360 1136 c 0,17,18
 360 1211 360 1211 400.5 1250.5 c 128,-1,10
 441 1290 441 1290 487.5 1290 c 128,-1,11
EndSplineSet
Validated: 1
EndChar

StartChar: j
Encoding: 106 106 75
Width: 497
Flags: W
HStem: -410 62<-66.7082 65.4032> 786 48<185 285.075> 902 20G<488 508.66> 1053 237<382.767 530.525>
VStem: -224 142<-329.949 -176.306> 341 226<1089.6 1249.26>
AnchorPoint: "top" 469 1270 basechar 0
LayerCount: 2
Fore
SplineSet
469 1290 m 128,-1,1
 516 1290 516 1290 541.5 1259 c 128,-1,2
 567 1228 567 1228 567 1179.5 c 128,-1,3
 567 1131 567 1131 525.5 1092 c 128,-1,4
 484 1053 484 1053 437 1053 c 128,-1,5
 390 1053 390 1053 365.5 1083 c 128,-1,6
 341 1113 341 1113 341 1136 c 0,7,8
 341 1211 341 1211 381.5 1250.5 c 128,-1,0
 422 1290 422 1290 469 1290 c 128,-1,1
15 -410 m 0,9,10
 -224 -410 -224 -410 -224 -265 c 0,11,12
 -224 -201 -224 -201 -188.5 -175.5 c 128,-1,13
 -153 -150 -153 -150 -120 -150 c 128,-1,14
 -87 -150 -87 -150 -66.5 -172 c 128,-1,15
 -46 -194 -46 -194 -51.5 -226 c 128,-1,16
 -57 -258 -57 -258 -82 -279 c 1,17,18
 -88 -313 -88 -313 -62 -330.5 c 128,-1,19
 -36 -348 -36 -348 5.5 -348 c 128,-1,20
 47 -348 47 -348 91.5 -287.5 c 128,-1,21
 136 -227 136 -227 154 -119 c 2,22,-1
 304 776 l 1,23,24
 178 786 178 786 177 786 c 2,25,-1
 185 834 l 1,26,27
 224 834 224 834 344 878 c 128,-1,28
 464 922 464 922 512 922 c 1,29,-1
 343 -90 l 2,30,31
 303 -331 303 -331 120 -393 c 0,32,33
 70 -410 70 -410 15 -410 c 0,9,10
EndSplineSet
Validated: 1
EndChar

StartChar: k
Encoding: 107 107 76
Width: 1026
Flags: W
HStem: 0 43<933.326 1034> 858 43<784 874.115 992.169 1098> 1155 47<244 341.635> 1270 20G<548 568.651>
AnchorPoint: "top" 484 1341 basechar 0
AnchorPoint: "mid" 347 532 basechar 0
AnchorPoint: "cedilla" 254 0 basechar 0
AnchorPoint: "below" 545 0 basechar 0
LayerCount: 2
Back
SplineSet
356 84 m 1
 367.333 56.6667 410.333 43 485 43 c 1
 485 0 l 1
 43 0 l 1
 43 43 l 1
 117.667 43 160.667 56.6667 172 84 c 1
 172 1145 l 1
 87.3333 1151.67 44.3333 1155 43 1155 c 1
 43 1202 l 1
 69 1202 119.667 1216.67 195 1246 c 128
 270.333 1275.33 324 1290 356 1290 c 1
 356 84 l 1
635 0 m 1
 635 43 l 1
 669 43 695 45 713 49 c 1
 371 520 l 1
 733 846 l 1
 713 854 679.667 858 633 858 c 1
 633 901 l 1
 954 901 l 1
 954 858 l 1
 904 858 867.333 849 844 831 c 1
 553 571 l 1
 905 82 l 2
 915 67.3333 929.333 57.1667 948 51.5 c 128
 966.669 45.8333 995.335 43 1034 43 c 1
 1034 0 l 1
 635 0 l 1
EndSplineSet
Fore
SplineSet
172 0 m 1,0,-1
 364 1145 l 1,1,2
 239 1155 239 1155 236 1155 c 1,3,-1
 244 1202 l 1,4,5
 283 1202 283 1202 403.5 1246 c 128,-1,6
 524 1290 524 1290 572 1290 c 1,7,-1
 356 0 l 1,8,9
 172 0 l 1,0,-1
748 0 m 1,10,-1
 458 520 l 1,11,-1
 875 846 l 1,12,13
 847 858 847 858 777 858 c 1,14,-1
 784 901 l 1,15,-1
 1105 901 l 1,16,-1
 1098 858 l 1,17,18
 1023 858 1023 858 983 831 c 1,19,-1
 649 571 l 1,20,-1
 919 82 l 2,21,22
 931 60 931 60 957 51.5 c 128,-1,23
 983 43 983 43 1041 43 c 1,24,-1
 1034 0 l 1,25,-1
 748 0 l 1,10,-1
EndSplineSet
Validated: 1
EndChar

StartChar: l
Encoding: 108 108 77
Width: 528
Flags: W
HStem: -16 61<274.5 498.637> 1155 47<244 341.635> 1270 20G<548 568.655>
VStem: 203 178<46.5 255.914>
AnchorPoint: "top" 484 1341 basechar 0
AnchorPoint: "cedilla" 258 0 basechar 0
AnchorPoint: "below" 258 0 basechar 0
AnchorPoint: "mid" 377 698 basechar 0
LayerCount: 2
Back
SplineSet
381 129 m 0
 381 73 398.667 45 434 45 c 0
 456.667 45 476.333 50.6667 493 62 c 1
 508 16 l 1
 477.333 -5.33333 423.333 -16 346 -16 c 0
 250.662 -16 202.993 37.2578 202.993 143.773 c 0
 202.993 169.846 205.174 197.283 210 229 c 2
 364 1145 l 1
 280.667 1151.67 238 1155 236 1155 c 1
 244 1202 l 1
 270 1202 323.167 1216.67 403.5 1246 c 128
 483.833 1275.33 540 1290 572 1290 c 1
 385 172 l 2
 382.333 156.667 381 142.333 381 129 c 0
EndSplineSet
Fore
SplineSet
381 129 m 0,0,1
 381 45 381 45 434 45 c 0,2,3
 468 45 468 45 493 62 c 1,4,-1
 508 16 l 1,5,6
 462 -16 462 -16 346 -16 c 0,7,8
 203 -16 203 -16 203 144 c 0,9,10
 203 183 203 183 210 229 c 2,11,-1
 364 1145 l 1,12,13
 239 1155 239 1155 236 1155 c 1,14,-1
 244 1202 l 1,15,16
 283 1202 283 1202 403.5 1246 c 128,-1,17
 524 1290 524 1290 572 1290 c 1,18,-1
 385 172 l 2,19,20
 381 149 381 149 381 129 c 0,0,1
EndSplineSet
Validated: 1
EndChar

StartChar: m
Encoding: 109 109 78
Width: 1685
Flags: W
HStem: -16 61<1438 1662.59> 0 21G<193 380.36 764 951.343> 786 48<203 301.654> 852 70<613.081 841.383 1182.49 1410.6>
VStem: 875 192<450.469 771.329> 1366 179<46.5 254.193> 1446 193<445.281 821.935>
AnchorPoint: "top" 1037 1055 basechar 0
AnchorPoint: "below" 856 0 basechar 0
AnchorPoint: "cedilla" 856 0 basechar 0
AnchorPoint: "mid" 932 455 basechar 0
LayerCount: 2
Back
SplineSet
1545 129 m 4
 1545 73 1563 45 1598 45 c 4
 1621 45 1640 51 1657 62 c 5
 1672 16 l 5
 1641 -5 1587 -16 1510 -16 c 4
 1414 -16 1366 37 1366 144 c 4
 1366 170 1368 197 1373 229 c 6
 1437 612 l 6
 1443 650 1446 683 1446 711 c 4
 1446 816 1405 852 1292 852 c 132
 1221 852 1145 819 1066 754 c 5
 1067 748 1067 740 1067 729 c 132
 1067 718 1066 705 1063 688 c 6
 948 0 l 5
 764 0 l 5
 866 612 l 6
 872 650 875 683 875 711 c 4
 875 816 833 852 722 852 c 132
 652 852 580 822 505 762 c 5
 377 0 l 5
 193 0 l 5
 323 776 l 5
 240 783 197 786 195 786 c 5
 203 834 l 5
 229 834 282 849 363 878 c 132
 444 907 500 922 531 922 c 5
 516 829 l 5
 600 891 681 922 758 922 c 4
 922 922 1021 882 1054 803 c 5
 1144 882 1236 922 1330 922 c 4
 1536 922 1639 859 1639 733 c 4
 1639 719 1638 704 1635 688 c 6
 1549 172 l 6
 1546 157 1545 142 1545 129 c 4
EndSplineSet
Fore
SplineSet
1545 129 m 0,0,1
 1545 45 1545 45 1598 45 c 0,2,3
 1631 45 1631 45 1657 62 c 1,4,-1
 1672 16 l 1,5,6
 1625 -16 1625 -16 1510 -16 c 0,7,8
 1366 -16 1366 -16 1366 144 c 0,9,10
 1366 184 1366 184 1373 229 c 2,11,-1
 1437 612 l 2,12,13
 1446 669 1446 669 1446 729 c 128,-1,14
 1446 789 1446 789 1411.5 820.5 c 128,-1,15
 1377 852 1377 852 1281 852 c 128,-1,16
 1185 852 1185 852 1066 754 c 1,17,18
 1067 748 1067 748 1067 729.5 c 128,-1,19
 1067 711 1067 711 1063 688 c 2,20,-1
 948 0 l 1,21,-1
 764 0 l 1,22,-1
 866 612 l 2,23,24
 875 669 875 669 875 729 c 128,-1,25
 875 789 875 789 840.5 820.5 c 128,-1,26
 806 852 806 852 712 852 c 128,-1,27
 618 852 618 852 505 762 c 1,28,-1
 377 0 l 1,29,-1
 193 0 l 1,30,-1
 323 776 l 1,31,32
 204 786 204 786 195 786 c 1,33,-1
 203 834 l 1,34,35
 240 834 240 834 363 878 c 128,-1,36
 486 922 486 922 531 922 c 1,37,-1
 516 829 l 1,38,39
 642 922 642 922 758 922 c 0,40,41
 1004 922 1004 922 1054 803 c 1,42,43
 1190 922 1190 922 1330 922 c 0,44,45
 1639 922 1639 922 1639 733 c 0,46,47
 1639 709 1639 709 1635 688 c 2,48,-1
 1549 172 l 2,49,50
 1545 152 1545 152 1545 129 c 0,0,1
EndSplineSet
Validated: 1
EndChar

StartChar: n
Encoding: 110 110 79
Width: 1144
Flags: W
HStem: -16 61<900 1124.68> 0 21G<193 380.36> 786 48<203 304.213> 852 70<618.5 865.426>
VStem: 828 178<46.5 253.237> 910 183<409.836 819.335>
AnchorPoint: "top" 767 1057 basechar 0
AnchorPoint: "mid" 658 455 basechar 0
AnchorPoint: "cedilla" 927 0 basechar 0
AnchorPoint: "below" 582 0 basechar 0
LayerCount: 2
Fore
SplineSet
1006 129 m 0,0,1
 1006 45 1006 45 1060 45 c 0,2,3
 1095 45 1095 45 1119 62 c 1,4,-1
 1134 16 l 1,5,6
 1089 -16 1089 -16 972 -16 c 0,7,8
 828 -16 828 -16 828 144 c 0,9,10
 828 184 828 184 835 229 c 2,11,-1
 905 645 l 2,12,13
 910 677 910 677 910 704 c 0,14,15
 910 852 910 852 751 852 c 0,16,17
 623 852 623 852 505 762 c 1,18,-1
 377 0 l 1,19,-1
 193 0 l 1,20,-1
 323 776 l 1,21,22
 198 786 198 786 195 786 c 1,23,-1
 203 834 l 1,24,25
 242 834 242 834 363 878 c 128,-1,26
 484 922 484 922 531 922 c 1,27,-1
 515 827 l 1,28,29
 642 922 642 922 775 922 c 0,30,31
 966 922 966 922 1039 852 c 0,32,33
 1093 800 1093 800 1093 703 c 0,34,35
 1093 670 1093 670 1087 631 c 2,36,-1
 1010 172 l 2,37,38
 1006 149 1006 149 1006 129 c 0,0,1
EndSplineSet
Validated: 1
EndChar

StartChar: o
Encoding: 111 111 80
Width: 1116
Flags: W
HStem: -20 61<479.825 719.122> 858 64<547.974 800.522>
VStem: 148 199<163.52 597.948> 921 199<304.097 753.132>
AnchorPoint: "top" 738 1055 basechar 0
AnchorPoint: "ogonek" 573 0 basechar 0
AnchorPoint: "cedilla" 573 0 basechar 0
AnchorPoint: "below" 573 0 basechar 0
AnchorPoint: "mid" 636 471 basechar 0
LayerCount: 2
Back
SplineSet
347 355 m 4
 347 169 435 42 601 41 c 5
 827 41 921 314 921 557 c 4
 921 758 835 858 662 858 c 4
 446 858 347 580 347 355 c 4
546 -20 m 132
 310 -20 147 120 149 359 c 5
 149 681 360 922 703 922 c 132
 966 922 1120 808 1120 557 c 4
 1120 205 908 -20 546 -20 c 132
EndSplineSet
Fore
SplineSet
413 127 m 128,-1,1
 479 42 479 42 601 41 c 0,2,3
 682 41 682 41 745.5 86.5 c 128,-1,4
 809 132 809 132 846 208 c 0,5,6
 921 361 921 361 921 557 c 0,7,8
 921 858 921 858 662 858 c 0,9,10
 585 858 585 858 522.5 811 c 128,-1,11
 460 764 460 764 423 690 c 0,12,13
 347 537 347 537 347 374.5 c 128,-1,0
 347 212 347 212 413 127 c 128,-1,1
546 -20 m 0,14,15
 366 -20 366 -20 257 81 c 128,-1,16
 148 182 148 182 148 350.5 c 128,-1,17
 148 519 148 519 214.5 647 c 128,-1,18
 281 775 281 775 408 848.5 c 128,-1,19
 535 922 535 922 720 922 c 128,-1,20
 905 922 905 922 1012.5 831.5 c 128,-1,21
 1120 741 1120 741 1120 557 c 0,22,23
 1120 291 1120 291 967.5 135.5 c 128,-1,24
 815 -20 815 -20 546 -20 c 0,14,15
EndSplineSet
Validated: 1
EndChar

StartChar: p
Encoding: 112 112 81
Width: 1101
Flags: W
HStem: -393 43<-14 101.539 319.693 421> -20 69<386.538 678.648> 786 48<185 285.075> 852 70<566.18 832.986>
VStem: 915 192<328.364 757.384>
AnchorPoint: "top" 773 1055 basechar 0
AnchorPoint: "below" 608 0 basechar 0
AnchorPoint: "mid" 345 446 basechar 0
LayerCount: 2
Back
SplineSet
1096.91 445.449 m 4
 1047.85 152.27 842.341 -20 556 -20 c 4
 476 -20 411.333 -5 362 25 c 5
 306 -309 l 5
 312.667 -336.333 353.333 -350 428 -350 c 5
 421 -393 l 5
 -21 -393 l 5
 -14 -350 l 5
 60.667 -350 106 -336.333 122 -309 c 5
 304 776 l 5
 220 782.667 177.666 786 177 786 c 6
 185 834 l 5
 211 834 264 848.667 344 878 c 132
 424 907.333 480 922 512 922 c 5
 501 854 l 5
 573 899.333 653.167 922 741.5 922 c 132
 1026.21 922 1143.12 722.337 1096.91 445.449 c 4
373 90 m 5
 421.667 62.667 483 49 557 49 c 132
 739.136 49 867.996 242.784 902.228 447.349 c 4
 937.897 660.5 902.492 852 727 852 c 4
 633 852 554 830 490 786 c 5
 373 90 l 5
EndSplineSet
Fore
SplineSet
1097 445 m 0,0,1
 1060 226 1060 226 916 103 c 128,-1,2
 772 -20 772 -20 556 -20 c 0,3,4
 436 -20 436 -20 362 25 c 1,5,-1
 306 -309 l 1,6,7
 316 -350 316 -350 428 -350 c 1,8,-1
 421 -393 l 1,9,-1
 -21 -393 l 1,10,-1
 -14 -350 l 1,11,12
 98 -350 98 -350 122 -309 c 1,13,-1
 304 776 l 1,14,15
 178 786 178 786 177 786 c 2,16,-1
 185 834 l 1,17,18
 224 834 224 834 344 878 c 128,-1,19
 464 922 464 922 512 922 c 1,20,-1
 501 854 l 1,21,22
 609 922 609 922 744.5 922 c 128,-1,23
 880 922 880 922 970 860 c 0,24,25
 1107 765 1107 765 1107 560 c 0,26,27
 1107 505 1107 505 1097 445 c 0,0,1
373 90 m 1,28,29
 446 49 446 49 535 49 c 0,30,31
 691 49 691 49 785 172 c 0,32,33
 914 339 914 339 915 587 c 0,34,35
 915 773 915 773 816 830 c 0,36,37
 778 852 778 852 727 852 c 0,38,39
 586 852 586 852 490 786 c 1,40,-1
 373 90 l 1,28,29
EndSplineSet
Validated: 1
EndChar

StartChar: q
Encoding: 113 113 82
Width: 1071
Flags: W
HStem: -393 43<559 675.46 893.693 995> -20 70<409.267 661.411> 861 69<561.667 851.589>
VStem: 144 194<137.691 584.424>
LayerCount: 2
Back
SplineSet
932 -309 m 5
 943.333 -336.333 986.333 -350 1061 -350 c 5
 1061 -393 l 5
 618 -393 l 5
 618 -350 l 5
 693.333 -350 736.667 -336.333 748 -309 c 5
 747 76 l 5
 680 12 602 -20 482 -20 c 4
 211.596 -20 79 189.178 79 455 c 4
 79 748.607 240.73 930 527 930 c 4
 741 930 932 866 932 866 c 5
 932 -309 l 5
747 146 m 5
 747 812 l 5
 675 845 634 861 539 861 c 4
 355.943 861 274 663.963 274 460 c 132
 274 262.625 326.806 50 502 50 c 4
 617 50 689 82 747 146 c 5
EndSplineSet
Fore
SplineSet
760 76 m 1,0,1
 644 -20 644 -20 496 -20 c 128,-1,2
 348 -20 348 -20 266 44 c 0,3,4
 145 139 145 139 144 334 c 0,5,6
 144 391 144 391 155 455 c 0,7,8
 192 677 192 677 331 803.5 c 128,-1,9
 470 930 470 930 683 930 c 0,10,11
 778 930 778 930 876.5 914 c 128,-1,12
 975 898 975 898 1026 882 c 2,13,-1
 1077 866 l 1,14,-1
 880 -309 l 1,15,16
 890 -350 890 -350 1002 -350 c 1,17,-1
 995 -393 l 1,18,-1
 552 -393 l 1,19,-1
 559 -350 l 1,20,21
 672 -350 672 -350 696 -309 c 1,22,-1
 760 76 l 1,0,1
338 312 m 0,23,24
 338 50 338 50 510 50 c 0,25,26
 668 50 668 50 771 146 c 1,27,-1
 883 812 l 1,28,29
 827 840 827 840 788 850.5 c 128,-1,30
 749 861 749 861 672.5 861 c 128,-1,31
 596 861 596 861 524 802 c 0,32,33
 390 692 390 692 351 460 c 0,34,35
 338 381 338 381 338 312 c 0,23,24
EndSplineSet
Validated: 1
EndChar

StartChar: r
Encoding: 114 114 83
Width: 808
Flags: W
HStem: 0 21G<193 380.351> 786 48<203 304.213> 852 70<603.641 758.579>
AnchorPoint: "top" 675 1055 basechar 0
AnchorPoint: "below" 289 0 basechar 0
LayerCount: 2
Fore
SplineSet
193 0 m 1,0,-1
 323 776 l 1,1,2
 198 786 198 786 195 786 c 1,3,-1
 203 834 l 1,4,5
 242 834 242 834 363 878 c 128,-1,6
 484 922 484 922 531 922 c 1,7,-1
 516 831 l 1,8,9
 634 922 634 922 729.5 922 c 128,-1,10
 825 922 825 922 879.5 888.5 c 128,-1,11
 934 855 934 855 934 820 c 0,12,13
 934 735 934 735 841 735 c 0,14,15
 785 735 785 735 768.5 793.5 c 128,-1,16
 752 852 752 852 700 852 c 0,17,18
 621 852 621 852 505 764 c 1,19,-1
 377 0 l 1,20,-1
 193 0 l 1,0,-1
EndSplineSet
Validated: 1
EndChar

StartChar: s
Encoding: 115 115 84
Width: 829
Flags: W
HStem: -20 61<306.914 552.146> 0 21G<92 142.5> 860 62<427.454 657.524> 881 20G<788.5 839>
VStem: 92 49<0 34.9395> 140 45<202.685 289> 213 153<593.451 782.775> 650 156<140.892 298.011> 753 45<655 741.016> 792 47<861.441 901>
AnchorPoint: "top" 593 1055 basechar 0
AnchorPoint: "below" 360 0 basechar 0
AnchorPoint: "cedilla" 360 0 basechar 0
AnchorPoint: "mid" 519 471 basechar 0
LayerCount: 2
Fore
SplineSet
760 860 m 0,0,1
 785 860 785 860 792 901 c 1,2,-1
 839 901 l 1,3,-1
 798 655 l 1,4,-1
 753 655 l 1,5,6
 753 658 753 658 753 661 c 0,7,8
 753 742 753 742 693 801 c 128,-1,9
 633 860 633 860 554 860 c 128,-1,10
 475 860 475 860 420.5 825.5 c 128,-1,11
 366 791 366 791 366 712 c 0,12,13
 366 669 366 669 404.5 633.5 c 128,-1,14
 443 598 443 598 565 554 c 128,-1,15
 687 510 687 510 746.5 440 c 128,-1,16
 806 370 806 370 806 288 c 0,17,18
 806 143 806 143 671 54 c 0,19,20
 558 -20 558 -20 405 -20 c 0,21,22
 315 -20 315 -20 235 32 c 0,23,24
 208 50 208 50 195 49.5 c 128,-1,25
 182 49 182 49 163 33 c 128,-1,26
 144 17 144 17 141 0 c 1,27,-1
 92 0 l 1,28,-1
 140 289 l 1,29,-1
 185 289 l 1,30,31
 185 280 l 2,32,33
 185 182 185 182 254.5 111.5 c 128,-1,34
 324 41 324 41 431 41 c 2,35,-1
 434 41 l 2,36,37
 520 41 520 41 585 92.5 c 128,-1,38
 650 144 650 144 650 204 c 0,39,40
 650 315 650 315 441 393 c 1,41,42
 293 450 293 450 253 504.5 c 128,-1,43
 213 559 213 559 213 628 c 0,44,45
 213 774 213 774 331 856 c 0,46,47
 426 922 426 922 527 922 c 128,-1,48
 628 922 628 922 717 876 c 0,49,50
 746 860 746 860 760 860 c 0,0,1
EndSplineSet
Validated: 1
EndChar

StartChar: t
Encoding: 116 116 85
Width: 681
Flags: W
HStem: -20 77<301.75 556.563> 840 61<180 295.991 520 686> 1178 20G<470 569>
VStem: 201 195<62.5623 269.992> 481 88<1111.11 1198>
AnchorPoint: "top" 537 1270 basechar 0
AnchorPoint: "cedilla" 377 0 basechar 0
AnchorPoint: "below" 377 0 basechar 0
LayerCount: 2
Fore
SplineSet
396 144 m 0,0,1
 396 57 396 57 473 57 c 0,2,3
 521 57 521 57 565.5 93.5 c 128,-1,4
 610 130 610 130 634 193 c 1,5,-1
 679 168 l 1,6,7
 604 -20 604 -20 402.5 -20 c 128,-1,8
 201 -20 201 -20 201 147 c 0,9,10
 201 174 201 174 206 205 c 2,11,-1
 313 840 l 1,12,-1
 170 840 l 1,13,-1
 180 901 l 1,14,15
 277 901 277 901 368 981 c 128,-1,16
 459 1061 459 1061 481 1198 c 1,17,-1
 569 1198 l 1,18,-1
 520 901 l 1,19,-1
 696 901 l 1,20,-1
 686 840 l 1,21,-1
 510 840 l 1,22,-1
 400 188 l 2,23,24
 396 164 396 164 396 144 c 0,0,1
EndSplineSet
Validated: 1
EndChar

StartChar: u
Encoding: 117 117 86
Width: 1126
Flags: W
HStem: -20 69<431.109 683.667 884 1094.65> 858 43<186 287.307>
VStem: 203 182<83.7236 337.112> 799 178<112.375 254.944>
AnchorPoint: "top" 732 1055 basechar 0
AnchorPoint: "cedilla" 539 0 basechar 0
AnchorPoint: "below" 563 0 basechar 0
AnchorPoint: "ogonek" 795 0 basechar 0
AnchorPoint: "mid" 637 504 basechar 0
LayerCount: 2
Back
SplineSet
952 901 m 5
 952 172 l 6
 952 108 972 45 1025 45 c 132
 1044 45 1065 51 1079 62 c 5
 1101 16 l 5
 1068 -10 1013 -16 945 -16 c 132
 823 -16 768 74 768 229 c 6
 768 901 l 5
 952 901 l 5
822 124 m 5
 754 46 652 -20 524 -20 c 4
 397 -20 304 3 248 50 c 132
 192 97 164 170 164 270 c 6
 164 817 l 5
 153 844 110 858 35 858 c 5
 35 901 l 5
 348 901 l 5
 348 256 l 6
 348 118 411 49 537 49 c 4
 622 49 722 84 790 162 c 5
 822 124 l 5
EndSplineSet
Fore
SplineSet
545 49 m 0,0,1
 686 49 686 49 799 145 c 1,2,3
 799 183 799 183 806 229 c 2,4,-1
 919 901 l 1,5,-1
 1103 901 l 1,6,-1
 981 172 l 2,7,8
 977 149 977 149 977 129 c 0,9,10
 977 45 977 45 1033 45 c 0,11,12
 1065 45 1065 45 1089 62 c 1,13,-1
 1104 16 l 1,14,15
 1058 -16 1058 -16 942 -16 c 128,-1,16
 826 -16 826 -16 804 89 c 1,17,18
 671 -20 671 -20 521 -20 c 0,19,20
 328 -20 328 -20 256 50 c 0,21,22
 203 101 203 101 203 195 c 0,23,24
 203 231 203 231 209 270 c 2,25,-1
 301 817 l 1,26,27
 291 858 291 858 179 858 c 1,28,-1
 186 901 l 1,29,-1
 499 901 l 1,30,-1
 391 256 l 2,31,32
 386 224 386 224 385 197 c 1,33,34
 385 49 385 49 545 49 c 0,0,1
EndSplineSet
Validated: 1
EndChar

StartChar: v
Encoding: 118 118 87
Width: 989
Flags: W
HStem: 0 21G<439.398 602.5> 858 43<141 242.711 815 917.235>
AnchorPoint: "top" 714 1055 basechar 0
AnchorPoint: "below" 492 0 basechar 0
LayerCount: 2
Back
SplineSet
904 901 m 1
 876 595 650 436 562 0 c 1
 444 0 l 1
 119 817 l 2
 108 844 65 858 -10 858 c 1
 -10 901 l 1
 278 900 l 1
 538 264 l 1
 592 458 786 642 778 836 c 1
 759 851 721 858 664 858 c 1
 664 901 l 1
 904 901 l 1
EndSplineSet
Fore
SplineSet
1055 901 m 1,0,1
 1015 748 1015 748 893 574 c 0,2,3
 840 498 840 498 783 419 c 0,4,5
 643 220 643 220 562 0 c 1,6,-1
 444 0 l 1,7,-1
 256 817 l 2,8,9
 247 858 247 858 134 858 c 1,10,-1
 141 901 l 1,11,-1
 429 900 l 1,12,-1
 582 264 l 1,13,14
 628 368 628 368 774 550 c 0,15,16
 903 712 903 712 918 836 c 1,17,18
 894 858 894 858 808 858 c 1,19,-1
 815 901 l 1,20,-1
 1055 901 l 1,0,1
EndSplineSet
Validated: 1
EndChar

StartChar: w
Encoding: 119 119 88
Width: 1556
Flags: W
HStem: 0 21G<439.398 556.297 1007.36 1170> 858 43<141 242.307 1382 1484.23>
AnchorPoint: "top" 949 1055 basechar 0
AnchorPoint: "below" 786 0 basechar 0
LayerCount: 2
Back
SplineSet
1105 266 m 5
 1159 460 1353 642 1345 836 c 5
 1326 851 1288 858 1231 858 c 5
 1231 901 l 5
 1471 901 l 5
 1443 595 1217 436 1129 0 c 5
 1012 0 l 5
 778 586 l 5
 545 0 l 5
 444 0 l 5
 119 817 l 6
 108 844 65 858 -10 858 c 5
 -10 901 l 5
 278 900 l 5
 545 250 l 5
 772 824 l 5
 878.573 824 l 5
 1105 266 l 5
EndSplineSet
Fore
SplineSet
1150 266 m 1,0,1
 1187 350 1187 350 1263.5 450 c 128,-1,2
 1340 550 1340 550 1380 606 c 0,3,4
 1471 732 1471 732 1485 836 c 1,5,6
 1461 858 1461 858 1375 858 c 1,7,-1
 1382 901 l 1,8,-1
 1622 901 l 1,9,10
 1582 750 1582 750 1460 575 c 0,11,12
 1407 500 1407 500 1350 420 c 0,13,14
 1211 223 1211 223 1129 0 c 1,15,-1
 1012 0 l 1,16,-1
 876 586 l 1,17,-1
 545 0 l 1,18,-1
 444 0 l 1,19,-1
 256 817 l 2,20,21
 246 858 246 858 134 858 c 1,22,-1
 141 901 l 1,23,-1
 429 900 l 1,24,-1
 587 250 l 1,25,-1
 910 824 l 1,26,-1
 1016 824 l 1,27,-1
 1150 266 l 1,0,1
EndSplineSet
Validated: 1
EndChar

StartChar: x
Encoding: 120 120 89
Width: 956
Flags: W
HStem: 0 43<21 140.015 568 646.119 860.489 958> 858 43<186 284.399 495.973 576 921.595 1041>
LayerCount: 2
Back
SplineSet
897 901 m 1
 897 858 l 1
 825.667 858 780 845 760 819 c 1
 559 520 l 1
 831 82 l 2
 847.146 56 889.479 43 958 43 c 1
 958 0 l 1
 561 0 l 1
 561 43 l 1
 595 43 621 45 639 49 c 1
 449 356 l 1
 210 0 l 1
 14 0 l 1
 14 43 l 1
 88.088 43 134.755 57.3333 154 86 c 2
 393 442 l 1
 156 825 l 2
 142.386 847 102.053 858 35 858 c 1
 35 901 l 1
 432 901 l 1
 432 858 l 1
 398.667 858 372 856 352 852 c 1
 504 606 l 1
 702 901 l 1
 897 901 l 1
EndSplineSet
Fore
SplineSet
1048 901 m 1,0,-1
 1041 858 l 1,1,2
 934 858 934 858 897 819 c 1,3,-1
 646 520 l 1,4,-1
 845 82 l 2,5,6
 863 43 863 43 965 43 c 1,7,-1
 958 0 l 1,8,-1
 561 0 l 1,9,-1
 568 43 l 1,10,11
 619 43 619 43 647 49 c 1,12,-1
 509 356 l 1,13,-1
 210 0 l 1,14,-1
 14 0 l 1,15,-1
 21 43 l 1,16,17
 132 43 132 43 168 86 c 2,18,-1
 467 442 l 1,19,-1
 294 825 l 2,20,21
 279 858 279 858 179 858 c 1,22,-1
 186 901 l 1,23,-1
 583 901 l 1,24,-1
 576 858 l 1,25,26
 526 858 526 858 495 852 c 1,27,-1
 605 606 l 1,28,-1
 853 901 l 1,29,30
 1048 901 l 1,0,-1
EndSplineSet
Validated: 1
EndChar

StartChar: y
Encoding: 121 121 90
Width: 989
Flags: W
HStem: -393 135<130.637 303.996> 858 43<141 242.307 815 917.235>
AnchorPoint: "top" 709 1055 basechar 0
AnchorPoint: "ogonek" 692 0 basechar 0
AnchorPoint: "below" 623 0 basechar 0
LayerCount: 2
Back
SplineSet
904 901 m 13
 461 -209 l 6
 435.395 -273.159 402 -320 361 -349 c 132
 320 -378 283 -393 248 -393 c 132
 189 -393 135 -359 135 -306 c 132
 135 -264 167 -223 208 -223 c 132
 228 -223 246 -228 262 -240 c 132
 278 -252 290 -258 299 -258 c 4
 328 -258 347 -246 356 -221 c 6
 444 0 l 5
 119 817 l 6
 108 844 65 858 -10 858 c 5
 -10 901 l 5
 280 901 l 5
 545 250 l 5
 778 836 l 5
 759 851 721 858 664 858 c 5
 664 901 l 5
 904 901 l 13
EndSplineSet
Fore
SplineSet
1055 901 m 9,0,-1
 426 -209 l 2,1,2
 371 -306 371 -306 302 -349.5 c 128,-1,3
 233 -393 233 -393 184.5 -393 c 128,-1,4
 136 -393 136 -393 109.5 -370.5 c 128,-1,5
 83 -348 83 -348 83 -330.5 c 128,-1,6
 83 -313 83 -313 86 -293.5 c 128,-1,7
 89 -274 89 -274 115 -248.5 c 128,-1,8
 141 -223 141 -223 171.5 -223 c 128,-1,9
 202 -223 202 -223 222.5 -240.5 c 128,-1,10
 243 -258 243 -258 256 -258 c 0,11,12
 300 -258 300 -258 319 -221 c 1,13,-1
 444 0 l 1,14,-1
 256 817 l 2,15,16
 246 858 246 858 134 858 c 1,17,-1
 141 901 l 1,18,-1
 431 901 l 1,19,-1
 587 250 l 1,20,-1
 918 836 l 1,21,22
 894 858 894 858 808 858 c 1,23,-1
 815 901 l 1,24,-1
 1055 901 l 9,0,-1
EndSplineSet
Validated: 1
EndChar

StartChar: z
Encoding: 122 122 91
Width: 870
Flags: W
HStem: 0 61<276 750.624> 840 61<293.376 719>
VStem: 219 43<711 790.816> 782 43<110.184 190>
AnchorPoint: "top" 618 1053 basechar 0
AnchorPoint: "cedilla" 430 -2 basechar 0
AnchorPoint: "below" 430 -2 basechar 0
AnchorPoint: "mid" 520 481 basechar 0
LayerCount: 2
Fore
SplineSet
719 61 m 1,0,1
 763 78 763 78 782 190 c 1,2,-1
 825 190 l 1,3,-1
 793 0 l 1,4,-1
 35 0 l 1,5,-1
 719 840 l 1,6,-1
 325 840 l 1,7,8
 281 823 281 823 262 711 c 1,9,-1
 219 711 l 1,10,-1
 251 901 l 1,11,-1
 960 901 l 1,12,-1
 276 61 l 1,13,-1
 719 61 l 1,0,1
EndSplineSet
Validated: 1
EndChar

StartChar: braceleft
Encoding: 123 123 92
Width: 536
Flags: W
HStem: -313 49<328.088 427> 428 47<124 223.597> 1169 48<557.51 675>
VStem: 156 139<-245.297 44.875> 253 142<112.375 409.668>
LayerCount: 2
Fore
SplineSet
392 289 m 2,0,-1
 298 -143 l 2,1,2
 295 -160 295 -160 295 -189.5 c 128,-1,3
 295 -219 295 -219 325 -241.5 c 128,-1,4
 355 -264 355 -264 435 -264 c 1,5,-1
 427 -313 l 1,6,7
 156 -313 156 -313 156 -159 c 0,8,9
 156 -143 156 -143 159 -125 c 2,10,-1
 250 307 l 2,11,12
 253 325 253 325 253 354.5 c 128,-1,13
 253 384 253 384 224.5 406 c 128,-1,14
 196 428 196 428 117 428 c 1,15,-1
 124 475 l 1,16,17
 203 475 203 475 245 501.5 c 128,-1,18
 287 528 287 528 299 598 c 1,19,-1
 352 1028 l 1,20,21
 384 1217 384 1217 683 1217 c 1,22,-1
 675 1169 l 1,23,24
 596 1169 596 1169 552.5 1143 c 128,-1,25
 509 1117 509 1117 497 1047 c 1,26,-1
 447 616 l 1,27,28
 427 497 427 497 297 453 c 1,29,30
 395 416 395 416 395 325 c 0,31,32
 395 307 395 307 392 289 c 2,0,-1
EndSplineSet
Validated: 1
EndChar

StartChar: bar
Encoding: 124 124 93
Width: 385
Flags: W
VStem: 146 306
LayerCount: 2
Fore
SplineSet
379 1331 m 1,0,-1
 452 1331 l 1,1,-1
 219 -61 l 1,2,-1
 146 -61 l 1,3,-1
 379 1331 l 1,0,-1
EndSplineSet
Validated: 1
EndChar

StartChar: braceright
Encoding: 125 125 94
Width: 536
Flags: W
HStem: -313 47<12 122.988> 428 47<464.403 564> 1167 50<261 359.547>
VStem: 293 142<492.841 794.211> 393 138<858.406 1147.02>
LayerCount: 2
Fore
SplineSet
296 614 m 2,0,-1
 390 1047 l 2,1,2
 393 1064 393 1064 393 1093 c 128,-1,3
 393 1122 393 1122 362.5 1144.5 c 128,-1,4
 332 1167 332 1167 252 1167 c 1,5,-1
 261 1217 l 1,6,7
 531 1217 531 1217 531 1062 c 0,8,9
 531 1046 531 1046 528 1028 c 2,10,-1
 438 596 l 2,11,12
 435 578 435 578 435 548.5 c 128,-1,13
 435 519 435 519 463.5 497 c 128,-1,14
 492 475 492 475 571 475 c 1,15,-1
 564 428 l 1,16,17
 485 428 485 428 443 401.5 c 128,-1,18
 401 375 401 375 389 305 c 1,19,-1
 335 -125 l 1,20,21
 304 -313 304 -313 5 -313 c 1,22,-1
 12 -266 l 1,23,24
 91 -266 91 -266 135 -239.5 c 128,-1,25
 179 -213 179 -213 191 -143 c 1,26,-1
 241 287 l 1,27,28
 261 407 261 407 390 451 c 1,29,30
 293 488 293 488 293 578 c 0,31,32
 293 596 293 596 296 614 c 2,0,-1
EndSplineSet
Validated: 1
EndChar

StartChar: asciitilde
Encoding: 126 126 95
Width: 1116
Flags: W
HStem: 426 129<756.298 1005.2> 567 129<305.299 554.542>
VStem: 194 53<426 503.783> 1064 53<618.217 696>
LayerCount: 2
Fore
SplineSet
862 426 m 0,0,1
 802 426 802 426 622.5 496.5 c 128,-1,2
 443 567 443 567 406 567 c 0,3,4
 328 567 328 567 293.5 532.5 c 128,-1,5
 259 498 259 498 247 426 c 1,6,-1
 194 426 l 1,7,8
 239 696 239 696 448 696 c 0,9,10
 508 696 508 696 688.5 625.5 c 128,-1,11
 869 555 869 555 906 555 c 0,12,13
 984 555 984 555 1018 589.5 c 128,-1,14
 1052 624 1052 624 1064 696 c 1,15,-1
 1117 696 l 1,16,17
 1072 426 1072 426 862 426 c 0,0,1
EndSplineSet
Validated: 1
EndChar

StartChar: exclamdown
Encoding: 161 161 97
Width: 477
Flags: W
HStem: 831 254<320.954 477.842>
VStem: 116 204<-204.52 61.9688> 273 250<876.023 1036.63> 284 95<379.512 662.467>
LayerCount: 2
Fore
SplineSet
416 1085 m 128,-1,1
 466 1085 466 1085 494.5 1052 c 128,-1,2
 523 1019 523 1019 523 970 c 128,-1,3
 523 921 523 921 478 876 c 128,-1,4
 433 831 433 831 383 831 c 128,-1,5
 333 831 333 831 303 864 c 128,-1,6
 273 897 273 897 273 920 c 0,7,8
 273 994 273 994 319.5 1039.5 c 128,-1,0
 366 1085 366 1085 416 1085 c 128,-1,1
116 -150 m 0,9,10
 116 -109 116 -109 194.5 199.5 c 128,-1,11
 273 508 273 508 284 545 c 0,12,13
 324 684 324 684 354 684 c 0,14,15
 379 684 379 684 379 612 c 128,-1,16
 379 540 379 540 354.5 241 c 128,-1,17
 330 -58 330 -58 320 -118 c 0,18,19
 302 -225 302 -225 209 -225 c 128,-1,20
 116 -225 116 -225 116 -150 c 0,9,10
EndSplineSet
Validated: 1
EndChar

StartChar: cent
Encoding: 162 162 98
Width: 968
Flags: W
HStem: -20 77<494.054 742.073> 602 156<810.269 876.099> 860 62<555.552 683 778 830.556>
VStem: 133 202<207.369 603.084> 792 188<637.073 746.469>
LayerCount: 2
Fore
SplineSet
778 915 m 1,0,1
 979 888 979 888 980 745 c 0,2,3
 980 670 980 670 945.5 636 c 128,-1,4
 911 602 911 602 872.5 602 c 128,-1,5
 834 602 834 602 809.5 620.5 c 128,-1,6
 785 639 785 639 791.5 678 c 128,-1,7
 798 717 798 717 823 737.5 c 128,-1,8
 848 758 848 758 877 758 c 1,9,10
 869 840 869 840 757 856 c 1,11,-1
 493 82 l 1,12,13
 537 57 537 57 607 57 c 0,14,15
 762 57 762 57 894 193 c 1,16,-1
 939 168 l 1,17,18
 863 71 863 71 761 25.5 c 128,-1,19
 659 -20 659 -20 503 -20 c 0,20,21
 472 -20 472 -20 458 -18 c 1,22,-1
 374 -262 l 1,23,-1
 300 -248 l 1,24,-1
 384 -6 l 1,25,26
 256 30 256 30 194.5 124.5 c 128,-1,27
 133 219 133 219 133 353 c 0,28,29
 133 419 133 419 146 496 c 0,30,31
 175 670 175 670 320 796 c 128,-1,32
 465 922 465 922 674 922 c 2,33,-1
 703 922 l 1,34,-1
 790 1174 l 1,35,-1
 862 1159 l 1,36,-1
 778 915 l 1,0,1
432 131 m 1,37,-1
 683 860 l 1,38,39
 558 858 558 858 464 762 c 0,40,41
 335 630 335 630 335 405 c 0,42,43
 335 352 335 352 355 273 c 128,-1,44
 375 194 375 194 432 131 c 1,37,-1
EndSplineSet
Validated: 1
EndChar

StartChar: sterling
Encoding: 163 163 99
Width: 1091
Flags: W
HStem: -20 69<180.808 326.805> -16 163<561.536 883.44> 262 70<192.423 351.213> 707 90<315 440 639 841> 1157 62<758.554 938.484>
VStem: 83 71<75.8956 224.413> 455 184<797 954.5> 957 141<1027.4 1140.72>
LayerCount: 2
Fore
SplineSet
540 205 m 1,0,1
 627 147 627 147 713.5 147 c 128,-1,2
 800 147 800 147 858.5 159.5 c 128,-1,3
 917 172 917 172 949.5 189 c 128,-1,4
 982 206 982 206 1004.5 223.5 c 128,-1,5
 1027 241 1027 241 1039.5 253.5 c 128,-1,6
 1052 266 1052 266 1057 266 c 0,7,8
 1073 266 1073 266 1073 248.5 c 128,-1,9
 1073 231 1073 231 1031 166 c 128,-1,10
 989 101 989 101 905.5 42.5 c 128,-1,11
 822 -16 822 -16 700.5 -16 c 128,-1,12
 579 -16 579 -16 472 92 c 1,13,14
 379 -20 379 -20 270.5 -20 c 128,-1,15
 162 -20 162 -20 122.5 30 c 128,-1,16
 83 80 83 80 83 131 c 0,17,18
 83 215 83 215 155 273.5 c 128,-1,19
 227 332 227 332 286.5 332 c 128,-1,20
 346 332 346 332 404 301 c 1,21,22
 416 373 416 373 422 496.5 c 128,-1,23
 428 620 428 620 440 707 c 1,24,-1
 300 707 l 1,25,-1
 315 797 l 1,26,-1
 455 797 l 1,27,28
 499 1018 499 1018 589 1118.5 c 128,-1,29
 679 1219 679 1219 816.5 1219 c 128,-1,30
 954 1219 954 1219 1026 1175.5 c 128,-1,31
 1098 1132 1098 1132 1098 1070.5 c 128,-1,32
 1098 1009 1098 1009 1063 983.5 c 128,-1,33
 1028 958 1028 958 995 958 c 128,-1,34
 962 958 962 958 942 980.5 c 128,-1,35
 922 1003 922 1003 927.5 1035 c 128,-1,36
 933 1067 933 1067 956 1087 c 1,37,38
 957 1091 957 1091 957 1094 c 0,39,40
 957 1122 957 1122 916 1139.5 c 128,-1,41
 875 1157 875 1157 821 1157 c 0,42,43
 702 1157 702 1157 639 797 c 1,44,-1
 856 797 l 1,45,-1
 841 707 l 1,46,-1
 626 707 l 1,47,48
 620 658 620 658 609.5 548 c 128,-1,49
 599 438 599 438 585.5 356.5 c 128,-1,50
 572 275 572 275 540 205 c 1,0,1
381 197 m 1,51,52
 327 262 327 262 281.5 262 c 128,-1,53
 236 262 236 262 195 230 c 128,-1,54
 154 198 154 198 154 153 c 128,-1,55
 154 108 154 108 181.5 78.5 c 128,-1,56
 209 49 209 49 264 49 c 0,57,58
 338 49 338 49 381 197 c 1,51,52
EndSplineSet
Validated: 1
EndChar

StartChar: currency
Encoding: 164 164 100
Width: 1046
Flags: W
HStem: 152 92<412.888 729.257> 830 92<499.582 814.703>
VStem: 223 93<347.043 649.859> 911 94<424.03 728.737>
LayerCount: 2
Fore
SplineSet
441 744 m 0,0,1
 316 637 316 637 316 485 c 0,2,3
 316 397 316 397 379.5 320.5 c 128,-1,4
 443 244 443 244 565 244 c 128,-1,5
 687 244 687 244 787 330 c 0,6,7
 911 436 911 436 911 587 c 0,8,9
 911 678 911 678 848 754 c 128,-1,10
 785 830 785 830 663 830 c 2,11,-1
 662 830 l 2,12,13
 540 830 540 830 441 744 c 0,0,1
1005 605 m 0,14,15
 1005 435 1005 435 877 299 c 1,16,-1
 968 193 l 1,17,-1
 891 127 l 1,18,-1
 803 236 l 1,19,20
 681 152 681 152 547 152 c 128,-1,21
 413 152 413 152 322 236 c 1,22,-1
 195 127 l 1,23,-1
 141 193 l 1,24,-1
 269 301 l 1,25,26
 223 381 223 381 223 473 c 0,27,28
 223 638 223 638 353 776 c 1,29,-1
 258 889 l 1,30,-1
 334 954 l 1,31,-1
 428 840 l 1,32,33
 547 922 547 922 676.5 922 c 128,-1,34
 806 922 806 922 901 842 c 1,35,-1
 1030 954 l 1,36,-1
 1085 889 l 1,37,-1
 955 778 l 1,38,39
 1005 700 1005 700 1005 605 c 0,14,15
EndSplineSet
Validated: 1
EndChar

StartChar: yen
Encoding: 165 165 101
Width: 1107
Flags: W
HStem: 0 43<343 458.539 680.693 782> 156 90<328 491 694 853> 360 91<362 517 741 887> 1155 43<249 350.307 552.883 639 923 1027.23 1136.19 1252>
LayerCount: 2
Fore
SplineSet
343 43 m 1,0,1
 455 43 455 43 479 84 c 1,2,-1
 491 156 l 1,3,-1
 313 156 l 1,4,-1
 328 246 l 1,5,-1
 506 246 l 1,6,-1
 525 360 l 1,7,-1
 347 360 l 1,8,-1
 362 451 l 1,9,-1
 517 451 l 1,10,-1
 364 1114 l 2,11,12
 354 1155 354 1155 242 1155 c 1,13,-1
 249 1198 l 1,14,-1
 646 1198 l 1,15,-1
 639 1155 l 1,16,17
 580 1155 580 1155 552 1147 c 1,18,-1
 696 547 l 1,19,-1
 1028 1133 l 1,20,21
 1004 1155 1004 1155 916 1155 c 1,22,-1
 923 1198 l 1,23,-1
 1259 1198 l 1,24,-1
 1252 1155 l 1,25,26
 1139 1155 1139 1155 1119 1116 c 1,27,-1
 741 451 l 1,28,-1
 902 451 l 1,29,-1
 887 360 l 1,30,-1
 713 360 l 1,31,-1
 694 246 l 1,32,-1
 868 246 l 1,33,-1
 853 156 l 1,34,-1
 679 156 l 1,35,-1
 667 84 l 1,36,37
 677 43 677 43 789 43 c 1,38,-1
 782 0 l 1,39,-1
 336 0 l 1,40,-1
 343 43 l 1,0,1
EndSplineSet
Validated: 1
EndChar

StartChar: brokenbar
Encoding: 166 166 102
Width: 393
Flags: W
VStem: 150 306
LayerCount: 2
Fore
SplineSet
383 1331 m 1,0,-1
 456 1331 l 1,1,-1
 357 741 l 1,2,-1
 284 741 l 1,3,-1
 383 1331 l 1,0,-1
248 528 m 1,4,-1
 321 528 l 1,5,-1
 223 -61 l 1,6,-1
 150 -61 l 1,7,-1
 248 528 l 1,4,-1
EndSplineSet
Validated: 1
EndChar

StartChar: section
Encoding: 167 167 103
Width: 839
Flags: W
HStem: -385 41<285.555 442.465> 1180 41<537.535 694.445>
VStem: 103 142<-295.019 -122.627> 152 142<363.361 569.067> 300 167<946.726 1091.71> 513 167<-255.705 -110.726> 686 142<266.933 469.536> 731 146<958.111 1131.02>
LayerCount: 2
Fore
SplineSet
249 -169 m 1,0,-1
 245 -214 l 1,1,2
 245 -249 245 -249 265.5 -296.5 c 128,-1,3
 286 -344 286 -344 348 -344 c 128,-1,4
 410 -344 410 -344 455 -318 c 128,-1,5
 500 -292 500 -292 512 -221 c 0,6,7
 513 -217 513 -217 513 -213 c 0,8,9
 513 -152 513 -152 384 2 c 0,10,11
 327 70 327 70 271 142 c 0,12,13
 152 294 152 294 152 401 c 0,14,15
 152 416 152 416 154 430 c 0,16,17
 196 682 196 682 409 750 c 1,18,19
 300 878 300 878 300 978 c 128,-1,20
 300 1078 300 1078 412.5 1149.5 c 128,-1,21
 525 1221 525 1221 657 1221 c 2,22,-1
 661 1221 l 2,23,24
 753 1221 753 1221 815 1152 c 128,-1,25
 877 1083 877 1083 877 1038.5 c 128,-1,26
 877 994 877 994 851 966 c 128,-1,27
 825 938 825 938 794 938 c 128,-1,28
 763 938 763 938 747 957.5 c 128,-1,29
 731 977 731 977 731 1005 c 1,30,-1
 735 1050 l 1,31,32
 735 1085 735 1085 714 1132.5 c 128,-1,33
 693 1180 693 1180 630.5 1180 c 128,-1,34
 568 1180 568 1180 524 1154 c 128,-1,35
 480 1128 480 1128 468 1057 c 0,36,37
 467 1053 467 1053 467 1049 c 0,38,39
 467 988 467 988 596 834 c 0,40,41
 653 766 653 766 709 694 c 0,42,43
 828 542 828 542 828 435 c 0,44,45
 828 420 828 420 826 406 c 0,46,47
 784 154 784 154 571 86 c 1,48,49
 680 -42 680 -42 680 -142 c 128,-1,50
 680 -242 680 -242 567.5 -313.5 c 128,-1,51
 455 -385 455 -385 323 -385 c 0,52,53
 321 -385 321 -385 319 -385 c 0,54,55
 227 -385 227 -385 165 -316 c 128,-1,56
 103 -247 103 -247 103 -202.5 c 128,-1,57
 103 -158 103 -158 129 -130 c 128,-1,58
 155 -102 155 -102 186 -102 c 128,-1,59
 217 -102 217 -102 233 -122 c 128,-1,60
 249 -142 249 -142 249 -169 c 1,0,-1
524 141 m 1,61,62
 589 160 589 160 631.5 198 c 128,-1,63
 674 236 674 236 680 269 c 128,-1,64
 686 302 686 302 686 318.5 c 128,-1,65
 686 335 686 335 683.5 354 c 128,-1,66
 681 373 681 373 675 396.5 c 128,-1,67
 669 420 669 420 652 450.5 c 128,-1,68
 635 481 635 481 623.5 500 c 128,-1,69
 612 519 612 519 585 551 c 128,-1,70
 558 583 558 583 544.5 597.5 c 128,-1,71
 531 612 531 612 499 647 c 128,-1,72
 467 682 467 682 456 694 c 1,73,74
 391 675 391 675 348 637.5 c 128,-1,75
 305 600 305 600 299.5 567 c 128,-1,76
 294 534 294 534 294 517 c 0,77,78
 294 403 294 403 393 288 c 0,79,80
 424 252 424 252 451.5 222 c 128,-1,81
 479 192 479 192 524 141 c 1,61,62
EndSplineSet
Validated: 1
EndChar

StartChar: dieresis
Encoding: 168 168 104
Width: 823
Flags: W
HStem: 1024 201<337.409 473.265 714.409 849.781>
VStem: 310 204<1058.04 1196.32> 687 203<1058.04 1196.53>
LayerCount: 2
Fore
SplineSet
771 1024 m 128,-1,1
 730 1024 730 1024 708.5 1050.5 c 128,-1,2
 687 1077 687 1077 687 1117.5 c 128,-1,3
 687 1158 687 1158 725.5 1191.5 c 128,-1,4
 764 1225 764 1225 805 1225 c 128,-1,5
 846 1225 846 1225 868 1198.5 c 128,-1,6
 890 1172 890 1172 890 1152 c 0,7,8
 890 1090 890 1090 851 1057 c 128,-1,0
 812 1024 812 1024 771 1024 c 128,-1,1
394 1024 m 128,-1,10
 353 1024 353 1024 331.5 1050.5 c 128,-1,11
 310 1077 310 1077 310 1117.5 c 128,-1,12
 310 1158 310 1158 348.5 1191.5 c 128,-1,13
 387 1225 387 1225 428 1225 c 128,-1,14
 469 1225 469 1225 491.5 1198 c 128,-1,15
 514 1171 514 1171 514 1152 c 0,16,17
 514 1090 514 1090 474.5 1057 c 128,-1,9
 435 1024 435 1024 394 1024 c 128,-1,10
EndSplineSet
Validated: 1
EndChar

StartChar: copyright
Encoding: 169 169 105
Width: 1312
Flags: W
HStem: -16 55<504.895 832.564> 238 56<648.958 827.99> 823 56<720.492 905.108> 1059 55<665.015 994.842>
VStem: 176 55<311.148 630.495> 449 127<349.303 670.593> 931 41<717 789.203> 942 45<848.005 868> 1266 57<473.376 791.572>
LayerCount: 2
Fore
SplineSet
350 804 m 0,0,1
 231 646 231 646 231 463 c 0,2,3
 231 374 231 374 265 294 c 0,4,5
 314 176 314 176 420 107.5 c 128,-1,6
 526 39 526 39 664 39 c 128,-1,7
 802 39 802 39 930.5 107.5 c 128,-1,8
 1059 176 1059 176 1148 294 c 0,9,10
 1266 451 1266 451 1266 632 c 0,11,12
 1266 725 1266 725 1233 804 c 0,13,14
 1184 922 1184 922 1078 990.5 c 128,-1,15
 972 1059 972 1059 834 1059 c 128,-1,16
 696 1059 696 1059 567 990.5 c 128,-1,17
 438 922 438 922 350 804 c 0,0,1
176 453 m 0,18,19
 176 657 176 657 307 832 c 0,20,21
 405 962 405 962 547.5 1038 c 128,-1,22
 690 1114 690 1114 843 1114 c 128,-1,23
 996 1114 996 1114 1114 1038 c 128,-1,24
 1232 962 1232 962 1286 832 c 0,25,26
 1323 744 1323 744 1323 671 c 0,27,28
 1323 441 1323 441 1192 266 c 0,29,30
 1094 136 1094 136 950.5 60 c 128,-1,31
 807 -16 807 -16 654 -16 c 128,-1,32
 501 -16 501 -16 384 60 c 128,-1,33
 267 136 267 136 213 266 c 0,34,35
 176 354 176 354 176 453 c 0,18,19
905.5 795.5 m 128,-1,37
 881 823 881 823 808 823 c 128,-1,38
 735 823 735 823 669 752 c 0,39,40
 577 652 577 652 576 469 c 0,41,42
 576 416 576 416 609 366 c 0,43,44
 656 294 656 294 722.5 294 c 128,-1,45
 789 294 789 294 841.5 330 c 128,-1,46
 894 366 894 366 916 408 c 1,47,-1
 956 387 l 1,48,49
 873 238 873 238 706 238 c 0,50,51
 610 238 610 238 547 284 c 0,52,53
 449 356 449 356 449 488.5 c 128,-1,54
 449 621 449 621 529 726 c 0,55,56
 647 879 647 879 829 879 c 0,57,58
 877 879 877 879 905.5 863.5 c 128,-1,59
 934 848 934 848 936.5 848 c 128,-1,60
 939 848 939 848 942 868 c 1,61,-1
 987 868 l 1,62,-1
 972 717 l 1,63,-1
 931 717 l 1,64,36
 930 768 930 768 905.5 795.5 c 128,-1,37
EndSplineSet
Validated: 1
EndChar

StartChar: ordfeminine
Encoding: 170 170 106
Width: 743
Flags: W
HStem: 264 53<184 667> 440 56<346.562 499.528 567.5 669.753> 874 58<381.355 537.158>
VStem: 224 114<503.696 624.547> 295 108<767.079 843.741> 512 110<506.397 680.328> 547 114<623.836 854.952> 671 39<499.674 518>
LayerCount: 2
Fore
SplineSet
184 317 m 1,0,-1
 676 317 l 1,1,-1
 667 264 l 1,2,-1
 175 264 l 1,3,-1
 184 317 l 1,0,-1
379 844 m 1,4,5
 410 836 410 836 403 792 c 128,-1,6
 396 748 396 748 338 748 c 0,7,8
 312 748 312 748 301.5 766.5 c 128,-1,9
 291 785 291 785 295 809 c 0,10,11
 316 932 316 932 503 932 c 0,12,13
 593 932 593 932 627 887.5 c 128,-1,14
 661 843 661 843 661 807 c 128,-1,15
 661 771 661 771 658 750 c 2,16,-1
 624 547 l 2,17,18
 622 534 622 534 622 514 c 128,-1,19
 622 494 622 494 640.5 494 c 128,-1,20
 659 494 659 494 664 499.5 c 128,-1,21
 669 505 669 505 671 518 c 1,22,-1
 710 518 l 1,23,24
 703 476 703 476 676.5 459 c 128,-1,25
 650 442 650 442 595 442 c 128,-1,26
 540 442 540 442 522 479 c 1,27,28
 452 440 452 440 369 440 c 0,29,30
 225 440 225 440 224 544 c 0,31,32
 224 631 224 631 320 668 c 0,33,34
 392 695 392 695 459 709 c 128,-1,35
 526 723 526 723 542 727 c 1,36,37
 547 765 547 765 547 795 c 128,-1,38
 547 825 547 825 539 842 c 0,39,40
 525 874 525 874 463.5 874 c 128,-1,41
 402 874 402 874 379 844 c 1,4,5
512 524 m 1,42,43
 512 547 512 547 516 575 c 2,44,-1
 534 682 l 1,45,46
 525 679 525 679 466.5 663 c 128,-1,47
 408 647 408 647 373 622 c 128,-1,48
 338 597 338 597 338 542 c 0,49,50
 338 521 338 521 349.5 508.5 c 128,-1,51
 361 496 361 496 407 496 c 128,-1,52
 453 496 453 496 512 524 c 1,42,43
EndSplineSet
Validated: 1
EndChar

StartChar: guillemotleft
Encoding: 171 171 107
Width: 894
Flags: W
HStem: 369 487
LayerCount: 2
Fore
SplineSet
217 664 m 2,0,-1
 581 856 l 1,1,-1
 572 803 l 1,2,-1
 362 612 l 1,3,-1
 509 422 l 1,4,-1
 500 369 l 1,5,-1
 200 561 l 2,6,7
 176 574 176 574 182 612 c 0,8,9
 189 650 189 650 217 664 c 2,0,-1
545 664 m 2,10,-1
 909 856 l 1,11,-1
 900 803 l 1,12,-1
 690 612 l 1,13,-1
 837 422 l 1,14,-1
 828 369 l 1,15,-1
 528 561 l 2,16,17
 504 574 504 574 510 612 c 0,18,19
 517 650 517 650 545 664 c 2,10,-1
EndSplineSet
Validated: 1
EndChar

StartChar: logicalnot
Encoding: 172 172 108
Width: 868
Flags: W
HStem: 606 90<249 746>
VStem: 234 613
LayerCount: 2
Fore
SplineSet
746 606 m 1,0,-1
 234 606 l 1,1,-1
 249 696 l 1,2,-1
 847 696 l 1,3,-1
 802 426 l 1,4,-1
 716 426 l 1,5,-1
 746 606 l 1,0,-1
EndSplineSet
Validated: 1
EndChar

StartChar: uni00AD
Encoding: 173 173 109
Width: 794
Flags: W
HStem: 606 90<243 769>
VStem: 228 556
LayerCount: 2
Fore
SplineSet
243 696 m 1,0,-1
 784 696 l 1,1,-1
 769 606 l 1,2,-1
 228 606 l 1,3,-1
 243 696 l 1,0,-1
EndSplineSet
Validated: 1
EndChar

StartChar: registered
Encoding: 174 174 110
Width: 1312
Flags: W
HStem: -16 55<504.895 832.564> 250 41<436 501.646 616.138 671 948.078 1007> 522 56<662 732> 815 53<532 586.862 701 868.782> 1059 55<665.015 994.842>
VStem: 176 55<311.148 630.495> 892 123<613.59 791.278> 1266 57<473.376 791.572>
LayerCount: 2
Fore
SplineSet
350 804 m 0,0,1
 231 646 231 646 231 463 c 0,2,3
 231 374 231 374 265 294 c 0,4,5
 314 176 314 176 420 107.5 c 128,-1,6
 526 39 526 39 664 39 c 128,-1,7
 802 39 802 39 930.5 107.5 c 128,-1,8
 1059 176 1059 176 1148 294 c 0,9,10
 1266 451 1266 451 1266 632 c 0,11,12
 1266 725 1266 725 1233 804 c 0,13,14
 1184 922 1184 922 1078 990.5 c 128,-1,15
 972 1059 972 1059 834 1059 c 128,-1,16
 696 1059 696 1059 567 990.5 c 128,-1,17
 438 922 438 922 350 804 c 0,0,1
176 453 m 0,18,19
 176 657 176 657 307 832 c 0,20,21
 405 962 405 962 547.5 1038 c 128,-1,22
 690 1114 690 1114 843 1114 c 128,-1,23
 996 1114 996 1114 1114 1038 c 128,-1,24
 1232 962 1232 962 1286 832 c 0,25,26
 1323 744 1323 744 1323 671 c 0,27,28
 1323 441 1323 441 1192 266 c 0,29,30
 1094 136 1094 136 950.5 60 c 128,-1,31
 807 -16 807 -16 654 -16 c 128,-1,32
 501 -16 501 -16 384 60 c 128,-1,33
 267 136 267 136 213 266 c 0,34,35
 176 354 176 354 176 453 c 0,18,19
1014 709 m 0,36,37
 993 586 993 586 857 541 c 1,38,-1
 948 307 l 1,39,40
 950 291 950 291 1014 291 c 1,41,-1
 1007 250 l 1,42,-1
 953 250 l 2,43,44
 880 250 880 250 856.5 260.5 c 128,-1,45
 833 271 833 271 818 309 c 2,46,-1
 732 522 l 1,47,-1
 652 522 l 1,48,-1
 616 305 l 1,49,50
 620 291 620 291 678 291 c 1,51,-1
 671 250 l 1,52,-1
 429 250 l 1,53,-1
 436 291 l 1,54,55
 491 291 491 291 502 305 c 1,56,-1
 587 815 l 1,57,58
 583 827 583 827 525 827 c 1,59,-1
 532 868 l 1,60,-1
 774 868 l 2,61,62
 906 868 906 868 960.5 823.5 c 128,-1,63
 1015 779 1015 779 1015 728 c 2,64,65
 1015 720 l 2,66,67
 1015 716 1015 716 1014 709 c 0,36,37
701 815 m 1,68,-1
 662 578 l 1,69,-1
 738 578 l 2,70,71
 818 578 818 578 855 612.5 c 128,-1,72
 892 647 892 647 892 731 c 0,73,74
 892 769 892 769 869.5 792 c 128,-1,75
 847 815 847 815 765 815 c 2,76,-1
 701 815 l 1,68,-1
EndSplineSet
Validated: 1
EndChar

StartChar: macron
Encoding: 175 175 111
Width: 786
Flags: W
HStem: 1053 90<314 840>
VStem: 299 556
LayerCount: 2
Fore
SplineSet
314 1143 m 1,0,-1
 855 1143 l 1,1,-1
 840 1053 l 1,2,-1
 299 1053 l 1,3,-1
 314 1143 l 1,0,-1
EndSplineSet
Validated: 1
EndChar

StartChar: degree
Encoding: 176 176 112
Width: 638
Flags: W
HStem: 825 84<376.591 580.619> 1206 84<412.786 615.909>
VStem: 259 86<942.876 1140.98> 648 85<973.291 1171.45>
LayerCount: 2
Fore
SplineSet
522 1206 m 128,-1,1
 460 1206 460 1206 402.5 1156.5 c 128,-1,2
 345 1107 345 1107 345 1031 c 0,3,4
 345 986 345 986 377 947.5 c 128,-1,5
 409 909 409 909 471 909 c 128,-1,6
 533 909 533 909 590.5 958 c 128,-1,7
 648 1007 648 1007 648 1083 c 0,8,9
 648 1128 648 1128 616 1167 c 128,-1,0
 584 1206 584 1206 522 1206 c 128,-1,1
259 1017 m 0,10,11
 259 1135 259 1135 349.5 1212.5 c 128,-1,12
 440 1290 440 1290 535 1290 c 128,-1,13
 630 1290 630 1290 681.5 1228.5 c 128,-1,14
 733 1167 733 1167 733 1097 c 0,15,16
 733 979 733 979 642.5 902 c 128,-1,17
 552 825 552 825 457 825 c 128,-1,18
 362 825 362 825 310.5 886 c 128,-1,19
 259 947 259 947 259 1017 c 0,10,11
EndSplineSet
Validated: 1
EndChar

StartChar: plusminus
Encoding: 177 177 113
Width: 851
Flags: W
HStem: 274 91<194 765> 713 90<267 500 605 838>
VStem: 179 674
LayerCount: 2
Fore
SplineSet
194 365 m 1,0,-1
 780 365 l 1,1,-1
 765 274 l 1,2,-1
 179 274 l 1,3,-1
 194 365 l 1,0,-1
590 713 m 1,4,-1
 556 506 l 1,5,-1
 466 506 l 1,6,-1
 500 713 l 1,7,-1
 252 713 l 1,8,-1
 267 803 l 1,9,-1
 515 803 l 1,10,-1
 550 1010 l 1,11,-1
 640 1010 l 1,12,-1
 605 803 l 1,13,-1
 853 803 l 1,14,-1
 838 713 l 1,15,-1
 590 713 l 1,4,-1
EndSplineSet
Validated: 1
EndChar

StartChar: uni00B2
Encoding: 178 178 114
Width: 737
Flags: W
HStem: 573 115<379 700> 1250 102<417.498 634.242>
VStem: 659 159<1051.36 1226.85>
LayerCount: 2
Fore
SplineSet
296 1118 m 0,0,1
 275 1118 275 1118 280 1147.5 c 128,-1,2
 285 1177 285 1177 322.5 1220.5 c 128,-1,3
 360 1264 360 1264 392 1290 c 0,4,5
 470 1352 470 1352 594 1352 c 128,-1,6
 718 1352 718 1352 768 1302 c 128,-1,7
 818 1252 818 1252 818 1176.5 c 128,-1,8
 818 1101 818 1101 748.5 1018.5 c 128,-1,9
 679 936 679 936 608.5 878 c 128,-1,10
 538 820 538 820 466 762 c 128,-1,11
 394 704 394 704 379 688 c 1,12,-1
 654 688 l 1,13,14
 677 696 677 696 703.5 720 c 128,-1,15
 730 744 730 744 746 776 c 1,16,-1
 792 776 l 1,17,-1
 700 573 l 1,18,-1
 170 573 l 1,19,-1
 172 584 l 2,20,21
 177 614 177 614 291 704 c 128,-1,22
 405 794 405 794 473 854 c 0,23,24
 659 1018 659 1018 659 1150 c 0,25,26
 659 1188 659 1188 635 1219 c 128,-1,27
 611 1250 611 1250 553 1250 c 2,28,-1
 551 1250 l 2,29,30
 410 1250 410 1250 344 1164 c 0,31,32
 308 1118 308 1118 296 1118 c 0,0,1
EndSplineSet
Validated: 1
EndChar

StartChar: uni00B3
Encoding: 179 179 115
Width: 724
Flags: W
HStem: 565 62<338.289 557.047> 1249 103<419.544 638.582>
VStem: 191 116<646.922 756.53> 640 137<695.855 921.16> 654 143<1073.79 1233.76>
LayerCount: 2
Fore
SplineSet
797 1196 m 0,0,1
 797 1077 797 1077 668 1006 c 1,2,3
 726 981 726 981 751.5 937.5 c 128,-1,4
 777 894 777 894 777 866 c 0,5,6
 777 731 777 731 694 648 c 128,-1,7
 611 565 611 565 443 565 c 0,8,9
 441 565 441 565 439 565 c 0,10,11
 275 565 275 565 205 655 c 0,12,13
 191 673 191 673 191 698.5 c 128,-1,14
 191 724 191 724 210.5 748 c 128,-1,15
 230 772 230 772 255.5 772 c 128,-1,16
 281 772 281 772 290.5 757 c 128,-1,17
 300 742 300 742 307 721 c 128,-1,18
 314 700 314 700 323 678 c 0,19,20
 348 627 348 627 438 627 c 2,21,-1
 441 627 l 2,22,23
 609 627 609 627 637 795 c 0,24,25
 640 811 640 811 640 838 c 128,-1,26
 640 865 640 865 620 907.5 c 128,-1,27
 600 950 600 950 538 950 c 1,28,-1
 469 942 l 1,29,30
 455 942 455 942 441 954.5 c 128,-1,31
 427 967 427 967 438.5 977.5 c 128,-1,32
 450 988 450 988 499 1001 c 0,33,34
 654 1042 654 1042 654 1157 c 0,35,36
 654 1249 654 1249 535 1249 c 2,37,-1
 533 1249 l 2,38,39
 439 1249 439 1249 397 1211 c 0,40,41
 378 1195 378 1195 366 1179 c 128,-1,42
 354 1163 354 1163 344.5 1152 c 128,-1,43
 335 1141 335 1141 326 1141 c 128,-1,44
 317 1141 317 1141 309 1150.5 c 128,-1,45
 301 1160 301 1160 324 1205 c 128,-1,46
 347 1250 347 1250 411 1301 c 128,-1,47
 475 1352 475 1352 566 1352 c 0,48,49
 797 1352 797 1352 797 1196 c 0,0,1
EndSplineSet
Validated: 1
EndChar

StartChar: acute
Encoding: 180 180 116
Width: 614
Flags: W
HStem: 1024 332
VStem: 294 425
LayerCount: 2
Fore
SplineSet
501 1356 m 1,0,-1
 719 1356 l 1,1,-1
 347 1024 l 1,2,-1
 294 1024 l 1,3,-1
 501 1356 l 1,0,-1
EndSplineSet
Validated: 1
EndChar

StartChar: uni00B5
Encoding: 181 181 117
Width: 1187
Flags: W
HStem: -20 69<424.418 650.653 880 1102.34> 881 20G<305.647 493 921.648 1109>
VStem: 109 119<-338.75 -79.5625>
LayerCount: 2
Fore
SplineSet
1109 901 m 1,0,-1
 986 170 l 2,1,2
 982 144 982 144 982 118 c 128,-1,3
 982 92 982 92 995.5 66.5 c 128,-1,4
 1009 41 1009 41 1037.5 41 c 128,-1,5
 1066 41 1066 41 1090 56 c 128,-1,6
 1114 71 1114 71 1117 92 c 1,7,-1
 1154 92 l 1,8,9
 1144 33 1144 33 1097 6.5 c 128,-1,10
 1050 -20 1050 -20 947 -20 c 0,11,12
 813 -20 813 -20 805 125 c 1,13,14
 664 -20 664 -20 494.5 -20 c 128,-1,15
 325 -20 325 -20 252 49 c 1,16,-1
 233 -68 l 2,17,18
 228 -100 228 -100 228 -135 c 128,-1,19
 228 -170 228 -170 247 -188 c 0,20,21
 276 -214 276 -214 302.5 -235.5 c 128,-1,22
 329 -257 329 -257 329 -305 c 128,-1,23
 329 -353 329 -353 288.5 -381.5 c 128,-1,24
 248 -410 248 -410 206 -410 c 128,-1,25
 164 -410 164 -410 136.5 -382 c 128,-1,26
 109 -354 109 -354 109 -323.5 c 128,-1,27
 109 -293 109 -293 112 -274 c 2,28,-1
 309 901 l 1,29,-1
 493 901 l 1,30,-1
 385 256 l 2,31,32
 380 224 380 224 379 197 c 1,33,34
 379 49 379 49 538 49 c 0,35,36
 668 49 668 49 807 197 c 1,37,-1
 925 901 l 1,38,-1
 1109 901 l 1,0,-1
EndSplineSet
Validated: 1
EndChar

StartChar: paragraph
Encoding: 182 182 118
Width: 1089
Flags: W
HStem: 0 43<267 382.539 897.693 999> 1128 70<767 871> 1155 43<1076.46 1192>
LayerCount: 2
Fore
SplineSet
884 84 m 1,0,1
 894 43 894 43 1006 43 c 1,2,-1
 999 0 l 1,3,-1
 682 0 l 1,4,-1
 871 1128 l 1,5,-1
 767 1128 l 1,6,-1
 578 0 l 1,7,-1
 260 0 l 1,8,-1
 267 43 l 1,9,10
 379 43 379 43 403 84 c 1,11,-1
 481 549 l 1,12,13
 329 564 329 564 256 651 c 0,14,15
 202 716 202 716 202 809 c 0,16,17
 202 944 202 944 297 1046 c 0,18,19
 438 1198 438 1198 708 1198 c 2,20,-1
 1199 1198 l 1,21,-1
 1192 1155 l 1,22,23
 1080 1155 1080 1155 1056 1114 c 1,24,-1
 884 84 l 1,0,1
EndSplineSet
Validated: 1
EndChar

StartChar: periodcentered
Encoding: 183 183 119
Width: 466
Flags: W
HStem: 492 254<257.509 412.06>
VStem: 212 250<541.432 699.593>
LayerCount: 2
Fore
SplineSet
318 492 m 128,-1,1
 268 492 268 492 240 525 c 128,-1,2
 212 558 212 558 212 607 c 128,-1,3
 212 656 212 656 257.5 701 c 128,-1,4
 303 746 303 746 352 746 c 2,5,-1
 353 746 l 2,6,7
 403 746 403 746 432.5 713.5 c 128,-1,8
 462 681 462 681 462 658 c 0,9,10
 462 585 462 585 415 538.5 c 128,-1,0
 368 492 368 492 318 492 c 128,-1,1
EndSplineSet
Validated: 1
EndChar

StartChar: cedilla
Encoding: 184 184 120
Width: 622
VWidth: 0
Flags: W
HStem: -408 46<61.885 219.404>
VStem: 279 182<-328.697 -186.051>
LayerCount: 2
Back
SplineSet
258 25 m 1
 336 25 l 1
 276 -113 l 1
 340.667 -113 392.667 -131.667 432 -169 c 0
 454.667 -191 464 -214.667 460 -240 c 128
 456 -265.333 449 -286.667 439 -304 c 0
 431 -321.333 417.667 -338 399 -354 c 0
 359 -390 294.667 -408 206 -408 c 0
 164.667 -408 115 -403 57 -393 c 1
 63 -358 l 1
 86.3333 -360.667 103 -362 113 -362 c 0
 165.667 -362 205.167 -352.167 231.5 -332.5 c 128
 257.833 -312.833 273 -290.667 277 -266 c 0
 287 -206 250.667 -176 168 -176 c 1
 258 25 l 1
EndSplineSet
Fore
Refer: 478 807 N 1 0 0 1 807 0 2
Validated: 1
EndChar

StartChar: uni00B9
Encoding: 185 185 121
Width: 495
Flags: W
HStem: 573 48<198 286.517 433.236 510>
VStem: 190 360
LayerCount: 2
Fore
SplineSet
256 1040 m 1,0,1
 264 1050 264 1050 309.5 1113 c 128,-1,2
 355 1176 355 1176 420 1258.5 c 128,-1,3
 485 1341 485 1341 508 1341 c 2,4,-1
 550 1341 l 1,5,-1
 433 641 l 1,6,7
 440 621 440 621 518 621 c 1,8,-1
 510 573 l 1,9,-1
 190 573 l 1,10,-1
 198 621 l 1,11,12
 272 621 272 621 287 641 c 1,13,-1
 362 1085 l 1,14,15
 348 1078 348 1078 335.5 1066.5 c 128,-1,16
 323 1055 323 1055 317.5 1050.5 c 128,-1,17
 312 1046 312 1046 302 1035.5 c 128,-1,18
 292 1025 292 1025 288 1022 c 1,19,-1
 256 1040 l 1,0,1
EndSplineSet
Validated: 1
EndChar

StartChar: ordmasculine
Encoding: 186 186 122
Width: 751
Flags: W
HStem: 264 53<180 669> 440 52<399.203 544.371> 879 53<438.491 584.463>
VStem: 238 119<526.37 802.515> 624 122<572.661 857.656>
LayerCount: 2
Fore
SplineSet
180 317 m 1,0,-1
 678 317 l 1,1,-1
 669 264 l 1,2,-1
 171 264 l 1,3,-1
 180 317 l 1,0,-1
566 538 m 0,4,5
 624 607 624 607 624 741 c 2,6,-1
 624 744 l 2,7,8
 624 879 624 879 505 879 c 0,9,-1
 503 879 l 0,10,11
 454 879 454 879 415 830 c 0,12,13
 357 757 357 757 357 625 c 0,14,15
 357 582 357 582 383.5 537 c 128,-1,16
 410 492 410 492 469 492 c 128,-1,17
 528 492 528 492 566 538 c 0,4,5
746 740 m 1,18,19
 746 598 746 598 649 508 c 0,20,21
 577 440 577 440 456 440 c 128,-1,22
 335 440 335 440 280 511 c 0,23,24
 238 564 238 564 238 639 c 0,25,26
 238 777 238 777 334 865 c 0,27,28
 407 932 407 932 530.5 932 c 128,-1,29
 654 932 654 932 706 864 c 0,30,31
 745 814 745 814 746 740 c 1,18,19
EndSplineSet
Validated: 1
EndChar

StartChar: guillemotright
Encoding: 187 187 123
Width: 894
Flags: W
HStem: 369 487
LayerCount: 2
Fore
SplineSet
555 561 m 2,0,-1
 191 369 l 1,1,-1
 200 422 l 1,2,-1
 409 612 l 1,3,-1
 263 803 l 1,4,-1
 272 856 l 1,5,-1
 572 664 l 2,6,7
 596 650 596 650 589 612 c 0,8,9
 583 574 583 574 555 561 c 2,0,-1
882 561 m 2,10,-1
 519 369 l 1,11,-1
 528 422 l 1,12,-1
 737 612 l 1,13,-1
 591 803 l 1,14,-1
 600 856 l 1,15,-1
 899 664 l 2,16,17
 923 648 923 648 917 612 c 0,18,19
 912 576 912 576 882 561 c 2,10,-1
EndSplineSet
Validated: 1
EndChar

StartChar: onequarter
Encoding: 188 188 124
Width: 1331
Flags: W
HStem: 0 48<937 1025.58 1170.27 1245> 215 60<846 1051 1205 1307> 573 48<186 274.517 421.236 498>
VStem: 178 360 722 595
LayerCount: 2
Back
SplineSet
210 -20 m 1
 1220 1253 l 1
 1273 1217 l 1
 262 -57 l 1
 210 -20 l 1
1288 768 m 1
 1205 274 l 1
 1318 274 l 1
 1308 215 l 1
 1195 215 l 1
 1170 68 l 1
 1175.33 54 1203 47 1253 47 c 1
 1245 0 l 1
 930 0 l 1
 938 47 l 1
 988.669 47 1018.34 54 1027 68 c 1
 1052 215 l 1
 722 215 l 1
 1202 768 l 1
 1288 768 l 1
1062 274 m 1
 1113 582 l 1
 847 274 l 1
 1062 274 l 1
244 1040 m 1
 385.333 1240.67 470.667 1341 500 1341 c 2
 537 1341 l 1
 420 641 l 1
 424.667 627.667 453 621 505 621 c 1
 497 573 l 1
 178 573 l 1
 186 621 l 1
 235.333 621 265 627.667 275 641 c 1
 350 1085 l 1
 335.333 1077 310.333 1056 275 1022 c 1
 244 1040 l 1
EndSplineSet
Fore
Refer: 686 8324 N 1 0 0 1 694 257 2
Refer: 121 185 N 1 0 0 1 -12 0 2
Refer: 16 47 N 1 0 0 1 170 0 2
Validated: 1
EndChar

StartChar: onehalf
Encoding: 189 189 125
Width: 1388
Flags: W
HStem: 0 115<950 1271> 573 48<186 274.517 421.236 498> 677 102<988.498 1205.24>
VStem: 178 360 1230 159<478.36 653.85>
LayerCount: 2
Back
SplineSet
165 -20 m 1
 1175 1253 l 1
 1228 1217 l 1
 217 -57 l 1
 165 -20 l 1
1225 115 m 1
 1240.33 120.333 1257 131 1275 147 c 128
 1293 163 1307.33 181.667 1318 203 c 1
 1363 203 l 1
 1272 0 l 1
 741 0 l 1
 744.333 20 762 44 794 72 c 128
 826 100 864.333 131.833 909 167.5 c 128
 953.667 203.167 998.667 241 1044 281 c 128
 1089.33 321 1131.83 367.833 1171.5 421.5 c 128
 1211.17 475.167 1231 526.333 1231 575 c 0
 1231 601 1223 624.333 1207 645 c 128
 1191 665.667 1163 676 1123 676 c 128
 1083 676 1048.67 671.5 1020 662.5 c 128
 991.333 653.5 969.333 642.5 954 629.5 c 128
 938.66 616.5 925.826 603.667 915.5 591 c 128
 905.167 578.333 896.167 567.5 888.5 558.5 c 128
 880.833 549.5 873.667 545 867 545 c 0
 853.667 545 848.667 554.667 852 574 c 128
 855.333 593.333 869.333 617.5 894 646.5 c 128
 918.667 675.5 942 698.667 964 716 c 0
 1016 757.333 1083.33 778 1166 778 c 128
 1248.67 778 1306.5 761.333 1339.5 728 c 128
 1372.5 694.666 1389 652.833 1389 602.5 c 128
 1389 552.167 1365.83 499.5 1319.5 444.5 c 128
 1273.17 389.5 1226.5 342.667 1179.5 304 c 128
 1132.5 265.333 1085.17 226.833 1037.5 188.5 c 128
 989.833 150.167 961 125.667 951 115 c 1
 1225 115 l 1
248 1040 m 1
 253.333 1046.67 271 1071 301 1113 c 0
 411 1265 477.333 1341 500 1341 c 2
 541 1341 l 1
 424 641 l 1
 428.667 627.667 457.333 621 510 621 c 1
 502 573 l 1
 182 573 l 1
 190 621 l 1
 239.333 621 269 627.667 279 641 c 1
 354 1085 l 1
 344.667 1080.3 335.833 1074.13 327.5 1066.5 c 128
 319.167 1058.83 313.167 1053.5 309.5 1050.5 c 128
 305.831 1047.5 300.664 1042.5 294 1035.5 c 128
 287.331 1028.5 282.664 1024 280 1022 c 1
 248 1040 l 1
EndSplineSet
Fore
Refer: 684 8322 N 1 0 0 1 710 256 2
Refer: 16 47 N 1 0 0 1 126 0 2
Refer: 121 185 N 1 0 0 1 -12 0 2
Validated: 1
EndChar

StartChar: threequarters
Encoding: 190 190 126
Width: 1406
Flags: W
HStem: 0 48<1011 1099.58 1244.27 1319> 215 60<920 1125 1279 1381> 565 62<321.289 540.047> 1249 103<402.544 621.582>
VStem: 174 116<646.922 756.53> 623 137<695.855 921.16> 637 143<1073.79 1233.76> 796 595
LayerCount: 2
Back
SplineSet
304 -20 m 1
 1314 1253 l 1
 1367 1217 l 1
 357 -57 l 1
 304 -20 l 1
1362 768 m 1
 1279 274 l 1
 1392 274 l 1
 1382 215 l 1
 1269 215 l 1
 1244 68 l 1
 1249.33 54 1277 47 1327 47 c 1
 1319 0 l 1
 1004 0 l 1
 1012 47 l 1
 1062.67 47 1092.33 54 1101 68 c 1
 1126 215 l 1
 796 215 l 1
 1276 768 l 1
 1362 768 l 1
1136 274 m 1
 1187 582 l 1
 920 274 l 1
 1136 274 l 1
521 950 m 1
 453 942 l 1
 443.667 942 434.333 946.167 425 954.5 c 128
 415.667 962.833 414.833 970.5 422.5 977.5 c 128
 430.167 984.5 450.333 992.333 483 1001 c 0
 586.333 1029 637.667 1081 637 1157 c 0
 637 1218.33 597.333 1249 518 1249 c 2
 516 1249 l 2
 453.333 1249 408 1236.33 380 1211 c 0
 368 1200.33 355.167 1186 341.5 1168 c 128
 327.833 1150 317 1141 309 1141 c 0
 294.333 1141 288.833 1152 292.5 1174 c 128
 296.167 1196 313.667 1223.33 345 1256 c 0
 405.667 1320 474 1352 550 1352 c 0
 703.333 1352 780.333 1300 781 1196 c 0
 781 1182.67 779.667 1168.33 777 1153 c 0
 767.667 1095.67 725.667 1046.67 651 1006 c 1
 689.667 989.333 717.667 966.5 735 937.5 c 128
 752.333 908.5 761 884.667 761 866 c 0
 761 776 733.333 703.333 678 648 c 128
 622.667 592.667 539 565 427 565 c 0
 425 565 425 565 423 565 c 0
 315 565 236.667 595 188 655 c 0
 178.667 666.333 174 680.667 174 698 c 128
 174 715.333 180.667 732 194 748 c 128
 207.333 764 222.5 772 239.5 772 c 128
 256.5 772 268.167 767 274.5 757 c 128
 280.833 747 286 735 290 721 c 128
 294 707 299.333 692.667 306 678 c 0
 322 644 360.333 627 421 627 c 2
 424 627 l 2
 536 627 601.333 683 620 795 c 0
 622 805.667 623 820 623 838 c 128
 623 856 616.333 879.167 603 907.5 c 128
 589.666 935.833 562.333 950 521 950 c 1
EndSplineSet
Fore
Refer: 115 179 N 1 0 0 1 -17 0 2
Refer: 16 47 N 1 0 0 1 267 0 2
Refer: 686 8324 N 1 0 0 1 768 257 2
Validated: 1
EndChar

StartChar: questiondown
Encoding: 191 191 127
Width: 806
Flags: W
HStem: -225 61<302.643 526.569> 831 254<516.954 673.729>
VStem: 77 178<-119.98 197.544> 469 251<877.407 1036.1> 519 55<587.954 682.977> 623 136<-56.5837 118.893>
LayerCount: 2
Fore
SplineSet
612.5 1085 m 128,-1,1
 663 1085 663 1085 691.5 1052 c 128,-1,2
 720 1019 720 1019 720 970 c 128,-1,3
 720 921 720 921 674.5 876 c 128,-1,4
 629 831 629 831 578.5 831 c 128,-1,5
 528 831 528 831 498.5 864 c 128,-1,6
 469 897 469 897 469 920 c 0,7,8
 469 993 469 993 515.5 1039 c 128,-1,0
 562 1085 562 1085 612.5 1085 c 128,-1,1
255 -7 m 0,9,10
 255 -164 255 -164 404 -164 c 0,11,12
 496 -164 496 -164 559.5 -112.5 c 128,-1,13
 623 -61 623 -61 623 -5 c 0,14,15
 623 14 623 14 614.5 35 c 128,-1,16
 606 56 606 56 606 82.5 c 128,-1,17
 606 109 606 109 632.5 131.5 c 128,-1,18
 659 154 659 154 691 154 c 128,-1,19
 723 154 723 154 741 131.5 c 128,-1,20
 759 109 759 109 759 87.5 c 128,-1,21
 759 66 759 66 753.5 34 c 128,-1,22
 748 2 748 2 721 -45 c 128,-1,23
 694 -92 694 -92 649 -133 c 0,24,25
 549 -225 549 -225 386 -225 c 0,26,27
 288 -225 288 -225 219 -195 c 0,28,29
 77 -133 77 -133 77 36 c 0,30,31
 77 180 77 180 208 308 c 0,32,33
 283 382 283 382 366.5 456 c 128,-1,34
 450 530 450 530 482.5 573.5 c 128,-1,35
 515 617 515 617 519 641 c 128,-1,36
 523 665 523 665 533.5 674.5 c 128,-1,37
 544 684 544 684 552 684 c 128,-1,38
 560 684 560 684 568 674.5 c 128,-1,39
 576 665 576 665 574 652 c 0,40,41
 555 538 555 538 461 425 c 0,42,43
 421 378 421 378 381 328 c 0,44,45
 255 173 255 173 255 -7 c 0,9,10
EndSplineSet
Validated: 1
EndChar

StartChar: Agrave
Encoding: 192 192 128
Width: 1118
Flags: W
HStem: 0 43<-9 105.412 215.762 319 695 813.072 1034.27 1137> 381 68<399 743> 1178 20<699.514 811.813> 1270 332
VStem: 518 313
LayerCount: 2
Back
SplineSet
688 0 m 1
 695.195 43 l 1
 757.863 43 798.925 51.3333 818.379 68 c 1
 755.758 381 l 1
 362.758 381 l 1
 206.388 80 l 1
 211.378 66 222.427 56.3333 239.534 51 c 128
 256.642 45.6667 285.529 43 326.195 43 c 1
 319 0 l 1
 -16 0 l 1
 -8.80469 43 l 1
 66.5287 43 111.927 57.3333 127.392 86 c 2
 710.477 1198 l 1
 808.477 1198 l 1
 1020.39 86 l 2
 1025.6 57.3333 1066.87 43 1144.2 43 c 1
 1137 0 l 1
 688 0 l 1
648.959 926 m 1
 399.137 449 l 1
 743.137 449 l 1
 648.959 926 l 1
735.083 1602 m 1
 831.525 1270 l 1
 777.525 1270 l 1
 518.083 1602 l 1
 735.083 1602 l 1
EndSplineSet
Fore
Refer: 448 768 S 1 0 0 1 1127 246 2
Refer: 34 65 N 1 0 0 1 0 0 3
Validated: 1
EndChar

StartChar: Aacute
Encoding: 193 193 129
Width: 1118
Flags: W
HStem: 0 43<-9 105.412 215.762 319 695 813.072 1034.27 1137> 381 68<399 743> 1178 20<699.514 811.813> 1270 332
VStem: 752 425
LayerCount: 2
Back
SplineSet
688 0 m 1
 695.195 43 l 1
 757.863 43 798.925 51.3333 818.379 68 c 1
 755.758 381 l 1
 362.758 381 l 1
 206.388 80 l 1
 211.378 66 222.427 56.3333 239.534 51 c 128
 256.642 45.6667 285.529 43 326.195 43 c 1
 319 0 l 1
 -16 0 l 1
 -8.80469 43 l 1
 66.5287 43 111.927 57.3333 127.392 86 c 2
 710.477 1198 l 1
 808.477 1198 l 1
 1020.39 86 l 2
 1025.6 57.3333 1066.87 43 1144.2 43 c 1
 1137 0 l 1
 688 0 l 1
648.959 926 m 1
 399.137 449 l 1
 743.137 449 l 1
 648.959 926 l 1
958.083 1602 m 1
 1176.08 1602 l 1
 804.525 1270 l 1
 751.525 1270 l 1
 958.083 1602 l 1
EndSplineSet
Fore
Refer: 449 769 S 1 0 0 1 1128 246 2
Refer: 34 65 N 1 0 0 1 0 0 3
Validated: 1
EndChar

StartChar: Acircumflex
Encoding: 194 194 130
Width: 1118
Flags: W
HStem: 0 43<-9 105.412 215.762 319 695 813.072 1034.27 1137> 381 68<399 743> 1178 20<699.514 811.813> 1270 332
VStem: 534 488
LayerCount: 2
Back
SplineSet
688 0 m 1
 695.195 43 l 1
 757.863 43 798.925 51.3333 818.379 68 c 1
 755.758 381 l 1
 362.758 381 l 1
 206.388 80 l 1
 211.378 66 222.427 56.3333 239.534 51 c 128
 256.642 45.6667 285.529 43 326.195 43 c 1
 319 0 l 1
 -16 0 l 1
 -8.80469 43 l 1
 66.5287 43 111.927 57.3333 127.392 86 c 2
 710.477 1198 l 1
 808.477 1198 l 1
 1020.39 86 l 2
 1025.6 57.3333 1066.87 43 1144.2 43 c 1
 1137 0 l 1
 688 0 l 1
648.959 926 m 1
 399.137 449 l 1
 743.137 449 l 1
 648.959 926 l 1
885.083 1602 m 1
 1021.53 1270 l 1
 968.525 1270 l 1
 808.312 1448 l 1
 587.525 1270 l 1
 534.525 1270 l 1
 782.083 1602 l 1
 885.083 1602 l 1
EndSplineSet
Fore
Refer: 450 770 S 1 0 0 1 1127 246 2
Refer: 34 65 N 1 0 0 1 0 0 3
Validated: 1
EndChar

StartChar: Atilde
Encoding: 195 195 131
Width: 1118
Flags: W
HStem: 0 43<-9 105.412 215.762 319 695 813.072 1034.27 1137> 381 68<399 743> 1178 20<699.514 811.813> 1270 109<854.703 1047.38> 1391 108<550.52 742.893>
VStem: 472 39<1270 1329.16> 1088 39<1440.41 1499>
LayerCount: 2
Back
SplineSet
688 0 m 1
 695.195 43 l 1
 757.863 43 798.925 51.3333 818.379 68 c 1
 755.758 381 l 1
 362.758 381 l 1
 206.388 80 l 1
 211.378 66 222.427 56.3333 239.534 51 c 128
 256.642 45.6667 285.529 43 326.195 43 c 1
 319 0 l 1
 -16 0 l 1
 -8.80469 43 l 1
 66.5287 43 111.927 57.3333 127.392 86 c 2
 710.477 1198 l 1
 808.477 1198 l 1
 1020.39 86 l 2
 1025.6 57.3333 1066.87 43 1144.2 43 c 1
 1137 0 l 1
 688 0 l 1
648.959 926 m 1
 399.137 449 l 1
 743.137 449 l 1
 648.959 926 l 1
991.031 1279 m 0
 973.361 1273 951.525 1270 925.525 1270 c 128
 899.525 1270 849.067 1290.17 774.149 1330.5 c 128
 699.232 1370.83 652.44 1391 633.773 1391 c 0
 595.107 1391 566.767 1381 548.753 1361 c 128
 530.74 1341 518.331 1310.67 511.525 1270 c 1
 472.525 1270 l 1
 493.164 1393.34 538.103 1466.67 607.341 1490 c 0
 625.011 1496 646.847 1499 672.847 1499 c 128
 698.847 1499 749.5 1479 824.806 1439 c 128
 900.112 1399 947.099 1379 965.766 1379 c 0
 1004.43 1379 1032.74 1388.83 1050.7 1408.5 c 128
 1068.66 1428.17 1081.04 1458.33 1087.85 1499 c 1
 1126.85 1499 l 1
 1106.32 1376.33 1061.05 1303 991.031 1279 c 0
EndSplineSet
Fore
Refer: 451 771 S 1 0 0 1 1126 246 2
Refer: 34 65 N 1 0 0 1 0 0 3
Validated: 1
EndChar

StartChar: Adieresis
Encoding: 196 196 132
Width: 1118
Flags: W
HStem: 0 43<-9 105.412 215.762 319 695 813.072 1034.27 1137> 381 68<399 743> 1178 20<699.514 811.813> 1270 201<532.409 668.265 909.409 1045.27>
VStem: 505 204<1304.04 1442.32> 882 204<1304.04 1442.32>
LayerCount: 2
Back
SplineSet
688 0 m 1
 695.195 43 l 1
 757.863 43 798.925 51.3333 818.379 68 c 1
 755.758 381 l 1
 362.758 381 l 1
 206.388 80 l 1
 211.378 66 222.427 56.3333 239.534 51 c 128
 256.642 45.6667 285.529 43 326.195 43 c 1
 319 0 l 1
 -16 0 l 1
 -8.80469 43 l 1
 66.5287 43 111.927 57.3333 127.392 86 c 2
 710.477 1198 l 1
 808.477 1198 l 1
 1020.39 86 l 2
 1025.6 57.3333 1066.87 43 1144.2 43 c 1
 1137 0 l 1
 688 0 l 1
648.959 926 m 1
 399.137 449 l 1
 743.137 449 l 1
 648.959 926 l 1
883.26 1370 m 128
 887.833 1397.33 901.627 1421 924.641 1441 c 128
 947.654 1461 972.828 1471 1000.16 1471 c 128
 1027.5 1471 1049.32 1461 1065.64 1441 c 128
 1081.96 1421 1087.83 1397.33 1083.26 1370 c 128
 1078.69 1342.67 1064.92 1319.17 1041.96 1299.5 c 128
 1019 1279.83 993.859 1270 966.525 1270 c 128
 939.192 1270 917.338 1279.83 900.962 1299.5 c 128
 884.586 1319.17 878.686 1342.67 883.26 1370 c 128
506.26 1370 m 128
 510.833 1397.33 524.627 1421 547.641 1441 c 128
 570.654 1461 595.828 1471 623.161 1471 c 128
 650.494 1471 672.488 1461 689.141 1441 c 128
 705.799 1421 711.839 1397.33 707.26 1370 c 128
 702.686 1342.67 688.753 1319.17 665.462 1299.5 c 128
 642.171 1279.83 616.859 1270 589.525 1270 c 128
 562.192 1270 540.338 1279.83 523.962 1299.5 c 128
 507.586 1319.17 501.686 1342.67 506.26 1370 c 128
EndSplineSet
Fore
Refer: 456 776 S 1 0 0 1 1127 246 2
Refer: 34 65 N 1 0 0 1 0 0 3
Validated: 1
EndChar

StartChar: Aring
Encoding: 197 197 133
Width: 1118
Flags: W
HStem: 0 43<-9 105.412 215.762 319 695 813.072 1034.27 1137> 381 68<399 743> 1178 20<699.514 811.813> 1227 88<719.82 874.687> 1508 88<729.335 882.921>
VStem: 614 90<1332.02 1482.12> 899 90<1340.67 1491.09>
LayerCount: 2
Back
SplineSet
688 0 m 1
 695.195 43 l 1
 757.863 43 798.925 51.3333 818.379 68 c 1
 755.758 381 l 1
 362.758 381 l 1
 206.388 80 l 1
 211.378 66 222.427 56.3333 239.534 51 c 128
 256.642 45.6667 285.529 43 326.195 43 c 1
 319 0 l 1
 -16 0 l 1
 -8.80469 43 l 1
 66.5287 43 111.927 57.3333 127.392 86 c 2
 710.477 1198 l 1
 808.477 1198 l 1
 1020.39 86 l 2
 1025.6 57.3333 1066.87 43 1144.2 43 c 1
 1137 0 l 1
 688 0 l 1
648.959 926 m 1
 399.137 449 l 1
 743.137 449 l 1
 648.959 926 l 1
705.12 1411 m 128
 700.658 1384.33 706.198 1361.66 721.741 1343 c 128
 737.284 1324.33 758.389 1315 785.056 1315 c 128
 811.725 1315 836.121 1324.33 858.241 1343 c 128
 880.365 1361.67 893.658 1384.33 898.12 1411 c 128
 902.583 1437.67 896.904 1460.5 881.083 1479.5 c 128
 865.263 1498.5 844.019 1508 817.353 1508 c 128
 790.686 1508 766.429 1498.5 744.583 1479.5 c 128
 722.737 1460.5 709.583 1437.67 705.12 1411 c 128
617.12 1411 m 128
 625.822 1463 650.824 1506.83 692.126 1542.5 c 128
 733.428 1578.17 780.079 1596 832.079 1596 c 128
 884.079 1596 924.928 1578.17 954.626 1542.5 c 128
 984.324 1506.83 994.822 1463 986.12 1411 c 128
 977.418 1359 952.278 1315.33 910.698 1280 c 128
 869.119 1244.67 822.329 1227 770.329 1227 c 128
 718.329 1227 677.619 1244.67 648.198 1280 c 128
 618.778 1315.33 608.418 1359 617.12 1411 c 128
EndSplineSet
Fore
Refer: 458 778 S 1 0 0 1 1127 246 2
Refer: 34 65 N 1 0 0 1 0 0 3
Validated: 1
EndChar

StartChar: AE
Encoding: 198 198 134
Width: 1550
Flags: W
HStem: 0 70<927 1441.12> 0 43<-38 75.1133 189.812 291 605 720.539> 381 68<446 791> 588 69<1025 1323.88> 1128 70<1104 1551.63> 1155 43<755 861.326>
VStem: 1547 43<999 1075.24>
AnchorPoint: "top" 1040 1270 basechar 0
LayerCount: 2
Fore
SplineSet
177 80 m 1,0,1
 191 43 191 43 298 43 c 1,2,-1
 291 0 l 1,3,-1
 -45 0 l 1,4,-1
 -38 43 l 1,5,6
 68 43 68 43 98 84 c 2,7,-1
 862 1133 l 1,8,9
 841 1155 841 1155 748 1155 c 1,10,-1
 755 1198 l 1,11,-1
 1623 1198 l 1,12,-1
 1590 999 l 1,13,-1
 1547 999 l 1,14,15
 1553 1036 1553 1036 1553 1076.5 c 128,-1,16
 1553 1117 1553 1117 1528 1128 c 1,17,-1
 1104 1128 l 1,18,-1
 1025 657 l 1,19,-1
 1312 657 l 1,20,21
 1356 674 1356 674 1375 786 c 1,22,-1
 1418 786 l 1,23,-1
 1363 459 l 1,24,-1
 1320 459 l 1,25,26
 1326 496 1326 496 1326 536.5 c 128,-1,27
 1326 577 1326 577 1300 588 c 1,28,-1
 1013 588 l 1,29,-1
 927 70 l 1,30,-1
 1394 70 l 1,31,32
 1449 91 1449 91 1508 199 c 1,33,-1
 1549 199 l 1,34,-1
 1466 0 l 1,35,-1
 598 0 l 1,36,-1
 605 43 l 1,37,38
 717 43 717 43 741 84 c 1,39,-1
 791 381 l 1,40,-1
 396 381 l 1,41,-1
 177 80 l 1,0,1
446 449 m 1,42,-1
 802 449 l 1,43,-1
 909 1085 l 1,44,-1
 446 449 l 1,42,-1
EndSplineSet
Validated: 1
EndChar

StartChar: Ccedilla
Encoding: 199 199 135
Width: 1150
UnlinkRmOvrlpSave: 1
Flags: W
HStem: -408 46<443.885 601.404> -20 69<578.97 870.88> 1149 70<737.812 1052.24> 1178 20<1155 1206>
VStem: 173 217<251.744 717.878> 661 182<-328.697 -186.051> 1138 45<938 1044.09> 1158 48<1157.81 1198>
LayerCount: 2
Back
SplineSet
1131.62 1157 m 0
 1148.28 1157 1158.9 1170.67 1163.48 1198 c 1
 1210.48 1198 l 1
 1186.97 938 l 1
 1141.97 938 l 1
 1143.68 1000 1125.32 1050.67 1086.9 1090 c 128
 1048.49 1129.33 987.943 1149 905.276 1149 c 1
 903.611 1151 l 1
 785.611 1151 679.662 1102.5 585.763 1005.5 c 128
 491.864 908.5 432.03 783 406.259 629 c 0
 390.863 537 388.584 453.667 399.423 379 c 0
 410.149 303.667 431.275 242.667 462.799 196 c 0
 527.956 99.3333 616.201 51 727.534 51 c 0
 795.534 51 866.967 74.5 941.832 121.5 c 128
 1016.7 168.5 1068.26 218.667 1096.52 272 c 1
 1141.5 248 l 1
 1103.01 181.333 1050.64 123.333 984.384 74 c 0
 907.456 16.6667 812.324 -14 698.988 -18 c 1
 659.425 -111 l 1
 724.091 -111 775.968 -129.667 815.054 -167 c 0
 838.039 -189 847.384 -212.833 843.089 -238.5 c 128
 838.794 -264.167 832.057 -285.5 822.879 -302.5 c 128
 813.701 -319.5 799.773 -336 781.096 -352 c 0
 741.071 -388 677.059 -406 589.059 -406 c 0
 547.059 -406 497.562 -401 440.569 -391 c 1
 446.426 -356 l 1
 469.98 -358.667 486.757 -360 496.757 -360 c 0
 549.424 -360 588.902 -350.167 615.193 -330.5 c 128
 641.484 -310.833 656.694 -288.667 660.821 -264 c 0
 670.862 -204 634.216 -174 550.883 -174 c 1
 622.322 -16 l 1
 539.438 -9.33333 466.619 11.6667 403.865 47 c 128
 341.111 82.3333 292.308 127.333 257.456 182 c 0
 185.2 296 161.846 429.333 187.394 582 c 0
 203.458 678 235.629 766.667 283.906 848 c 128
 332.184 929.333 389.452 996.667 455.71 1050 c 0
 596.563 1162.67 749.657 1219 914.99 1219 c 0
 960.99 1219 1006.26 1208.67 1050.8 1188 c 128
 1095.34 1167.33 1122.28 1157 1131.62 1157 c 0
EndSplineSet
Fore
Refer: 478 807 S 1 0 0 1 1189 0 2
Refer: 36 67 N 1 0 0 1 0 0 3
EndChar

StartChar: Egrave
Encoding: 200 200 136
Width: 1038
Flags: W
HStem: 0 43<93 208.539> 0 70<415 929.118> 588 69<513 811.881> 1128 70<592 1039.63> 1155 43<286 387.307> 1270 332
VStem: 502 313 1035 43<999 1075.24>
LayerCount: 2
Back
SplineSet
807.811 459 m 1
 820.299 533.667 813.828 576.667 788.397 588 c 1
 501.397 588 l 1
 414.714 70 l 1
 881.714 70 l 1
 918.057 84 956.253 127 996.301 199 c 1
 1037.3 199 l 1
 954 0 l 1
 86 0 l 1
 93.1953 43 l 1
 167.862 43 213.149 56.6667 229.057 84 c 1
 401.42 1114 l 1
 394.66 1141.33 353.947 1155 279.28 1155 c 1
 286.477 1198 l 1
 1111.48 1198 l 1
 1078.18 999 l 1
 1035.18 999 l 1
 1047.67 1073.67 1041.2 1116.67 1015.76 1128 c 1
 591.763 1128 l 1
 512.944 657 l 1
 799.944 657 l 1
 829.174 668.333 850.036 711.333 862.531 786 c 1
 905.531 786 l 1
 850.811 459 l 1
 807.811 459 l 1
719.083 1602 m 1
 815.525 1270 l 1
 761.525 1270 l 1
 502.083 1602 l 1
 719.083 1602 l 1
EndSplineSet
Fore
Refer: 448 768 S 1 0 0 1 1111 246 2
Refer: 38 69 N 1 0 0 1 0 0 3
Validated: 1
EndChar

StartChar: Eacute
Encoding: 201 201 137
Width: 1038
Flags: W
HStem: 0 43<93 208.539> 0 70<415 929.118> 588 69<513 811.881> 1128 70<592 1039.63> 1155 43<286 387.307> 1270 332
VStem: 734 425 1035 43<999 1075.24>
LayerCount: 2
Back
SplineSet
807.811 459 m 1
 820.299 533.667 813.828 576.667 788.397 588 c 1
 501.397 588 l 1
 414.714 70 l 1
 881.714 70 l 1
 918.057 84 956.253 127 996.301 199 c 1
 1037.3 199 l 1
 954 0 l 1
 86 0 l 1
 93.1953 43 l 1
 167.862 43 213.149 56.6667 229.057 84 c 1
 401.42 1114 l 1
 394.66 1141.33 353.947 1155 279.28 1155 c 1
 286.477 1198 l 1
 1111.48 1198 l 1
 1078.18 999 l 1
 1035.18 999 l 1
 1047.67 1073.67 1041.2 1116.67 1015.76 1128 c 1
 591.763 1128 l 1
 512.944 657 l 1
 799.944 657 l 1
 829.174 668.333 850.036 711.333 862.531 786 c 1
 905.531 786 l 1
 850.811 459 l 1
 807.811 459 l 1
941.083 1602 m 1
 1159.08 1602 l 1
 787.525 1270 l 1
 734.525 1270 l 1
 941.083 1602 l 1
EndSplineSet
Fore
Refer: 449 769 S 1 0 0 1 1110 246 2
Refer: 38 69 N 1 0 0 1 0 0 3
Validated: 1
EndChar

StartChar: Ecircumflex
Encoding: 202 202 138
Width: 1038
Flags: W
HStem: 0 43<93 208.539> 0 70<415 929.118> 588 69<513 811.881> 1128 70<592 1039.63> 1155 43<286 387.307> 1270 332
VStem: 517 488 1035 43<999 1075.24>
LayerCount: 2
Back
SplineSet
807.811 459 m 1
 820.299 533.667 813.828 576.667 788.397 588 c 1
 501.397 588 l 1
 414.714 70 l 1
 881.714 70 l 1
 918.057 84 956.253 127 996.301 199 c 1
 1037.3 199 l 1
 954 0 l 1
 86 0 l 1
 93.1953 43 l 1
 167.862 43 213.149 56.6667 229.057 84 c 1
 401.42 1114 l 1
 394.66 1141.33 353.947 1155 279.28 1155 c 1
 286.477 1198 l 1
 1111.48 1198 l 1
 1078.18 999 l 1
 1035.18 999 l 1
 1047.67 1073.67 1041.2 1116.67 1015.76 1128 c 1
 591.763 1128 l 1
 512.944 657 l 1
 799.944 657 l 1
 829.174 668.333 850.036 711.333 862.531 786 c 1
 905.531 786 l 1
 850.811 459 l 1
 807.811 459 l 1
868.083 1602 m 1
 1004.53 1270 l 1
 951.525 1270 l 1
 791.312 1448 l 1
 570.525 1270 l 1
 517.525 1270 l 1
 765.083 1602 l 1
 868.083 1602 l 1
EndSplineSet
Fore
Refer: 450 770 S 1 0 0 1 1110 246 2
Refer: 38 69 N 1 0 0 1 0 0 3
Validated: 1
EndChar

StartChar: Edieresis
Encoding: 203 203 139
Width: 1038
Flags: W
HStem: 0 43<93 208.539> 0 70<415 929.118> 588 69<513 811.881> 1128 70<592 1039.63> 1155 43<286 387.307> 1270 201<515.409 651.265 892.409 1028.27>
VStem: 488 204<1304.04 1442.32> 865 204<1304.04 1442.32> 1035 43<999 1075.24>
LayerCount: 2
Back
SplineSet
807.811 459 m 1
 820.299 533.667 813.828 576.667 788.397 588 c 1
 501.397 588 l 1
 414.714 70 l 1
 881.714 70 l 1
 918.057 84 956.253 127 996.301 199 c 1
 1037.3 199 l 1
 954 0 l 1
 86 0 l 1
 93.1953 43 l 1
 167.862 43 213.149 56.6667 229.057 84 c 1
 401.42 1114 l 1
 394.66 1141.33 353.947 1155 279.28 1155 c 1
 286.477 1198 l 1
 1111.48 1198 l 1
 1078.18 999 l 1
 1035.18 999 l 1
 1047.67 1073.67 1041.2 1116.67 1015.76 1128 c 1
 591.763 1128 l 1
 512.944 657 l 1
 799.944 657 l 1
 829.174 668.333 850.036 711.333 862.531 786 c 1
 905.531 786 l 1
 850.811 459 l 1
 807.811 459 l 1
866.26 1370 m 128
 870.833 1397.33 884.627 1421 907.641 1441 c 128
 930.654 1461 955.828 1471 983.161 1471 c 128
 1010.49 1471 1032.32 1461 1048.64 1441 c 128
 1064.96 1421 1070.83 1397.33 1066.26 1370 c 128
 1061.69 1342.67 1047.92 1319.17 1024.96 1299.5 c 128
 1002 1279.83 976.859 1270 949.525 1270 c 128
 922.192 1270 900.338 1279.83 883.962 1299.5 c 128
 867.586 1319.17 861.686 1342.67 866.26 1370 c 128
489.26 1370 m 128
 493.833 1397.33 507.627 1421 530.641 1441 c 128
 553.654 1461 578.828 1471 606.161 1471 c 128
 633.494 1471 655.488 1461 672.141 1441 c 128
 688.799 1421 694.839 1397.33 690.26 1370 c 128
 685.686 1342.67 671.753 1319.17 648.462 1299.5 c 128
 625.171 1279.83 599.859 1270 572.525 1270 c 128
 545.192 1270 523.338 1279.83 506.962 1299.5 c 128
 490.586 1319.17 484.686 1342.67 489.26 1370 c 128
EndSplineSet
Fore
Refer: 456 776 S 1 0 0 1 1110 246 2
Refer: 38 69 N 1 0 0 1 0 0 3
Validated: 1
EndChar

StartChar: Igrave
Encoding: 204 204 140
Width: 618
Flags: W
HStem: 0 43<93 208.539 430.693 532> 1155 43<286 387.307 609.461 725> 1270 332
VStem: 86 646 258 313
LayerCount: 2
Back
SplineSet
417.057 84 m 1
 423.816 56.6667 464.529 43 539.195 43 c 1
 532 0 l 1
 86 0 l 1
 93.1953 43 l 1
 167.862 43 213.149 56.6667 229.057 84 c 1
 401.42 1114 l 1
 394.66 1141.33 353.947 1155 279.28 1155 c 1
 286.477 1198 l 1
 732.477 1198 l 1
 725.28 1155 l 1
 650.614 1155 605.327 1141.33 589.42 1114 c 1
 417.057 84 l 1
475.083 1602 m 1
 571.525 1270 l 1
 517.525 1270 l 1
 258.083 1602 l 1
 475.083 1602 l 1
EndSplineSet
Fore
Refer: 448 768 N 1 0 0 1 867 246 2
Refer: 42 73 N 1 0 0 1 0 0 3
Validated: 1
EndChar

StartChar: Iacute
Encoding: 205 205 141
Width: 618
Flags: W
HStem: 0 43<93 208.539 430.693 532> 1155 43<286 387.307 609.461 725> 1270 332
VStem: 86 646 491 425
LayerCount: 2
Back
SplineSet
417.057 84 m 1
 423.816 56.6667 464.529 43 539.195 43 c 1
 532 0 l 1
 86 0 l 1
 93.1953 43 l 1
 167.862 43 213.149 56.6667 229.057 84 c 1
 401.42 1114 l 1
 394.66 1141.33 353.947 1155 279.28 1155 c 1
 286.477 1198 l 1
 732.477 1198 l 1
 725.28 1155 l 1
 650.614 1155 605.327 1141.33 589.42 1114 c 1
 417.057 84 l 1
698.083 1602 m 1
 916.083 1602 l 1
 544.525 1270 l 1
 491.525 1270 l 1
 698.083 1602 l 1
EndSplineSet
Fore
Refer: 449 769 N 1 0 0 1 867 246 2
Refer: 42 73 N 1 0 0 1 0 0 3
Validated: 1
EndChar

StartChar: Icircumflex
Encoding: 206 206 142
Width: 618
Flags: W
HStem: 0 43<93 208.539 430.693 532> 1155 43<286 387.307 609.461 725> 1270 332
VStem: 86 646 274 488
LayerCount: 2
Back
SplineSet
417.057 84 m 1
 423.816 56.6667 464.529 43 539.195 43 c 1
 532 0 l 1
 86 0 l 1
 93.1953 43 l 1
 167.862 43 213.149 56.6667 229.057 84 c 1
 401.42 1114 l 1
 394.66 1141.33 353.947 1155 279.28 1155 c 1
 286.477 1198 l 1
 732.477 1198 l 1
 725.28 1155 l 1
 650.614 1155 605.327 1141.33 589.42 1114 c 1
 417.057 84 l 1
625.083 1602 m 1
 761.525 1270 l 1
 708.525 1270 l 1
 548.312 1448 l 1
 327.525 1270 l 1
 274.525 1270 l 1
 522.083 1602 l 1
 625.083 1602 l 1
EndSplineSet
Fore
Refer: 450 770 N 1 0 0 1 867 246 2
Refer: 42 73 N 1 0 0 1 0 0 3
Validated: 1
EndChar

StartChar: Idieresis
Encoding: 207 207 143
Width: 618
Flags: W
HStem: 0 43<93 208.539 430.693 532> 1155 43<286 387.307 609.461 725> 1270 201<272.409 408.265 649.409 785.265>
VStem: 86 646 245 204<1304.04 1442.32> 622 204<1304.04 1442.32>
LayerCount: 2
Back
SplineSet
417.057 84 m 1
 423.816 56.6667 464.529 43 539.195 43 c 1
 532 0 l 1
 86 0 l 1
 93.1953 43 l 1
 167.862 43 213.149 56.6667 229.057 84 c 1
 401.42 1114 l 1
 394.66 1141.33 353.947 1155 279.28 1155 c 1
 286.477 1198 l 1
 732.477 1198 l 1
 725.28 1155 l 1
 650.614 1155 605.327 1141.33 589.42 1114 c 1
 417.057 84 l 1
623.26 1370 m 128
 627.833 1397.33 641.627 1421 664.641 1441 c 128
 687.654 1461 712.828 1471 740.161 1471 c 128
 767.494 1471 789.321 1461 805.641 1441 c 128
 821.96 1421 827.833 1397.33 823.26 1370 c 128
 818.686 1342.67 804.92 1319.17 781.962 1299.5 c 128
 759.004 1279.83 733.859 1270 706.525 1270 c 128
 679.192 1270 657.338 1279.83 640.962 1299.5 c 128
 624.586 1319.17 618.686 1342.67 623.26 1370 c 128
246.26 1370 m 128
 250.833 1397.33 264.627 1421 287.641 1441 c 128
 310.654 1461 335.828 1471 363.161 1471 c 128
 390.494 1471 412.488 1461 429.141 1441 c 128
 445.794 1421 451.833 1397.33 447.26 1370 c 128
 442.686 1342.67 428.753 1319.17 405.462 1299.5 c 128
 382.171 1279.83 356.859 1270 329.525 1270 c 128
 302.192 1270 280.338 1279.83 263.962 1299.5 c 128
 247.586 1319.17 241.686 1342.67 246.26 1370 c 128
EndSplineSet
Fore
Refer: 456 776 S 1 0 0 1 867 246 2
Refer: 42 73 N 1 0 0 1 0 0 3
Validated: 1
EndChar

StartChar: Eth
Encoding: 208 208 144
Width: 1243
Flags: W
HStem: -2 70<406 726.984> -2 43<85 200.539> 1137 61<271.541 503 595 869.553>
VStem: 198 43<1008 1087.82> 1061 203<473.125 872.092>
LayerCount: 2
Fore
SplineSet
303 1137 m 1,0,1
 259 1120 259 1120 241 1008 c 1,2,-1
 198 1008 l 1,3,-1
 229 1198 l 1,4,-1
 513 1198 l 1,5,-1
 537 1341 l 1,6,-1
 619 1341 l 1,7,-1
 595 1198 l 1,8,-1
 749 1198 l 2,9,10
 1022 1198 1022 1198 1160 1032 c 0,11,12
 1264 907 1264 907 1264 724 c 0,13,14
 1264 666 1264 666 1253 600 c 0,15,16
 1208 334 1208 334 1019 166 c 128,-1,17
 830 -2 830 -2 573 -2 c 2,18,-1
 78 -2 l 1,19,-1
 85 41 l 1,20,21
 197 41 197 41 221 82 c 1,22,-1
 260 315 l 2,23,24
 333 747 333 747 707 877 c 0,25,26
 845 925 845 925 1029 936 c 1,27,28
 990 1037 990 1037 912 1087 c 128,-1,29
 834 1137 834 1137 739 1137 c 2,30,-1
 585 1137 l 1,31,-1
 556 963 l 1,32,-1
 474 963 l 1,33,-1
 503 1137 l 1,34,-1
 303 1137 l 1,0,1
1047 874 m 1,35,36
 658 849 658 849 517 569 c 0,37,38
 477 489 477 489 461 393 c 2,39,-1
 406 68 l 1,40,-1
 584 68 l 2,41,42
 694 68 694 68 800 144 c 0,43,44
 995 283 995 283 1048 598 c 0,45,46
 1061 675 1061 675 1061 744 c 128,-1,47
 1061 813 1061 813 1047 874 c 1,35,36
EndSplineSet
Validated: 1
Substitution2: "'ss09' D with stroke through bowl subtable" Eth.ss09
Substitution2: "'locl' Localized Eth Forms subtable" Dafrican
EndChar

StartChar: Ntilde
Encoding: 209 209 145
Width: 1304
Flags: W
HStem: 0 43<93 208.539 312.693 414> 1155 43<286 387.307 1109 1210.31 1314.46 1430> 1270 109<940.703 1133.38> 1391 108<636.52 828.893>
VStem: 558 39<1270 1329.16> 1174 39<1440.41 1499>
LayerCount: 2
Back
SplineSet
299.057 84 m 1
 305.816 56.6667 346.529 43 421.195 43 c 1
 414 0 l 1
 86 0 l 1
 93.1953 43 l 1
 167.862 43 213.149 56.6667 229.057 84 c 1
 401.42 1114 l 1
 394.66 1141.33 353.947 1155 279.28 1155 c 1
 286.477 1198 l 1
 560.477 1198 l 1
 1098.24 360 l 1
 1224.42 1114 l 1
 1217.66 1141.33 1176.95 1155 1102.28 1155 c 1
 1109.48 1198 l 1
 1437.48 1198 l 1
 1430.28 1155 l 1
 1355.61 1155 1310.33 1141.33 1294.42 1114 c 1
 1108 0 l 1
 1090 0 l 1
 455.354 1018 l 1
 299.057 84 l 1
1077.03 1279 m 0
 1059.36 1273 1037.53 1270 1011.53 1270 c 128
 985.525 1270 935.067 1290.17 860.149 1330.5 c 128
 785.232 1370.83 738.44 1391 719.773 1391 c 0
 681.107 1391 652.767 1381 634.753 1361 c 128
 616.74 1341 604.331 1310.67 597.525 1270 c 1
 558.525 1270 l 1
 579.164 1393.34 624.103 1466.67 693.341 1490 c 0
 711.011 1496 732.847 1499 758.847 1499 c 128
 784.847 1499 835.5 1479 910.806 1439 c 128
 986.112 1399 1033.1 1379 1051.77 1379 c 0
 1090.43 1379 1118.74 1388.83 1136.7 1408.5 c 128
 1154.66 1428.17 1167.04 1458.33 1173.85 1499 c 1
 1212.85 1499 l 1
 1192.32 1376.33 1147.05 1303 1077.03 1279 c 0
EndSplineSet
Fore
Refer: 451 771 N 1 0 0 1 1212 246 2
Refer: 47 78 N 1 0 0 1 0 0 3
Validated: 1
EndChar

StartChar: Ograve
Encoding: 210 210 146
Width: 1312
Flags: W
HStem: -20 69<544.265 817.961> 1149 70<694.656 970.623> 1270 332
VStem: 178 207<251.713 723.5> 610 313 1131 205<462.918 948.548>
LayerCount: 2
Back
SplineSet
397.414 612 m 0
 388.932 561.333 384.841 510 385.143 458 c 128
 385.441 406 391.462 355.333 403.207 306 c 128
 414.951 256.667 431.811 213 453.785 175 c 128
 475.76 137 505.655 106.5 543.473 83.5 c 128
 581.291 60.5 624.867 49 674.2 49 c 128
 723.534 49 770.374 60 814.722 82 c 128
 859.07 104 897.534 132.667 930.113 168 c 0
 961.471 204 990.388 245.333 1016.86 292 c 0
 1066.26 380 1099.77 476.667 1117.39 582 c 0
 1146.85 758 1127.39 904.667 1059.02 1022 c 0
 1009.86 1106.67 937.276 1149 841.276 1149 c 0
 701.943 1149 587.333 1067.67 497.445 905 c 0
 448.942 818.333 415.933 722.667 398.418 618 c 0
 397.916 615 397.916 615 397.414 612 c 0
208.113 290.5 m 128
 177.454 384.167 170.269 479.667 186.557 577 c 128
 202.844 674.333 231.125 760.667 271.398 836 c 128
 311.672 911.333 360.883 977.333 419.032 1034 c 128
 477.182 1090.67 544.712 1135.67 621.623 1169 c 128
 698.534 1202.33 784.99 1219 880.99 1219 c 128
 976.991 1219 1064.06 1190.5 1142.18 1133.5 c 128
 1220.31 1076.5 1274.98 1000.83 1306.2 906.5 c 128
 1337.41 812.167 1343.7 709.333 1325.07 598 c 128
 1306.44 486.667 1265.45 384.167 1202.11 290.5 c 128
 1138.77 196.833 1058.69 121.667 961.877 65 c 128
 865.061 8.33333 761.82 -20 652.153 -20 c 128
 542.487 -20 448.728 8.33333 370.877 65 c 128
 293.027 121.667 238.772 196.833 208.113 290.5 c 128
827.083 1602 m 1
 923.525 1270 l 1
 869.525 1270 l 1
 610.083 1602 l 1
 827.083 1602 l 1
EndSplineSet
Fore
Refer: 448 768 S 1 0 0 1 1219 246 2
Refer: 48 79 N 1 0 0 1 0 0 3
Validated: 1
EndChar

StartChar: Oacute
Encoding: 211 211 147
Width: 1312
Flags: W
HStem: -20 69<544.265 817.961> 1149 70<694.656 970.623> 1270 332
VStem: 178 207<251.713 723.5> 844 425 1131 205<462.918 948.548>
LayerCount: 2
Back
SplineSet
397.414 612 m 0
 388.932 561.333 384.841 510 385.143 458 c 128
 385.441 406 391.462 355.333 403.207 306 c 128
 414.951 256.667 431.811 213 453.785 175 c 128
 475.76 137 505.655 106.5 543.473 83.5 c 128
 581.291 60.5 624.867 49 674.2 49 c 128
 723.534 49 770.374 60 814.722 82 c 128
 859.07 104 897.534 132.667 930.113 168 c 0
 961.471 204 990.388 245.333 1016.86 292 c 0
 1066.26 380 1099.77 476.667 1117.39 582 c 0
 1146.85 758 1127.39 904.667 1059.02 1022 c 0
 1009.86 1106.67 937.276 1149 841.276 1149 c 0
 701.943 1149 587.333 1067.67 497.445 905 c 0
 448.942 818.333 415.933 722.667 398.418 618 c 0
 397.916 615 397.916 615 397.414 612 c 0
208.113 290.5 m 128
 177.454 384.167 170.269 479.667 186.557 577 c 128
 202.844 674.333 231.125 760.667 271.398 836 c 128
 311.672 911.333 360.883 977.333 419.032 1034 c 128
 477.182 1090.67 544.712 1135.67 621.623 1169 c 128
 698.534 1202.33 784.99 1219 880.99 1219 c 128
 976.991 1219 1064.06 1190.5 1142.18 1133.5 c 128
 1220.31 1076.5 1274.98 1000.83 1306.2 906.5 c 128
 1337.41 812.167 1343.7 709.333 1325.07 598 c 128
 1306.44 486.667 1265.45 384.167 1202.11 290.5 c 128
 1138.77 196.833 1058.69 121.667 961.877 65 c 128
 865.061 8.33333 761.82 -20 652.153 -20 c 128
 542.487 -20 448.728 8.33333 370.877 65 c 128
 293.027 121.667 238.772 196.833 208.113 290.5 c 128
1050.08 1602 m 1
 1268.08 1602 l 1
 896.525 1270 l 1
 843.525 1270 l 1
 1050.08 1602 l 1
EndSplineSet
Fore
Refer: 449 769 S 1 0 0 1 1220 246 2
Refer: 48 79 N 1 0 0 1 0 0 3
Validated: 1
EndChar

StartChar: Ocircumflex
Encoding: 212 212 148
Width: 1312
Flags: W
HStem: -20 69<544.265 817.961> 1149 70<694.656 970.623> 1270 332
VStem: 178 207<251.713 723.5> 626 488 1131 205<462.918 948.548>
LayerCount: 2
Back
SplineSet
397.414 612 m 0
 388.932 561.333 384.841 510 385.143 458 c 128
 385.441 406 391.462 355.333 403.207 306 c 128
 414.951 256.667 431.811 213 453.785 175 c 128
 475.76 137 505.655 106.5 543.473 83.5 c 128
 581.291 60.5 624.867 49 674.2 49 c 128
 723.534 49 770.374 60 814.722 82 c 128
 859.07 104 897.534 132.667 930.113 168 c 0
 961.471 204 990.388 245.333 1016.86 292 c 0
 1066.26 380 1099.77 476.667 1117.39 582 c 0
 1146.85 758 1127.39 904.667 1059.02 1022 c 0
 1009.86 1106.67 937.276 1149 841.276 1149 c 0
 701.943 1149 587.333 1067.67 497.445 905 c 0
 448.942 818.333 415.933 722.667 398.418 618 c 0
 397.916 615 397.916 615 397.414 612 c 0
208.113 290.5 m 128
 177.454 384.167 170.269 479.667 186.557 577 c 128
 202.844 674.333 231.125 760.667 271.398 836 c 128
 311.672 911.333 360.883 977.333 419.032 1034 c 128
 477.182 1090.67 544.712 1135.67 621.623 1169 c 128
 698.534 1202.33 784.99 1219 880.99 1219 c 128
 976.991 1219 1064.06 1190.5 1142.18 1133.5 c 128
 1220.31 1076.5 1274.98 1000.83 1306.2 906.5 c 128
 1337.41 812.167 1343.7 709.333 1325.07 598 c 128
 1306.44 486.667 1265.45 384.167 1202.11 290.5 c 128
 1138.77 196.833 1058.69 121.667 961.877 65 c 128
 865.061 8.33333 761.82 -20 652.153 -20 c 128
 542.487 -20 448.728 8.33333 370.877 65 c 128
 293.027 121.667 238.772 196.833 208.113 290.5 c 128
977.083 1602 m 1
 1113.53 1270 l 1
 1060.53 1270 l 1
 900.312 1448 l 1
 679.525 1270 l 1
 626.525 1270 l 1
 874.083 1602 l 1
 977.083 1602 l 1
EndSplineSet
Fore
Refer: 450 770 S 1 0 0 1 1219 246 2
Refer: 48 79 N 1 0 0 1 0 0 3
Validated: 1
EndChar

StartChar: Otilde
Encoding: 213 213 149
Width: 1312
Flags: W
HStem: -20 69<544.265 817.961> 1149 70<694.656 970.623> 1270 109<946.703 1139.38> 1391 108<642.52 834.893>
VStem: 178 207<251.713 723.5> 564 39<1270 1329.16> 1131 205<462.918 948.548> 1180 39<1440.41 1499>
LayerCount: 2
Back
SplineSet
397.414 612 m 0
 388.932 561.333 384.841 510 385.143 458 c 128
 385.441 406 391.462 355.333 403.207 306 c 128
 414.951 256.667 431.811 213 453.785 175 c 128
 475.76 137 505.655 106.5 543.473 83.5 c 128
 581.291 60.5 624.867 49 674.2 49 c 128
 723.534 49 770.374 60 814.722 82 c 128
 859.07 104 897.534 132.667 930.113 168 c 0
 961.471 204 990.388 245.333 1016.86 292 c 0
 1066.26 380 1099.77 476.667 1117.39 582 c 0
 1146.85 758 1127.39 904.667 1059.02 1022 c 0
 1009.86 1106.67 937.276 1149 841.276 1149 c 0
 701.943 1149 587.333 1067.67 497.445 905 c 0
 448.942 818.333 415.933 722.667 398.418 618 c 0
 397.916 615 397.916 615 397.414 612 c 0
208.113 290.5 m 128
 177.454 384.167 170.269 479.667 186.557 577 c 128
 202.844 674.333 231.125 760.667 271.398 836 c 128
 311.672 911.333 360.883 977.333 419.032 1034 c 128
 477.182 1090.67 544.712 1135.67 621.623 1169 c 128
 698.534 1202.33 784.99 1219 880.99 1219 c 128
 976.991 1219 1064.06 1190.5 1142.18 1133.5 c 128
 1220.31 1076.5 1274.98 1000.83 1306.2 906.5 c 128
 1337.41 812.167 1343.7 709.333 1325.07 598 c 128
 1306.44 486.667 1265.45 384.167 1202.11 290.5 c 128
 1138.77 196.833 1058.69 121.667 961.877 65 c 128
 865.061 8.33333 761.82 -20 652.153 -20 c 128
 542.487 -20 448.728 8.33333 370.877 65 c 128
 293.027 121.667 238.772 196.833 208.113 290.5 c 128
1083.03 1279 m 0
 1065.36 1273 1043.53 1270 1017.53 1270 c 128
 991.525 1270 941.067 1290.17 866.149 1330.5 c 128
 791.232 1370.83 744.44 1391 725.773 1391 c 0
 687.107 1391 658.767 1381 640.753 1361 c 128
 622.74 1341 610.331 1310.67 603.525 1270 c 1
 564.525 1270 l 1
 585.164 1393.34 630.103 1466.67 699.341 1490 c 0
 717.011 1496 738.847 1499 764.847 1499 c 128
 790.847 1499 841.5 1479 916.806 1439 c 128
 992.112 1399 1039.1 1379 1057.77 1379 c 0
 1096.43 1379 1124.74 1388.83 1142.7 1408.5 c 128
 1160.66 1428.17 1173.04 1458.33 1179.85 1499 c 1
 1218.85 1499 l 1
 1198.32 1376.33 1153.05 1303 1083.03 1279 c 0
EndSplineSet
Fore
Refer: 451 771 S 1 0 0 1 1218 246 2
Refer: 48 79 N 1 0 0 1 0 0 3
Validated: 1
EndChar

StartChar: Odieresis
Encoding: 214 214 150
Width: 1312
Flags: W
HStem: -20 69<544.265 817.961> 1149 70<694.656 970.623> 1270 201<623.409 759.265 1000.41 1136.27>
VStem: 178 207<251.713 723.5> 596 204<1304.04 1442.32> 973 204<1304.04 1442.32> 1131 205<462.918 948.548>
LayerCount: 2
Back
SplineSet
397.414 612 m 0
 388.932 561.333 384.841 510 385.143 458 c 128
 385.441 406 391.462 355.333 403.207 306 c 128
 414.951 256.667 431.811 213 453.785 175 c 128
 475.76 137 505.655 106.5 543.473 83.5 c 128
 581.291 60.5 624.867 49 674.2 49 c 128
 723.534 49 770.374 60 814.722 82 c 128
 859.07 104 897.534 132.667 930.113 168 c 0
 961.471 204 990.388 245.333 1016.86 292 c 0
 1066.26 380 1099.77 476.667 1117.39 582 c 0
 1146.85 758 1127.39 904.667 1059.02 1022 c 0
 1009.86 1106.67 937.276 1149 841.276 1149 c 0
 701.943 1149 587.333 1067.67 497.445 905 c 0
 448.942 818.333 415.933 722.667 398.418 618 c 0
 397.916 615 397.916 615 397.414 612 c 0
208.113 290.5 m 128
 177.454 384.167 170.269 479.667 186.557 577 c 128
 202.844 674.333 231.125 760.667 271.398 836 c 128
 311.672 911.333 360.883 977.333 419.032 1034 c 128
 477.182 1090.67 544.712 1135.67 621.623 1169 c 128
 698.534 1202.33 784.99 1219 880.99 1219 c 128
 976.991 1219 1064.06 1190.5 1142.18 1133.5 c 128
 1220.31 1076.5 1274.98 1000.83 1306.2 906.5 c 128
 1337.41 812.167 1343.7 709.333 1325.07 598 c 128
 1306.44 486.667 1265.45 384.167 1202.11 290.5 c 128
 1138.77 196.833 1058.69 121.667 961.877 65 c 128
 865.061 8.33333 761.82 -20 652.153 -20 c 128
 542.487 -20 448.728 8.33333 370.877 65 c 128
 293.027 121.667 238.772 196.833 208.113 290.5 c 128
975.26 1370 m 128
 979.833 1397.33 993.627 1421 1016.64 1441 c 128
 1039.65 1461 1064.83 1471 1092.16 1471 c 128
 1119.5 1471 1141.33 1461 1157.64 1441 c 128
 1173.96 1421 1179.83 1397.33 1175.26 1370 c 128
 1170.69 1342.67 1156.92 1319.17 1133.96 1299.5 c 128
 1111 1279.83 1085.86 1270 1058.53 1270 c 128
 1031.19 1270 1009.34 1279.83 992.962 1299.5 c 128
 976.586 1319.17 970.686 1342.67 975.26 1370 c 128
598.26 1370 m 128
 602.833 1397.33 616.627 1421 639.641 1441 c 128
 662.654 1461 687.828 1471 715.161 1471 c 128
 742.494 1471 764.488 1461 781.141 1441 c 128
 797.794 1421 803.834 1397.33 799.26 1370 c 128
 794.686 1342.67 780.753 1319.17 757.462 1299.5 c 128
 734.171 1279.83 708.859 1270 681.525 1270 c 128
 654.192 1270 632.338 1279.83 615.962 1299.5 c 128
 599.586 1319.17 593.686 1342.67 598.26 1370 c 128
EndSplineSet
Fore
Refer: 456 776 S 1 0 0 1 1218 246 2
Refer: 48 79 N 1 0 0 1 0 0 3
Validated: 1
EndChar

StartChar: multiply
Encoding: 215 215 151
Width: 860
Flags: W
HStem: 326 651
LayerCount: 2
Fore
SplineSet
603 651 m 1,0,-1
 821 389 l 1,1,-1
 747 326 l 1,2,-1
 528 588 l 1,3,-1
 223 326 l 1,4,-1
 169 389 l 1,5,-1
 476 651 l 1,6,-1
 257 913 l 1,7,-1
 331 977 l 1,8,-1
 550 715 l 1,9,-1
 855 977 l 1,10,-1
 909 913 l 1,11,-1
 603 651 l 1,0,-1
EndSplineSet
Validated: 1
EndChar

StartChar: Oslash
Encoding: 216 216 152
Width: 1312
Flags: W
HStem: -20 69<542.282 815.631> 1149 70<695.633 971.225>
VStem: 179 205<249.058 727.122> 1131 204<462.337 947.972>
AnchorPoint: "ogonek" 719 0 basechar 0
AnchorPoint: "cedilla" 659 0 basechar 0
AnchorPoint: "below" 659 0 basechar 0
AnchorPoint: "top" 870 1270 basechar 0
LayerCount: 2
Fore
SplineSet
1057 1026 m 1,0,1
 980 1149 980 1149 841 1149 c 0,2,3
 632 1149 632 1149 497 905 c 1,4,5
 384 703 384 703 384 461 c 0,6,7
 384 334 384 334 426 231 c 1,8,-1
 1057 1026 l 1,0,1
1089 963 m 1,9,-1
 458 168 l 1,10,11
 532 49 532 49 674 49 c 0,12,13
 882 50 882 50 1017 292 c 0,14,15
 1131 495 1131 495 1131 733 c 1,16,17
 1130 859 1130 859 1089 963 c 1,9,-1
324 104 m 1,18,19
 179 245 179 245 179 479 c 0,20,21
 179 663 179 663 271 836 c 0,22,23
 397 1072 397 1072 622 1169 c 0,24,25
 737 1219 737 1219 880 1219 c 128,-1,26
 1023 1219 1023 1219 1142 1135 c 1,27,-1
 1236 1253 l 1,28,-1
 1289 1217 l 1,29,-1
 1191 1092 l 1,30,31
 1335 952 1335 952 1335 719 c 128,-1,32
 1335 486 1335 486 1202 290 c 0,33,34
 1107 150 1107 150 962 65 c 128,-1,35
 817 -20 817 -20 653.5 -20 c 128,-1,36
 490 -20 490 -20 375 61 c 1,37,-1
 279 -57 l 1,38,-1
 226 -20 l 1,39,-1
 324 104 l 1,18,19
EndSplineSet
Validated: 1
EndChar

StartChar: Ugrave
Encoding: 217 217 153
Width: 1265
Flags: W
HStem: -20 69<567.888 841.265> 1155 43<251 352.307 575.461 691 1087 1188.31 1291.46 1407> 1270 332
VStem: 252 186<167.081 677.938> 641 313
LayerCount: 2
Back
SplineSet
691.28 1155 m 1
 616.614 1155 571.327 1141.33 555.42 1114 c 1
 449.157 479 l 2
 426.399 343 438.55 237.333 485.609 162 c 128
 532.67 86.6667 603.034 49 696.7 49 c 128
 790.367 49 874.754 87.1667 949.86 163.5 c 128
 1024.97 239.833 1073.06 341 1094.15 467 c 2
 1202.42 1114 l 1
 1195.66 1141.33 1154.95 1155 1080.28 1155 c 1
 1087.48 1198 l 1
 1414.48 1198 l 1
 1407.28 1155 l 1
 1332.61 1155 1287.33 1141.33 1271.42 1114 c 1
 1170.01 508 l 2
 1126.72 249.333 1013.95 83.3333 831.674 10 c 0
 780.325 -10 725.985 -20 668.653 -20 c 0
 340.653 -20 206.105 156 265.01 508 c 2
 366.42 1114 l 1
 359.66 1141.33 318.947 1155 244.28 1155 c 1
 251.477 1198 l 1
 698.477 1198 l 1
 691.28 1155 l 1
858.083 1602 m 1
 954.525 1270 l 1
 900.525 1270 l 1
 641.083 1602 l 1
 858.083 1602 l 1
EndSplineSet
Fore
Refer: 448 768 S 1 0 0 1 1250 246 2
Refer: 54 85 N 1 0 0 1 0 0 3
Validated: 1
EndChar

StartChar: Uacute
Encoding: 218 218 154
Width: 1265
Flags: W
HStem: -20 69<567.888 841.265> 1155 43<251 352.307 575.461 691 1087 1188.31 1291.46 1407> 1270 332
VStem: 252 186<167.081 677.938> 874 425
LayerCount: 2
Back
SplineSet
691.28 1155 m 1
 616.614 1155 571.327 1141.33 555.42 1114 c 1
 449.157 479 l 2
 426.399 343 438.55 237.333 485.609 162 c 128
 532.67 86.6667 603.034 49 696.7 49 c 128
 790.367 49 874.754 87.1667 949.86 163.5 c 128
 1024.97 239.833 1073.06 341 1094.15 467 c 2
 1202.42 1114 l 1
 1195.66 1141.33 1154.95 1155 1080.28 1155 c 1
 1087.48 1198 l 1
 1414.48 1198 l 1
 1407.28 1155 l 1
 1332.61 1155 1287.33 1141.33 1271.42 1114 c 1
 1170.01 508 l 2
 1126.72 249.333 1013.95 83.3333 831.674 10 c 0
 780.325 -10 725.985 -20 668.653 -20 c 0
 340.653 -20 206.105 156 265.01 508 c 2
 366.42 1114 l 1
 359.66 1141.33 318.947 1155 244.28 1155 c 1
 251.477 1198 l 1
 698.477 1198 l 1
 691.28 1155 l 1
1081.08 1602 m 1
 1299.08 1602 l 1
 927.525 1270 l 1
 874.525 1270 l 1
 1081.08 1602 l 1
EndSplineSet
Fore
Refer: 449 769 S 1 0 0 1 1250 246 2
Refer: 54 85 N 1 0 0 1 0 0 3
Validated: 1
EndChar

StartChar: Ucircumflex
Encoding: 219 219 155
Width: 1265
Flags: W
HStem: -20 69<567.888 841.265> 1155 43<251 352.307 575.461 691 1087 1188.31 1291.46 1407> 1270 332
VStem: 252 186<167.081 677.938> 657 488
LayerCount: 2
Back
SplineSet
691.28 1155 m 1
 616.614 1155 571.327 1141.33 555.42 1114 c 1
 449.157 479 l 2
 426.399 343 438.55 237.333 485.609 162 c 128
 532.67 86.6667 603.034 49 696.7 49 c 128
 790.367 49 874.754 87.1667 949.86 163.5 c 128
 1024.97 239.833 1073.06 341 1094.15 467 c 2
 1202.42 1114 l 1
 1195.66 1141.33 1154.95 1155 1080.28 1155 c 1
 1087.48 1198 l 1
 1414.48 1198 l 1
 1407.28 1155 l 1
 1332.61 1155 1287.33 1141.33 1271.42 1114 c 1
 1170.01 508 l 2
 1126.72 249.333 1013.95 83.3333 831.674 10 c 0
 780.325 -10 725.985 -20 668.653 -20 c 0
 340.653 -20 206.105 156 265.01 508 c 2
 366.42 1114 l 1
 359.66 1141.33 318.947 1155 244.28 1155 c 1
 251.477 1198 l 1
 698.477 1198 l 1
 691.28 1155 l 1
1008.08 1602 m 1
 1144.53 1270 l 1
 1091.53 1270 l 1
 931.312 1448 l 1
 710.525 1270 l 1
 657.525 1270 l 1
 905.083 1602 l 1
 1008.08 1602 l 1
EndSplineSet
Fore
Refer: 450 770 N 1 0 0 1 1250 246 2
Refer: 54 85 N 1 0 0 1 0 0 3
Validated: 1
EndChar

StartChar: Udieresis
Encoding: 220 220 156
Width: 1265
Flags: W
HStem: -20 69<567.888 841.265> 1155 43<251 352.307 575.461 691 1087 1188.31 1291.46 1407> 1270 201<653.409 789.265 1030.41 1166.27>
VStem: 252 186<167.081 677.938> 626 204<1304.04 1442.32> 1003 204<1304.04 1442.32>
LayerCount: 2
Back
SplineSet
691.28 1155 m 1
 616.614 1155 571.327 1141.33 555.42 1114 c 1
 449.157 479 l 2
 426.399 343 438.55 237.333 485.609 162 c 128
 532.67 86.6667 603.034 49 696.7 49 c 128
 790.367 49 874.754 87.1667 949.86 163.5 c 128
 1024.97 239.833 1073.06 341 1094.15 467 c 2
 1202.42 1114 l 1
 1195.66 1141.33 1154.95 1155 1080.28 1155 c 1
 1087.48 1198 l 1
 1414.48 1198 l 1
 1407.28 1155 l 1
 1332.61 1155 1287.33 1141.33 1271.42 1114 c 1
 1170.01 508 l 2
 1126.72 249.333 1013.95 83.3333 831.674 10 c 0
 780.325 -10 725.985 -20 668.653 -20 c 0
 340.653 -20 206.105 156 265.01 508 c 2
 366.42 1114 l 1
 359.66 1141.33 318.947 1155 244.28 1155 c 1
 251.477 1198 l 1
 698.477 1198 l 1
 691.28 1155 l 1
1005.26 1370 m 128
 1009.83 1397.33 1023.63 1421 1046.64 1441 c 128
 1069.65 1461 1094.83 1471 1122.16 1471 c 128
 1149.5 1471 1171.33 1461 1187.64 1441 c 128
 1203.96 1421 1209.83 1397.33 1205.26 1370 c 128
 1200.69 1342.67 1186.92 1319.17 1163.96 1299.5 c 128
 1141 1279.83 1115.86 1270 1088.53 1270 c 128
 1061.19 1270 1039.34 1279.83 1022.96 1299.5 c 128
 1006.59 1319.17 1000.69 1342.67 1005.26 1370 c 128
628.26 1370 m 128
 632.833 1397.33 646.627 1421 669.641 1441 c 128
 692.654 1461 717.828 1471 745.161 1471 c 128
 772.494 1471 794.488 1461 811.141 1441 c 128
 827.806 1421 833.846 1397.33 829.26 1370 c 128
 824.686 1342.67 810.753 1319.17 787.462 1299.5 c 128
 764.171 1279.83 738.859 1270 711.525 1270 c 128
 684.192 1270 662.338 1279.83 645.962 1299.5 c 128
 629.586 1319.17 623.686 1342.67 628.26 1370 c 128
EndSplineSet
Fore
Refer: 456 776 N 1 0 0 1 1248 246 2
Refer: 54 85 N 1 0 0 1 0 0 3
Validated: 1
EndChar

StartChar: Yacute
Encoding: 221 221 157
Width: 1153
Flags: W
HStem: 0 43<369 485.46 707.693 809> 1155 43<182 281.105 504.496 623 1029 1129.81 1246.06 1358> 1270 332
VStem: 817 425
LayerCount: 2
Back
SplineSet
369.195 43 m 1
 444.529 43 490.15 56.6667 506.057 84 c 1
 567.472 451 l 1
 299.42 1114 l 1
 285.993 1141.33 244.614 1155 175.28 1155 c 1
 182.477 1198 l 1
 630.477 1198 l 1
 623.28 1155 l 1
 558.614 1155 517.552 1146.67 500.097 1130 c 1
 725.222 575 l 1
 1143.09 1118 l 1
 1133.22 1142.67 1092.95 1155 1022.28 1155 c 1
 1029.48 1198 l 1
 1365.48 1198 l 1
 1358.28 1155 l 1
 1300.95 1155 1260.78 1146 1237.76 1128 c 1
 766.349 516 l 1
 694.057 84 l 1
 700.816 56.6667 741.529 43 816.195 43 c 1
 809 0 l 1
 362 0 l 1
 369.195 43 l 1
1023.08 1602 m 1
 1241.08 1602 l 1
 869.525 1270 l 1
 816.525 1270 l 1
 1023.08 1602 l 1
EndSplineSet
Fore
Refer: 449 769 N 1 0 0 1 1193 246 2
Refer: 58 89 N 1 0 0 1 0 0 3
Validated: 1
EndChar

StartChar: Thorn
Encoding: 222 222 158
Width: 1069
Flags: W
HStem: 0 43<93 208.539 430.693 532> 289 69<463 780.336> 872 70<561 848.675> 1155 43<286 387.307 609.461 725>
VStem: 932 203<509.565 805.312>
LayerCount: 2
Fore
SplineSet
417 84 m 1,0,1
 427 43 427 43 539 43 c 1,2,-1
 532 0 l 1,3,-1
 86 0 l 1,4,-1
 93 43 l 1,5,6
 205 43 205 43 229 84 c 1,7,-1
 401 1114 l 1,8,9
 391 1155 391 1155 279 1155 c 1,10,-1
 286 1198 l 1,11,-1
 732 1198 l 1,12,-1
 725 1155 l 1,13,14
 613 1155 613 1155 589 1114 c 1,15,-1
 561 942 l 1,16,-1
 668 942 l 2,17,18
 1049 942 1049 942 1122 750 c 0,19,20
 1135 716 1135 716 1135 700 c 2,21,-1
 1135 683 l 2,22,23
 1135 496 1135 496 968 382 c 0,24,25
 831 289 831 289 588 289 c 2,26,27
 451 289 l 1,28,-1
 417 84 l 1,0,1
549 872 m 1,29,-1
 463 358 l 1,30,-1
 595 358 l 2,31,32
 752 358 752 358 827 421 c 128,-1,33
 902 484 902 484 927 633 c 0,34,35
 932 664 932 664 932 690 c 0,36,37
 932 762 932 762 895 806 c 0,38,39
 839 872 839 872 656 872 c 2,40,-1
 549 872 l 1,29,-1
EndSplineSet
Validated: 1
EndChar

StartChar: germandbls
Encoding: 223 223 159
Width: 1052
Flags: W
HStem: -216 61<-70 0.567871> -20 61<588.839 733.572> 705 54<577.865 667.232> 1230 60<629.514 774.094>
VStem: 441 124<64.2054 234.795> 824 166<917.312 1187.29> 883 178<238.689 557.935>
LayerCount: 2
Back
SplineSet
-34 -216 m 5
 -47 -155 l 4
 114 -108 173 15 172 174 c 6
 172 971 l 6
 172 1128.33 236.333 1229 365 1273 c 4
 398.334 1284.33 440.667 1290 492 1290 c 132
 543.333 1290 591.667 1284 637 1272 c 4
 682.333 1258.67 717.667 1240 743 1216 c 4
 789.667 1171.33 813 1107.33 813 1024 c 4
 813 966.667 794.333 911.167 757 857.5 c 132
 719.667 803.833 672 763 614 735 c 5
 715.333 717.667 803.833 674.5 879.5 605.5 c 132
 955.167 536.5 993 464.333 993 389 c 4
 993 263.667 964 164.167 906 90.5 c 132
 848 16.8334 766.667 -20 662 -20 c 4
 618 -20 579 -13.1667 545 0.5 c 132
 511 14.1667 485.333 30.6667 468 50 c 4
 433.333 88.6667 416 124.833 416 158.5 c 132
 416 192.167 421.167 217.167 431.5 233.5 c 132
 441.833 249.833 457.5 258 478.5 258 c 132
 499.501 258 513.334 250.5 520 235.5 c 132
 526.667 220.5 531.5 202.5 534.5 181.5 c 132
 537.5 160.5 541.667 139.333 547 118 c 132
 552.333 96.6667 563.5 78.5 580.5 63.5 c 132
 597.5 48.5 620.333 41 649 41 c 4
 694.333 41 734.667 70 770 128 c 132
 805.333 186 823 250.833 823 322.5 c 132
 823 394.167 807.667 457.5 777 512.5 c 132
 746.333 567.5 704.833 613.333 652.5 650 c 132
 600.167 686.667 545.667 705 489 705 c 6
 485 705 l 6
 463.667 705 453 711.5 453 724.5 c 132
 453 737.5 463.667 747.333 485 754 c 5
 522.333 768 559 803.333 595 860 c 132
 631 916.667 649 970.667 649 1022 c 4
 649 1086 628.667 1141.33 588 1188 c 4
 564 1216 534.667 1230 500 1230 c 4
 498 1230 l 4
 462 1230 429.333 1209.67 400 1169 c 132
 370.667 1128.33 356 1071.66 356 999 c 6
 356 222 l 6
 356 -78 152 -175 -34 -216 c 5
EndSplineSet
Fore
SplineSet
708 1290 m 0,0,1
 990 1290 990 1290 990 1086 c 0,2,3
 990 961 990 961 910.5 869 c 128,-1,4
 831 777 831 777 737 735 c 1,5,6
 885 709 885 709 973 614 c 128,-1,7
 1061 519 1061 519 1061 426 c 0,8,9
 1061 408 1061 408 1058 389 c 0,10,11
 1027 201 1027 201 921.5 90.5 c 128,-1,12
 816 -20 816 -20 671.5 -20 c 128,-1,13
 527 -20 527 -20 469 60 c 0,14,15
 441 99 441 99 441 124.5 c 128,-1,16
 441 150 441 150 446 179.5 c 128,-1,17
 451 209 451 209 470.5 233.5 c 128,-1,18
 490 258 490 258 521.5 258 c 128,-1,19
 553 258 553 258 559.5 235.5 c 128,-1,20
 566 213 566 213 565 181.5 c 128,-1,21
 564 150 564 150 566.5 118 c 128,-1,22
 569 86 569 86 591 63.5 c 128,-1,23
 613 41 613 41 656 41 c 0,24,25
 724 41 724 41 791 128 c 0,26,27
 883 246 883 246 883 399.5 c 128,-1,28
 883 553 883 553 761 650 c 0,29,30
 692 705 692 705 607 705 c 2,31,-1
 603 705 l 2,32,33
 571 705 571 705 574.5 724.5 c 128,-1,34
 578 744 578 744 624.5 759 c 128,-1,35
 671 774 671 774 747.5 870 c 128,-1,36
 824 966 824 966 824 1050.5 c 128,-1,37
 824 1135 824 1135 791 1182.5 c 128,-1,38
 758 1230 758 1230 706 1230 c 2,39,-1
 704 1230 l 2,40,41
 650 1230 650 1230 595.5 1169 c 128,-1,42
 541 1108 541 1108 523 999 c 2,43,-1
 393 222 l 2,44,45
 353 -20 353 -20 161 -130 c 0,46,47
 63 -186 63 -186 -70 -216 c 1,48,-1
 -73 -155 l 1,49,50
 157 -91 157 -91 201 174 c 2,51,-1
 334 971 l 2,52,53
 373 1207 373 1207 578 1273 c 0,54,55
 631 1290 631 1290 708 1290 c 0,0,1
EndSplineSet
Validated: 1
EndChar

StartChar: agrave
Encoding: 224 224 160
Width: 989
Flags: MW
LayerCount: 2
Back
SplineSet
307.401 594 m 0
 249.401 594 226.928 633 239.98 711 c 0
 247.232 754.333 269.758 793.333 307.56 828 c 0
 375.38 890.667 472.957 922 600.29 922 c 0
 851.623 922 959.435 807.333 923.724 578 c 1
 855.783 172 l 2
 849.771 136 850.723 105.833 858.639 81.5 c 128
 866.566 57.1667 882.03 45 905.03 45 c 128
 928.03 45 947.812 50.6667 964.375 62 c 1
 978.678 16 l 1
 947.774 -5.33333 895.822 -16 822.822 -16 c 128
 749.822 -16 703.674 12 684.379 68 c 1
 597.229 9.33333 492.32 -20 369.653 -20 c 0
 164.987 -20 75.5944 57.3333 101.477 212 c 0
 112.41 277.333 149.973 329.5 214.166 368.5 c 128
 278.359 407.5 345.461 435 415.472 451 c 128
 485.482 467 550.241 480.5 609.749 491.5 c 128
 669.256 502.5 709.011 510 729.014 514 c 1
 730.688 524 l 2
 751.884 650.667 749.386 736.334 723.194 781 c 128
 697.002 825.667 652.073 848 588.406 848 c 128
 524.74 848 473.985 841.5 436.144 828.5 c 128
 398.301 815.5 371.089 789.333 354.507 750 c 1
 376.507 750 392.78 742.667 403.325 728 c 128
 413.871 713.333 417.108 693.833 413.036 669.5 c 128
 408.964 645.167 397.007 626.5 377.165 613.5 c 128
 357.322 600.5 334.067 594 307.401 594 c 0
721.316 468 m 1
 709.536 465.33 686.505 460.163 652.223 452.5 c 128
 617.939 444.832 579.738 434.666 537.618 422 c 0
 389.7 378.667 307.709 309 291.644 213 c 0
 273.348 103.667 314.867 49 416.2 49 c 0
 460.2 49 507.65 56.6667 558.549 72 c 128
 609.448 87.3333 648.292 103.333 675.081 120 c 1
 672.325 151.333 674.405 187.667 681.321 229 c 2
 721.316 468 l 1
588.104 1387 m 25
 683.547 1055 l 1
 630.547 1055 l 1
 370.104 1387 l 1
 588.104 1387 l 25
EndSplineSet
Fore
Refer: 448 768 S 1 0 0 1 979 31 2
Refer: 66 97 N 1 0 0 1 0 0 3
Validated: 1
EndChar

StartChar: aacute
Encoding: 225 225 161
Width: 989
Flags: MW
LayerCount: 2
Back
SplineSet
307.401 594 m 0
 249.401 594 226.928 633 239.98 711 c 0
 247.232 754.333 269.758 793.333 307.56 828 c 0
 375.38 890.667 472.957 922 600.29 922 c 0
 851.623 922 959.435 807.333 923.724 578 c 1
 855.783 172 l 2
 849.771 136 850.723 105.833 858.639 81.5 c 128
 866.566 57.1667 882.03 45 905.03 45 c 128
 928.03 45 947.812 50.6667 964.375 62 c 1
 978.678 16 l 1
 947.774 -5.33333 895.822 -16 822.822 -16 c 128
 749.822 -16 703.674 12 684.379 68 c 1
 597.229 9.33333 492.32 -20 369.653 -20 c 0
 164.987 -20 75.5944 57.3333 101.477 212 c 0
 112.41 277.333 149.973 329.5 214.166 368.5 c 128
 278.359 407.5 345.461 435 415.472 451 c 128
 485.482 467 550.241 480.5 609.749 491.5 c 128
 669.256 502.5 709.011 510 729.014 514 c 1
 730.688 524 l 2
 751.884 650.667 749.386 736.334 723.194 781 c 128
 697.002 825.667 652.073 848 588.406 848 c 128
 524.74 848 473.985 841.5 436.144 828.5 c 128
 398.301 815.5 371.089 789.333 354.507 750 c 1
 376.507 750 392.78 742.667 403.325 728 c 128
 413.871 713.333 417.108 693.833 413.036 669.5 c 128
 408.964 645.167 397.007 626.5 377.165 613.5 c 128
 357.322 600.5 334.067 594 307.401 594 c 0
721.316 468 m 1
 709.536 465.33 686.505 460.163 652.223 452.5 c 128
 617.939 444.832 579.738 434.666 537.618 422 c 0
 389.7 378.667 307.709 309 291.644 213 c 0
 273.348 103.667 314.867 49 416.2 49 c 0
 460.2 49 507.65 56.6667 558.549 72 c 128
 609.448 87.3333 648.292 103.333 675.081 120 c 1
 672.325 151.333 674.405 187.667 681.321 229 c 2
 721.316 468 l 1
812.104 1387 m 25
 1029.1 1387 l 1
 657.547 1055 l 1
 604.547 1055 l 1
 812.104 1387 l 25
EndSplineSet
Fore
Refer: 449 769 S 1 0 0 1 981 31 2
Refer: 66 97 N 1 0 0 1 0 0 3
Validated: 1
EndChar

StartChar: acircumflex
Encoding: 226 226 162
Width: 989
Flags: MW
LayerCount: 2
Back
SplineSet
307.401 594 m 0
 249.401 594 226.928 633 239.98 711 c 0
 247.232 754.333 269.758 793.333 307.56 828 c 0
 375.38 890.667 472.957 922 600.29 922 c 0
 851.623 922 959.435 807.333 923.724 578 c 1
 855.783 172 l 2
 849.771 136 850.723 105.833 858.639 81.5 c 128
 866.566 57.1667 882.03 45 905.03 45 c 128
 928.03 45 947.812 50.6667 964.375 62 c 1
 978.678 16 l 1
 947.774 -5.33333 895.822 -16 822.822 -16 c 128
 749.822 -16 703.674 12 684.379 68 c 1
 597.229 9.33333 492.32 -20 369.653 -20 c 0
 164.987 -20 75.5944 57.3333 101.477 212 c 0
 112.41 277.333 149.973 329.5 214.166 368.5 c 128
 278.359 407.5 345.461 435 415.472 451 c 128
 485.482 467 550.241 480.5 609.749 491.5 c 128
 669.256 502.5 709.011 510 729.014 514 c 1
 730.688 524 l 2
 751.884 650.667 749.386 736.334 723.194 781 c 128
 697.002 825.667 652.073 848 588.406 848 c 128
 524.74 848 473.985 841.5 436.144 828.5 c 128
 398.301 815.5 371.089 789.333 354.507 750 c 1
 376.507 750 392.78 742.667 403.325 728 c 128
 413.871 713.333 417.108 693.833 413.036 669.5 c 128
 408.964 645.167 397.007 626.5 377.165 613.5 c 128
 357.322 600.5 334.067 594 307.401 594 c 0
721.316 468 m 1
 709.536 465.33 686.505 460.163 652.223 452.5 c 128
 617.939 444.832 579.738 434.666 537.618 422 c 0
 389.7 378.667 307.709 309 291.644 213 c 0
 273.348 103.667 314.867 49 416.2 49 c 0
 460.2 49 507.65 56.6667 558.549 72 c 128
 609.448 87.3333 648.292 103.333 675.081 120 c 1
 672.325 151.333 674.405 187.667 681.321 229 c 2
 721.316 468 l 1
738.104 1387 m 1
 875.547 1055 l 1
 821.547 1055 l 1
 661.333 1233 l 1
 440.547 1055 l 1
 387.547 1055 l 1
 636.104 1387 l 1
 738.104 1387 l 1
EndSplineSet
Fore
Refer: 450 770 S 1 0 0 1 980 31 2
Refer: 66 97 N 1 0 0 1 0 0 3
Validated: 1
EndChar

StartChar: atilde
Encoding: 227 227 163
Width: 989
Flags: W
HStem: -16 61<326.209 568.45 768 969.64> 848 74<403.66 696.557> 1055 109<707.703 900.384> 1176 108<403.52 595.893>
VStem: 97 190<70.2369 298.642> 236 177<609.039 727.309> 325 39<1055 1114.16> 674 178<97.002 413.062> 745 185<433.293 808.487> 941 39<1225.41 1284>
AnchorPoint: "mid" 486 242 basechar 0
AnchorPoint: "ogonek" 844 0 basechar 0
AnchorPoint: "cedilla" 406 0 basechar 0
AnchorPoint: "below" 485 0 basechar 0
AnchorPoint: "top" 698 1306 basechar 0
LayerCount: 2
Back
SplineSet
307.401 594 m 0
 249.401 594 226.928 633 239.98 711 c 0
 247.232 754.333 269.758 793.333 307.56 828 c 0
 375.38 890.667 472.957 922 600.29 922 c 0
 851.623 922 959.435 807.333 923.724 578 c 1
 855.783 172 l 2
 849.771 136 850.723 105.833 858.639 81.5 c 128
 866.566 57.1667 882.03 45 905.03 45 c 128
 928.03 45 947.812 50.6667 964.375 62 c 1
 978.678 16 l 1
 947.774 -5.33333 895.822 -16 822.822 -16 c 128
 749.822 -16 703.674 12 684.379 68 c 1
 597.229 9.33333 492.32 -20 369.653 -20 c 0
 164.987 -20 75.5944 57.3333 101.477 212 c 0
 112.41 277.333 149.973 329.5 214.166 368.5 c 128
 278.359 407.5 345.461 435 415.472 451 c 128
 485.482 467 550.241 480.5 609.749 491.5 c 128
 669.256 502.5 709.011 510 729.014 514 c 1
 730.688 524 l 2
 751.884 650.667 749.386 736.334 723.194 781 c 128
 697.002 825.667 652.073 848 588.406 848 c 128
 524.74 848 473.985 841.5 436.144 828.5 c 128
 398.301 815.5 371.089 789.333 354.507 750 c 1
 376.507 750 392.78 742.667 403.325 728 c 128
 413.871 713.333 417.108 693.833 413.036 669.5 c 128
 408.964 645.167 397.007 626.5 377.165 613.5 c 128
 357.322 600.5 334.067 594 307.401 594 c 0
721.316 468 m 1
 709.536 465.33 686.505 460.163 652.223 452.5 c 128
 617.939 444.832 579.738 434.666 537.618 422 c 0
 389.7 378.667 307.709 309 291.644 213 c 0
 273.348 103.667 314.867 49 416.2 49 c 0
 460.2 49 507.65 56.6667 558.549 72 c 128
 609.448 87.3333 648.292 103.333 675.081 120 c 1
 672.325 151.333 674.405 187.667 681.321 229 c 2
 721.316 468 l 1
844.053 1064 m 0
 825.716 1058 803.547 1055 777.547 1055 c 128
 751.547 1055 701.255 1075.17 626.671 1115.5 c 128
 552.087 1155.83 505.462 1176 486.795 1176 c 0
 448.128 1176 419.788 1166 401.774 1146 c 128
 383.761 1126 371.352 1095.67 364.547 1055 c 5
 325.547 1055 l 5
 346.186 1178.33 390.79 1251.67 459.361 1275 c 0
 477.033 1281 498.868 1284 524.868 1284 c 128
 550.868 1284 601.688 1264 677.327 1224 c 128
 752.967 1184 800.12 1164 818.787 1164 c 0
 857.457 1164 885.769 1173.83 903.724 1193.5 c 128
 921.682 1213.17 934.064 1243.33 940.868 1284 c 1
 979.868 1284 l 1
 959.452 1162 914.18 1088.67 844.053 1064 c 0
EndSplineSet
Fore
Refer: 451 771 S 1 0 0 1 979 31 2
Refer: 66 97 N 1 0 0 1 0 0 3
Validated: 1
EndChar

StartChar: adieresis
Encoding: 228 228 164
Width: 989
Flags: W
HStem: -16 61<326.209 568.45 768 969.64> 848 74<403.66 696.557> 1055 201<384.409 520.265 761.409 897.265>
VStem: 97 190<70.2369 298.642> 236 177<609.039 727.309> 357 204<1089.04 1227.32> 674 178<97.002 413.062> 734 204<1089.04 1227.32> 745 185<433.293 808.487>
AnchorPoint: "mid" 486 242 basechar 0
AnchorPoint: "ogonek" 844 0 basechar 0
AnchorPoint: "cedilla" 406 0 basechar 0
AnchorPoint: "below" 485 0 basechar 0
AnchorPoint: "top" 678 1306 basechar 0
LayerCount: 2
Back
SplineSet
307.401 594 m 0
 249.401 594 226.928 633 239.98 711 c 0
 247.232 754.333 269.758 793.333 307.56 828 c 0
 375.38 890.667 472.957 922 600.29 922 c 0
 851.623 922 959.435 807.333 923.724 578 c 1
 855.783 172 l 2
 849.771 136 850.723 105.833 858.639 81.5 c 128
 866.566 57.1667 882.03 45 905.03 45 c 128
 928.03 45 947.812 50.6667 964.375 62 c 1
 978.678 16 l 1
 947.774 -5.33333 895.822 -16 822.822 -16 c 128
 749.822 -16 703.674 12 684.379 68 c 1
 597.229 9.33333 492.32 -20 369.653 -20 c 0
 164.987 -20 75.5944 57.3333 101.477 212 c 0
 112.41 277.333 149.973 329.5 214.166 368.5 c 128
 278.359 407.5 345.461 435 415.472 451 c 128
 485.482 467 550.241 480.5 609.749 491.5 c 128
 669.256 502.5 709.011 510 729.014 514 c 1
 730.688 524 l 2
 751.884 650.667 749.386 736.334 723.194 781 c 128
 697.002 825.667 652.073 848 588.406 848 c 128
 524.74 848 473.985 841.5 436.144 828.5 c 128
 398.301 815.5 371.089 789.333 354.507 750 c 1
 376.507 750 392.78 742.667 403.325 728 c 128
 413.871 713.333 417.108 693.833 413.036 669.5 c 128
 408.964 645.167 397.007 626.5 377.165 613.5 c 128
 357.322 600.5 334.067 594 307.401 594 c 0
721.316 468 m 1
 709.536 465.33 686.505 460.163 652.223 452.5 c 128
 617.939 444.832 579.738 434.666 537.618 422 c 0
 389.7 378.667 307.709 309 291.644 213 c 0
 273.348 103.667 314.867 49 416.2 49 c 0
 460.2 49 507.65 56.6667 558.549 72 c 128
 609.448 87.3333 648.292 103.333 675.081 120 c 1
 672.325 151.333 674.405 187.667 681.321 229 c 2
 721.316 468 l 1
736.28 1155 m 128
 740.854 1182.33 754.648 1206 777.662 1226 c 128
 800.676 1246 825.849 1256 853.183 1256 c 128
 880.516 1256 902.509 1246 919.162 1226 c 128
 935.815 1206 941.854 1182.33 937.28 1155 c 128
 932.707 1127.67 918.774 1104.17 895.483 1084.5 c 128
 872.192 1064.83 846.88 1055 819.547 1055 c 128
 792.214 1055 770.359 1064.83 753.983 1084.5 c 128
 737.608 1104.17 731.707 1127.67 736.28 1155 c 128
359.28 1155 m 128
 363.854 1182.33 377.648 1206 400.662 1226 c 128
 423.676 1246 448.849 1256 476.183 1256 c 128
 503.517 1256 525.51 1246 542.162 1226 c 128
 558.815 1206 564.854 1182.33 560.28 1155 c 128
 555.707 1127.67 541.774 1104.17 518.483 1084.5 c 128
 495.192 1064.83 469.88 1055 442.547 1055 c 128
 415.214 1055 393.359 1064.83 376.983 1084.5 c 128
 360.605 1104.17 354.704 1127.67 359.28 1155 c 128
EndSplineSet
Fore
Refer: 456 776 S 1 0 0 1 979 31 2
Refer: 66 97 N 1 0 0 1 0 0 3
Validated: 1
EndChar

